<svg id="Layer_1" data-name="Layer 1" xmlns="http://www.w3.org/2000/svg" viewBox="0 0 275.42 280.95"><defs><style>.cls-1{fill:#035fab;}.cls-2{fill:#2492eb;}</style></defs><path class="cls-1" d="M995.85,382.05a80.41,80.41,0,0,1,12.89,3c-24.74-1.15-50.43,8.79-65.63,28.34-19,24.43-19,59.11-10.15,88.76,13.91,46.53,47.28,85.94,88.2,112.11,25.17,16.1,54.47,27.77,84.28,25.67s59.67-20.54,68.72-49c.22,23.25-14,45.31-33.71,57.62s-44.19,15.59-67.22,12.34c-33.25-4.69-64.63-21.29-90.65-42a232.19,232.19,0,0,1-59.1-70.37,224,224,0,0,1-12.9-28.14c-10.32-27.35-15.19-58.28-4.89-85.64a82.81,82.81,0,0,1,90.16-52.69Z" transform="translate(-899.98 -381.12)"/><path class="cls-2" d="M943.05,452.68c-2.15-24.56,15.87-47.89,38.68-57.24s49-6.78,72.36,1.21c48.53,16.64,87.74,56.07,108.52,103,7.62,17.19,13,35.7,12.79,54.51s-6.4,38-19.42,51.55c-18.64,19.41-48.52,24.54-74.93,19.37,6.62,0,13.41-1.64,19.91-2.78a65.25,65.25,0,0,0,18.69-6,55.51,55.51,0,0,0,13.57-9.95,65.23,65.23,0,0,0,17-29.37c5.76-21.54,1.47-44.7-7-65.35-15.31-37.48-44.31-69-79.92-88.29-21.07-11.41-45.35-18.71-69-14.85S948.24,429.28,943.05,452.68Z" transform="translate(-899.98 -381.12)"/><path class="cls-2" d="M1113.1,521.3c-2.62-11.47-9.41-20.26-19-26.9a42.08,42.08,0,0,0-18.46-6.85c-12.7-1.81-24.41.28-35.07,7.53-1.43,1-2.74,2.13-4.79,3.73v-39c-9.76,2.53-18.47,5.76-25.69,12.2-.06,1.65-.17,3.31-.18,5q0,24.38,0,48.76c0,19.24,0,38.48,0,57.72,0,1.67-.91,3.67,1,5l22.26-13a35.73,35.73,0,0,0,15.68,10,58.58,58.58,0,0,0,26.93,2.23c15.36-2.31,26.27-10.49,33.43-23.87C1116.47,550.28,1116.43,535.85,1113.1,521.3Zm-24.58,24.46c-2,8.34-6.93,14.77-15.08,17.94-11.31,4.39-24.51,2.32-32.54-8.62a25.94,25.94,0,0,1-5-17.88c-.62-6.88,1.69-12.94,5.94-18.33a22.79,22.79,0,0,1,16.51-9c6.35-.52,12.59-.23,18.29,3.31,7.1,4.4,11,10.72,12.27,18.89A36.3,36.3,0,0,1,1088.52,545.76Z" transform="translate(-899.98 -381.12)"/><path class="cls-1" d="M1051,436.23a25.78,25.78,0,0,0-3-.22c-3.8.26-7.59.65-11.4.85-7.46.4-14.92.79-22.38,1a8.49,8.49,0,0,0-6.58,2.82c-2.89,3.21-6.07,6.14-9.09,9.24q-7.82,8-15.58,16.1c-2,1.27-2,3.23-1.9,5.25.2,6.29.34,12.57.52,19.09h3.23c-.62-1.64-1.45-2.85-1.49-4.08-.2-6.36-.21-12.72-.28-19.09l14.19,1,3,4.68a15.06,15.06,0,0,0,1.57-.89c.91-.72,1.81-1.46,2.68-2.23a65.18,65.18,0,0,1,26-14.34c4-1.12,8.11-1.67,12.16-2.52.23-.05.38-.43.59-.69l-1.47-4.28Z" transform="translate(-899.98 -381.12)"/></svg>