<svg width="502" height="469" viewBox="0 0 502 469" fill="none" xmlns="http://www.w3.org/2000/svg">
<g clip-path="url(#clip0_1405_24943)">
<path d="M251 468.654C389.623 468.654 502 403.785 502 323.764C502 243.744 389.623 178.875 251 178.875C112.377 178.875 0 243.744 0 323.764C0 403.785 112.377 468.654 251 468.654Z" fill="#F0F0F0"/>
<path d="M199.01 433.604C246.787 433.604 285.518 411.233 285.518 383.638C285.518 356.043 246.787 333.672 199.01 333.672C151.233 333.672 112.503 356.043 112.503 383.638C112.503 411.233 151.233 433.604 199.01 433.604Z" fill="#E0E0E0"/>
<path d="M445.216 321.101L435.095 315.241C435.095 315.241 432.645 293.508 434.243 276.675C436.587 253.024 451.821 224.579 470.039 231.291C488.257 238.002 461.729 262.08 455.763 282.109C449.797 302.137 445.216 321.101 445.216 321.101Z" fill="#2492EB"/>
<path opacity="0.1" d="M445.216 321.101L435.095 315.241C435.095 315.241 432.645 293.508 434.243 276.675C436.587 253.024 451.821 224.579 470.039 231.291C488.257 238.002 461.729 262.08 455.763 282.109C449.797 302.137 445.216 321.101 445.216 321.101Z" fill="black"/>
<path d="M439.889 318.651C440.209 318.651 440.528 318.331 440.528 318.011C438.717 265.489 464.925 239.068 465.138 238.748C465.351 238.535 465.351 238.109 465.138 237.896C464.925 237.683 464.499 237.683 464.286 237.896C463.966 238.109 437.439 264.956 439.25 318.118C439.25 318.437 439.57 318.757 439.889 318.757V318.651Z" fill="white"/>
<path d="M451.608 324.723L444.364 320.568C444.364 320.568 443.085 305.653 450.436 287.542C456.828 271.774 472.596 258.67 480.586 261.44C488.576 264.21 488.363 269.857 484.421 275.716C480.586 281.576 456.935 295.745 451.608 324.723Z" fill="#2492EB"/>
<path d="M447.773 323.125C448.092 323.125 448.412 322.805 448.412 322.486C448.306 289.246 479.521 266.767 479.84 266.554C480.16 266.341 480.16 266.021 479.947 265.702C479.734 265.382 479.414 265.382 479.095 265.595C478.775 265.808 447.027 288.607 447.24 322.486C447.24 322.805 447.56 323.125 447.879 323.125H447.773Z" fill="white"/>
<path d="M69.5683 307.997L78.9435 301.711C78.9435 301.711 83.0985 277.208 79.2632 255.581C73.8298 225.218 52.9486 215.204 45.4911 218.293C38.0335 221.489 36.4355 230.545 50.3918 247.804C58.5951 258.031 69.3553 279.765 69.6749 307.997H69.5683Z" fill="#2492EB"/>
<g opacity="0.1">
<path d="M69.5683 307.997L78.9435 301.711C78.9435 301.711 83.0985 277.208 79.2632 255.581C73.8298 225.218 52.9486 215.204 45.4911 218.293C38.0335 221.489 36.4355 230.545 50.3918 247.804C58.5951 258.031 69.3553 279.765 69.6749 307.997H69.5683Z" fill="black"/>
</g>
<path d="M72.7644 295.852C72.4448 295.852 72.1252 295.426 72.1252 295.106C75.5344 266.554 63.4958 235.552 50.3918 223.301C50.0722 223.088 50.0722 222.661 50.3918 222.342C50.6048 222.022 51.031 222.022 51.3506 222.342C64.6677 234.913 77.0259 266.341 73.5102 295.319C73.5102 295.639 73.1906 295.958 72.871 295.958L72.7644 295.852Z" fill="white"/>
<path d="M44.9584 324.617C43.4669 325.469 39.0989 322.273 37.927 321.527C35.9028 320.249 34.1982 318.331 33.0263 316.094C31.7479 313.537 31.3217 310.873 31.6413 307.997C31.8544 306.505 32.174 305.12 32.6002 303.629C32.9198 302.244 33.3459 300.859 33.6655 299.474C33.9851 298.089 34.4113 296.704 34.1982 295.213C33.7721 292.336 31.2152 290.418 28.8714 288.714C26.3145 286.903 23.5446 284.346 23.5446 280.937C23.5446 278.273 24.823 275.823 26.4211 273.692C28.0191 271.561 29.9368 269.75 31.4283 267.513C32.4936 265.915 33.2394 263.997 33.0263 262.186C32.9198 261.014 32.3871 259.949 31.7479 258.884C30.4694 256.646 28.8714 254.622 28.0191 252.278C27.1668 249.935 27.1668 246.952 29.0845 245.14C30.576 243.649 32.9198 243.436 34.944 243.542C36.8616 243.542 38.7793 244.501 40.4839 245.353C46.0238 248.23 49.2199 254.729 55.0794 256.859C57.3166 257.712 59.767 257.818 62.1108 258.457C64.4546 258.99 66.7984 260.162 67.9703 262.293C70.2076 266.448 66.3722 271.775 67.9703 276.249C69.3553 280.191 73.2971 281.682 75.5344 285.198C76.4932 286.796 76.8128 288.607 76.5998 290.418C76.3867 293.508 75.9605 295.852 74.5756 299.261C73.4037 302.137 69.8879 307.677 69.8879 307.677C69.8879 307.677 45.1715 324.404 44.9584 324.51V324.617Z" fill="#2492EB"/>
<path d="M59.3408 315.774C58.9147 315.774 58.7016 315.454 58.7016 315.028C59.3408 288.075 46.0238 258.564 36.6486 250.041C36.329 249.828 36.329 249.402 36.6486 249.082C36.8616 248.763 37.2878 248.763 37.6074 249.082C47.1957 257.712 60.7258 287.755 60.0866 315.028C60.0866 315.348 59.767 315.668 59.4474 315.668L59.3408 315.774Z" fill="white"/>
<path d="M54.4402 282.854C54.4402 282.854 54.3336 282.854 54.2271 282.854C45.4911 280.298 34.7309 280.084 34.6244 280.084C34.1982 280.084 33.9852 279.765 33.9852 279.339C33.9852 278.913 34.3048 278.699 34.7309 278.699C34.8374 278.699 45.8107 279.019 54.6532 281.576C54.9728 281.576 55.1859 282.109 55.0794 282.428C55.0794 282.748 54.7598 282.961 54.4402 282.961V282.854Z" fill="white"/>
<path d="M305.44 289.46L301.392 287.116C300.113 286.37 299.048 284.559 299.048 283.067V115.379C299.048 113.887 300.113 112.076 301.392 111.331L413.575 46.5564C414.853 45.8106 416.877 45.8106 418.156 46.5564L422.204 48.9002C423.483 49.6459 424.548 51.4571 424.548 52.842V220.744C424.548 222.235 423.483 224.046 422.204 224.792L310.021 289.566C308.743 290.312 306.719 290.312 305.44 289.566V289.46Z" fill="#455A64"/>
<path d="M424.655 52.5224C424.441 51.3505 423.483 50.9244 422.311 51.5636L310.128 116.338C309.489 116.764 308.956 117.297 308.53 118.042L299.9 113.035C300.326 112.289 300.859 111.65 301.498 111.331L413.788 46.5564C415.066 45.8106 417.09 45.8106 418.369 46.5564L422.417 48.9002C423.589 49.5394 424.548 51.1375 424.761 52.5224H424.655Z" fill="#455A64"/>
<path d="M309.702 289.673C308.423 290.205 306.612 290.099 305.44 289.46L301.392 287.116C300.113 286.37 299.048 284.559 299.048 283.067V115.379C299.048 114.633 299.261 113.887 299.687 113.142L308.317 118.149C307.89 118.895 307.677 119.64 307.677 120.386V288.181C307.677 289.46 308.53 290.099 309.595 289.673H309.702Z" fill="#263238"/>
<path d="M307.784 120.386V288.181C307.784 289.673 308.849 290.205 310.128 289.46L422.311 224.686C423.589 223.94 424.654 222.129 424.654 220.637V52.8421C424.654 51.3506 423.589 50.8179 422.311 51.5637L310.128 116.338C308.849 117.084 307.784 118.895 307.784 120.386Z" fill="#37474F"/>
<path d="M281.576 184.308C280.084 183.456 273.373 179.62 273.053 179.407C271.988 178.768 271.562 177.17 272.627 176.105L299.154 147.659L307.784 152.667L281.256 181.112C280.298 182.177 280.617 183.562 281.576 184.308Z" fill="#455A64"/>
<path d="M307.784 152.667L281.256 181.112C279.978 182.497 281.043 184.841 282.961 184.734L307.784 182.71V152.667Z" fill="#37474F"/>
<path d="M366.272 101.423C379.376 93.8585 389.924 100.038 389.924 115.059C389.924 130.081 379.27 148.512 366.272 156.076C353.168 163.64 342.621 157.461 342.621 142.439C342.621 127.417 353.275 108.987 366.272 101.423Z" fill="#2492EB"/>
<path d="M366.059 113.248C370.321 110.798 373.73 112.822 373.73 117.723C373.73 122.623 370.321 128.589 366.059 131.04C361.798 133.49 358.389 131.466 358.389 126.565C358.389 121.665 361.798 115.699 366.059 113.248Z" fill="white"/>
<path d="M381.188 139.456C381.188 131.359 375.541 128.163 368.616 132.212L364.248 134.769C357.323 138.817 351.677 148.618 351.677 156.609V158.846C352.955 159.272 354.34 159.485 355.725 159.485C358.921 159.485 362.437 158.42 366.272 156.289C371.919 152.986 377.139 147.659 381.294 141.48V139.563L381.188 139.456Z" fill="white"/>
<path d="M351.251 230.865L381.294 213.499C382.573 212.753 383.638 213.393 383.638 214.778V224.472C383.638 225.964 382.573 227.775 381.294 228.521L351.251 245.886C349.972 246.632 348.907 245.993 348.907 244.608V234.913C348.907 233.421 349.972 231.61 351.251 230.865Z" fill="#2492EB"/>
<path d="M336.549 209.238L395.89 174.933C397.381 174.081 398.66 174.72 398.66 176.531V180.153C398.66 181.964 397.381 184.095 395.89 184.947L336.549 219.252C335.057 220.104 333.779 219.465 333.779 217.654V214.032C333.779 212.221 335.057 210.09 336.549 209.238Z" fill="#FAFAFA"/>
<path d="M343.474 184.521C344.326 184.095 344.859 183.989 345.391 184.308C345.817 184.628 346.031 185.374 346.031 186.545C346.031 187.717 345.817 188.676 345.391 189.528C344.965 190.381 344.326 191.02 343.474 191.553L341.876 192.511V195.921C341.876 196.027 341.876 196.134 341.876 196.24C341.876 196.347 341.769 196.453 341.663 196.453L340.81 196.879C340.81 196.879 340.704 196.879 340.597 196.879C340.597 196.879 340.597 196.773 340.597 196.666V186.652C340.597 186.545 340.597 186.439 340.597 186.332C340.597 186.226 340.704 186.119 340.81 186.119L343.474 184.521ZM341.876 190.487L343.474 189.635C343.9 189.422 344.113 189.102 344.432 188.783C344.646 188.463 344.752 187.93 344.752 187.398C344.752 186.865 344.646 186.439 344.432 186.439C344.219 186.439 343.9 186.439 343.474 186.652L341.876 187.504V190.594V190.487Z" fill="#FAFAFA"/>
<path d="M350.505 180.473H350.718C350.718 180.473 350.718 180.686 350.825 180.792L353.275 189.102C353.275 189.209 353.275 189.315 353.275 189.422C353.275 189.528 353.168 189.635 353.062 189.635L352.316 190.061C352.21 190.061 352.103 190.061 351.997 190.061C351.997 190.061 351.997 189.955 351.89 189.848L351.464 188.357L348.268 190.168L347.842 192.085C347.842 192.085 347.842 192.298 347.735 192.405C347.735 192.511 347.629 192.618 347.416 192.725L346.67 193.151C346.67 193.151 346.563 193.151 346.457 193.151C346.457 193.151 346.457 193.044 346.457 192.938C346.457 192.831 346.457 192.938 346.457 192.831L348.907 181.645C348.907 181.432 348.907 181.325 349.014 181.219C349.014 181.112 349.12 181.006 349.227 180.899L350.292 180.26L350.505 180.473ZM351.038 186.972L349.972 183.243L348.907 188.25L351.144 186.972H351.038Z" fill="#FAFAFA"/>
<path d="M357.11 176.424C357.537 176.211 357.963 175.998 358.282 175.998C358.602 175.998 358.921 175.998 359.135 176.211C359.348 176.318 359.561 176.531 359.667 176.851C359.774 177.064 359.88 177.383 359.88 177.703C359.88 177.809 359.88 177.916 359.88 178.022C359.88 178.129 359.774 178.236 359.667 178.236L358.921 178.662C358.815 178.662 358.708 178.662 358.708 178.662C358.708 178.662 358.602 178.662 358.602 178.449C358.602 178.236 358.389 178.129 358.176 178.022C357.963 178.022 357.643 178.022 357.217 178.236C357.004 178.236 356.897 178.449 356.684 178.555C356.578 178.662 356.365 178.875 356.258 179.088C356.152 179.301 356.045 179.407 355.938 179.621C355.938 179.834 355.938 180.047 355.938 180.153C355.938 180.26 355.938 180.579 355.938 180.686C355.938 180.792 356.152 180.899 356.258 180.899C356.365 180.899 356.578 180.899 356.897 180.899C357.11 180.899 357.43 180.792 357.856 180.686C358.282 180.686 358.602 180.579 358.921 180.579C359.241 180.579 359.454 180.579 359.667 180.792C359.88 180.899 359.987 181.112 360.093 181.432C360.093 181.751 360.2 182.071 360.2 182.497C360.2 182.923 360.2 183.456 359.987 183.882C359.88 184.308 359.667 184.841 359.454 185.267C359.241 185.693 358.921 186.119 358.495 186.439C358.176 186.758 357.75 187.078 357.323 187.398C356.897 187.611 356.578 187.717 356.258 187.824C355.938 187.824 355.619 187.824 355.299 187.824C355.086 187.717 354.873 187.504 354.66 187.291C354.553 186.972 354.447 186.652 354.34 186.226C354.34 186.119 354.34 186.013 354.34 185.906C354.34 185.8 354.447 185.693 354.553 185.693L355.299 185.267C355.406 185.267 355.512 185.267 355.512 185.267C355.512 185.267 355.619 185.267 355.619 185.48C355.619 185.587 355.619 185.693 355.832 185.8C355.832 185.8 355.938 186.013 356.152 186.013C356.258 186.013 356.365 186.013 356.578 186.013C356.791 186.013 357.004 185.906 357.217 185.693C357.43 185.587 357.643 185.48 357.75 185.267C357.963 185.16 358.069 184.947 358.282 184.734C358.389 184.521 358.495 184.308 358.602 184.095C358.602 183.882 358.708 183.669 358.708 183.456C358.708 183.243 358.708 183.03 358.602 183.03C358.602 183.03 358.389 182.923 358.176 182.923C357.963 182.923 357.75 182.923 357.43 183.03C357.11 183.03 356.791 183.136 356.471 183.243C356.152 183.243 355.832 183.243 355.619 183.243C355.406 183.243 355.193 183.136 354.98 183.03C354.767 182.923 354.66 182.71 354.66 182.39C354.66 182.071 354.553 181.751 354.553 181.219C354.553 180.686 354.553 180.26 354.767 179.834C354.873 179.407 355.086 178.875 355.299 178.555C355.512 178.129 355.832 177.809 356.152 177.383C356.471 177.064 356.791 176.744 357.217 176.531L357.11 176.424Z" fill="#FAFAFA"/>
<path d="M364.035 172.483C364.461 172.269 364.887 172.056 365.207 172.056C365.527 172.056 365.846 172.056 366.059 172.269C366.272 172.376 366.486 172.589 366.592 172.909C366.699 173.228 366.805 173.441 366.805 173.761C366.805 173.868 366.805 173.974 366.805 174.081C366.805 174.187 366.699 174.294 366.592 174.294L365.846 174.72C365.74 174.72 365.633 174.72 365.633 174.72C365.633 174.72 365.527 174.72 365.527 174.507C365.527 174.294 365.314 174.187 365.101 174.081C364.888 174.081 364.568 174.081 364.142 174.294C363.929 174.294 363.822 174.507 363.609 174.613C363.503 174.72 363.289 174.933 363.183 175.146C363.076 175.359 362.97 175.466 362.863 175.679C362.863 175.892 362.863 176.105 362.863 176.211C362.863 176.318 362.863 176.637 362.863 176.744C362.863 176.851 363.076 176.957 363.183 176.957C363.289 176.957 363.503 176.957 363.822 176.957C364.035 176.957 364.355 176.851 364.781 176.744C365.207 176.744 365.527 176.637 365.846 176.637C366.166 176.637 366.379 176.637 366.592 176.851C366.805 176.957 366.912 177.17 367.018 177.49C367.018 177.809 367.125 178.129 367.125 178.555C367.125 178.981 367.125 179.514 366.912 179.94C366.805 180.366 366.592 180.899 366.379 181.325C366.166 181.751 365.846 182.177 365.42 182.497C365.101 182.817 364.674 183.136 364.248 183.456C363.822 183.669 363.503 183.775 363.183 183.882C362.863 183.882 362.544 183.882 362.224 183.882C362.011 183.775 361.798 183.562 361.585 183.349C361.372 183.03 361.372 182.71 361.265 182.284C361.265 182.177 361.265 182.071 361.265 181.964C361.265 181.858 361.372 181.751 361.478 181.751L362.224 181.325C362.331 181.325 362.437 181.325 362.437 181.325C362.437 181.325 362.544 181.325 362.544 181.538C362.544 181.645 362.544 181.751 362.757 181.858C362.757 181.858 362.863 182.071 363.076 182.071C363.183 182.071 363.289 182.071 363.503 182.071C363.716 182.071 363.929 181.964 364.142 181.751C364.355 181.645 364.568 181.538 364.674 181.325C364.887 181.219 364.994 181.005 365.207 180.792C365.314 180.579 365.42 180.366 365.527 180.153C365.527 179.94 365.633 179.727 365.633 179.514C365.633 179.301 365.633 179.088 365.527 179.088C365.527 179.088 365.314 178.981 365.101 178.981C364.888 178.981 364.674 178.981 364.355 179.088C364.035 179.088 363.716 179.194 363.396 179.301C363.076 179.301 362.757 179.301 362.544 179.301C362.331 179.301 362.118 179.194 361.904 179.088C361.691 178.981 361.585 178.768 361.585 178.449C361.585 178.129 361.478 177.809 361.478 177.277C361.478 176.744 361.478 176.318 361.691 175.892C361.798 175.466 362.011 174.933 362.224 174.613C362.437 174.187 362.757 173.868 363.076 173.441C363.396 173.015 363.716 172.802 364.142 172.589L364.035 172.483Z" fill="#FAFAFA"/>
<path d="M371.812 173.761L370.96 178.875C370.96 179.088 370.96 179.194 370.854 179.301C370.854 179.408 370.747 179.514 370.64 179.621L369.788 180.047H369.575C369.575 180.047 369.575 179.834 369.469 179.727L368.19 170.778C368.19 170.778 368.19 170.778 368.19 170.672C368.19 170.565 368.19 170.458 368.19 170.352C368.19 170.245 368.297 170.139 368.403 170.139L369.149 169.713C369.149 169.713 369.256 169.713 369.362 169.713C369.362 169.713 369.362 169.819 369.469 169.926L370.321 175.998L371.067 171.417C371.067 171.417 371.067 171.204 371.067 171.098C371.067 170.991 371.173 170.885 371.28 170.778L372.132 170.352C372.239 170.352 372.345 170.352 372.345 170.352C372.345 170.352 372.345 170.458 372.345 170.565L373.091 174.294L373.943 167.262C373.943 167.049 373.943 166.943 374.05 166.836C374.05 166.836 374.156 166.623 374.263 166.623L375.008 166.197C375.008 166.197 375.115 166.197 375.222 166.197C375.222 166.197 375.222 166.304 375.222 166.41C375.222 166.517 375.222 166.41 375.222 166.517L373.943 176.957C373.943 177.17 373.943 177.277 373.837 177.383C373.837 177.49 373.73 177.596 373.624 177.703L372.771 178.129H372.558C372.558 178.129 372.558 177.916 372.452 177.809L371.599 173.655L371.812 173.761Z" fill="#FAFAFA"/>
<path d="M376.82 169.287C376.82 168.647 376.82 168.115 377.033 167.582C377.246 167.049 377.352 166.41 377.565 165.984C377.778 165.558 378.098 165.025 378.418 164.599C378.737 164.173 379.163 163.853 379.696 163.534C380.229 163.214 380.655 163.107 380.975 163.107C381.294 163.107 381.614 163.214 381.827 163.534C382.04 163.747 382.253 164.066 382.359 164.492C382.466 164.919 382.573 165.451 382.573 165.984C382.573 166.197 382.573 166.41 382.573 166.623C382.573 166.836 382.573 167.049 382.573 167.369C382.573 167.688 382.573 167.902 382.573 168.115C382.573 168.328 382.573 168.541 382.573 168.754C382.573 169.393 382.573 169.926 382.359 170.458C382.253 170.991 382.04 171.63 381.827 172.056C381.614 172.483 381.294 173.015 380.868 173.441C380.548 173.868 380.122 174.187 379.59 174.507C379.057 174.826 378.631 174.933 378.311 174.933C377.992 174.933 377.672 174.826 377.459 174.613C377.246 174.4 377.033 174.081 376.926 173.655C376.82 173.228 376.713 172.696 376.713 172.163C376.713 171.95 376.713 171.737 376.713 171.524C376.713 171.311 376.713 171.098 376.713 170.778C376.713 170.458 376.713 170.245 376.713 170.032C376.713 169.819 376.713 169.606 376.713 169.393L376.82 169.287ZM381.401 166.73C381.401 165.984 381.188 165.558 380.975 165.238C380.655 165.025 380.335 165.025 379.803 165.238C379.376 165.558 378.95 165.877 378.631 166.517C378.311 167.049 378.205 167.795 378.205 168.541C378.205 168.967 378.205 169.393 378.205 169.819C378.205 170.245 378.205 170.778 378.205 171.098C378.205 171.843 378.418 172.27 378.631 172.589C378.95 172.802 379.27 172.802 379.803 172.589C380.229 172.27 380.655 171.95 380.975 171.311C381.294 170.778 381.401 170.032 381.401 169.287C381.401 168.86 381.401 168.434 381.401 168.008C381.401 167.582 381.401 167.049 381.401 166.73Z" fill="#FAFAFA"/>
<path d="M387.367 159.166C388.219 158.633 388.858 158.633 389.284 158.952C389.711 159.272 389.924 160.018 389.924 161.083C389.924 162.149 389.817 162.575 389.604 163.214C389.391 163.853 389.071 164.492 388.645 164.919L390.03 167.902C390.03 167.902 390.03 167.902 390.03 168.008C390.03 168.008 390.03 168.221 390.03 168.328C390.03 168.328 390.03 168.434 389.924 168.541L389.071 169.073C388.965 169.073 388.858 169.073 388.752 169.073C388.752 169.073 388.645 168.967 388.645 168.86L387.367 165.984L385.982 166.73V170.352C385.982 170.458 385.982 170.565 385.982 170.672C385.982 170.778 385.875 170.885 385.769 170.885L384.916 171.311C384.916 171.311 384.81 171.311 384.703 171.311C384.703 171.311 384.703 171.204 384.703 171.098V161.083C384.703 160.977 384.703 160.87 384.703 160.764C384.703 160.657 384.81 160.551 384.916 160.551L387.473 159.059L387.367 159.166ZM385.875 164.919L387.367 164.066C387.793 163.853 388.006 163.534 388.326 163.214C388.539 162.894 388.645 162.468 388.645 161.829C388.645 161.19 388.539 160.977 388.326 160.87C388.112 160.87 387.793 160.87 387.367 161.083L385.875 161.936V164.919Z" fill="#FAFAFA"/>
<path d="M394.505 155.011C395.037 154.691 395.463 154.584 395.783 154.584C396.103 154.584 396.422 154.584 396.742 154.904C396.955 155.117 397.168 155.437 397.275 155.969C397.381 156.396 397.488 156.928 397.488 157.567C397.488 158.313 397.488 159.059 397.488 159.805C397.488 160.444 397.488 161.083 397.275 161.722C397.168 162.362 396.955 162.894 396.742 163.427C396.529 163.96 396.209 164.386 395.89 164.812C395.57 165.238 395.144 165.558 394.611 165.877L392.054 167.369C392.054 167.369 391.948 167.369 391.841 167.369C391.841 167.369 391.841 167.262 391.841 167.156V157.141C391.841 157.035 391.841 156.928 391.841 156.822C391.841 156.715 391.948 156.609 392.054 156.609L394.505 155.224V155.011ZM396.103 158.313C396.103 157.994 396.103 157.674 395.996 157.461C395.996 157.248 395.783 157.035 395.677 156.928C395.57 156.822 395.357 156.715 395.144 156.715C394.931 156.715 394.718 156.715 394.398 156.928L393.013 157.674V164.599L394.398 163.747C394.718 163.64 394.931 163.427 395.144 163.107C395.357 162.894 395.463 162.575 395.677 162.362C395.783 162.042 395.89 161.722 395.996 161.403C395.996 161.083 396.103 160.764 396.103 160.444C396.103 159.698 396.103 158.952 396.103 158.207V158.313Z" fill="#FAFAFA"/>
<path d="M248.23 0.426219C250.041 0.852365 251.852 1.49158 253.45 2.45041C255.048 3.3027 256.54 4.47461 257.605 5.75304C258.777 7.03148 259.523 8.52299 260.056 10.2276C260.588 11.9322 260.588 13.7433 260.162 15.6609C259.843 17.259 259.31 18.5374 258.458 19.6028C257.712 20.6682 256.859 21.5204 255.901 22.3727C254.942 23.225 253.876 23.7577 252.811 24.3969C251.746 24.9296 250.68 25.4623 249.722 25.995C248.763 26.5277 247.91 27.0603 247.058 27.6996C246.312 28.3388 245.78 29.0845 245.46 29.9368C245.247 30.363 245.034 30.6826 244.714 30.8957C244.395 31.1087 243.969 31.2153 243.542 31.1087L239.068 30.1499C238.642 30.1499 238.322 29.8303 238.003 29.4042C237.789 28.978 237.683 28.5519 237.789 28.1257C238.216 26.6342 238.855 25.3558 239.707 24.2904C240.559 23.225 241.518 22.3727 242.477 21.627C243.542 20.8812 244.501 20.242 245.673 19.7093C246.739 19.1766 247.804 18.644 248.763 18.1113C249.722 17.5786 250.467 17.0459 251.213 16.5132C251.852 15.9805 252.278 15.2348 252.492 14.3825C252.811 12.891 252.492 11.506 251.426 10.2276C250.361 8.94914 248.763 8.09685 246.739 7.6707C243.329 6.92495 240.559 8.09685 238.216 11.0799C237.896 11.506 237.683 11.7191 237.363 11.9322C237.044 12.1452 236.724 12.1452 236.191 11.9322L231.397 10.8668C231.078 10.8668 230.758 10.6537 230.545 10.3341C230.332 10.0145 230.332 9.69489 230.332 9.26875C230.652 7.88377 231.397 6.60534 232.569 5.3269C233.741 4.04846 235.126 2.9831 236.724 2.1308C238.322 1.27851 240.133 0.639292 242.157 0.319683C244.182 7.31647e-05 246.206 7.31647e-05 248.337 0.532756L248.23 0.426219ZM243.116 34.731C243.542 34.731 243.862 35.0506 244.182 35.4767C244.395 35.9029 244.501 36.2225 244.395 36.7552L243.223 41.9755C243.223 42.4016 242.903 42.7212 242.477 43.0408C242.051 43.2539 241.731 43.3604 241.199 43.2539L236.085 42.082C235.659 42.082 235.339 41.7624 235.02 41.3362C234.806 40.9101 234.7 40.5905 234.806 40.0578L235.978 34.8375C235.978 34.4114 236.298 34.0918 236.724 33.7721C237.15 33.5591 237.47 33.4525 238.003 33.5591L243.116 34.731Z" fill="#2492EB"/>
<path d="M253.876 50.3917C255.155 50.1787 256.433 50.1787 257.712 50.3917C258.99 50.4983 260.162 50.9244 261.227 51.4571C262.293 51.9898 263.252 52.7355 263.997 53.6944C264.743 54.6532 265.276 55.8251 265.489 57.1035C265.702 58.1689 265.702 59.2343 265.489 60.0866C265.276 60.9389 264.956 61.7911 264.53 62.5369C264.104 63.2827 263.571 63.9219 263.039 64.5611C262.506 65.2003 261.973 65.8395 261.441 66.3722C260.908 66.9049 260.588 67.5441 260.162 68.1833C259.843 68.8226 259.629 69.3552 259.629 69.9945C259.629 70.3141 259.629 70.6337 259.416 70.8467C259.31 71.0598 258.99 71.2729 258.777 71.2729L255.581 71.8056C255.261 71.8056 254.942 71.8056 254.729 71.5925C254.409 71.3794 254.303 71.1664 254.303 70.8467C254.196 69.7814 254.303 68.8226 254.516 67.8637C254.729 67.0114 255.155 66.1591 255.581 65.4134C256.007 64.6676 256.54 64.0284 257.073 63.3892C257.605 62.75 258.138 62.1108 258.671 61.5781C259.097 61.0454 259.523 60.4062 259.843 59.8735C260.162 59.3408 260.269 58.8081 260.162 58.1689C259.949 57.1035 259.416 56.3578 258.458 55.8251C257.499 55.2924 256.22 55.1859 254.729 55.399C252.385 55.8251 250.893 57.2101 250.148 59.7669C250.148 60.0866 249.935 60.2996 249.828 60.5127C249.722 60.7258 249.508 60.8323 249.082 60.8323L245.673 61.365C245.46 61.365 245.247 61.365 245.034 61.2585C244.821 61.1519 244.714 60.9389 244.608 60.6192C244.501 59.6604 244.608 58.5951 245.034 57.5297C245.46 56.4643 246.099 55.399 246.845 54.4401C247.697 53.4813 248.656 52.629 249.828 51.8833C251 51.1375 252.385 50.7113 253.876 50.3917ZM259.416 73.6167C259.736 73.6167 259.949 73.6167 260.269 73.8298C260.482 74.0428 260.695 74.2559 260.695 74.5755L261.334 78.1978C261.334 78.5174 261.334 78.7304 261.121 79.0501C260.908 79.2631 260.695 79.4762 260.375 79.4762L256.86 80.0089C256.54 80.0089 256.327 80.0089 256.007 79.7958C255.794 79.5827 255.581 79.3697 255.581 79.0501L254.942 75.4278C254.942 75.1082 254.942 74.8951 255.155 74.5755C255.368 74.3625 255.581 74.1494 255.901 74.1494L259.416 73.6167Z" fill="#2492EB"/>
<g opacity="0.2">
<path d="M253.876 50.3917C255.155 50.1787 256.433 50.1787 257.712 50.3917C258.99 50.4983 260.162 50.9244 261.227 51.4571C262.293 51.9898 263.252 52.7355 263.997 53.6944C264.743 54.6532 265.276 55.8251 265.489 57.1035C265.702 58.1689 265.702 59.2343 265.489 60.0866C265.276 60.9389 264.956 61.7911 264.53 62.5369C264.104 63.2827 263.571 63.9219 263.039 64.5611C262.506 65.2003 261.973 65.8395 261.441 66.3722C260.908 66.9049 260.588 67.5441 260.162 68.1833C259.843 68.8226 259.629 69.3552 259.629 69.9945C259.629 70.3141 259.629 70.6337 259.416 70.8467C259.31 71.0598 258.99 71.2729 258.777 71.2729L255.581 71.8056C255.261 71.8056 254.942 71.8056 254.729 71.5925C254.409 71.3794 254.303 71.1664 254.303 70.8467C254.196 69.7814 254.303 68.8226 254.516 67.8637C254.729 67.0114 255.155 66.1591 255.581 65.4134C256.007 64.6676 256.54 64.0284 257.073 63.3892C257.605 62.75 258.138 62.1108 258.671 61.5781C259.097 61.0454 259.523 60.4062 259.843 59.8735C260.162 59.3408 260.269 58.8081 260.162 58.1689C259.949 57.1035 259.416 56.3578 258.458 55.8251C257.499 55.2924 256.22 55.1859 254.729 55.399C252.385 55.8251 250.893 57.2101 250.148 59.7669C250.148 60.0866 249.935 60.2996 249.828 60.5127C249.722 60.7258 249.508 60.8323 249.082 60.8323L245.673 61.365C245.46 61.365 245.247 61.365 245.034 61.2585C244.821 61.1519 244.714 60.9389 244.608 60.6192C244.501 59.6604 244.608 58.5951 245.034 57.5297C245.46 56.4643 246.099 55.399 246.845 54.4401C247.697 53.4813 248.656 52.629 249.828 51.8833C251 51.1375 252.385 50.7113 253.876 50.3917ZM259.416 73.6167C259.736 73.6167 259.949 73.6167 260.269 73.8298C260.482 74.0428 260.695 74.2559 260.695 74.5755L261.334 78.1978C261.334 78.5174 261.334 78.7304 261.121 79.0501C260.908 79.2631 260.695 79.4762 260.375 79.4762L256.86 80.0089C256.54 80.0089 256.327 80.0089 256.007 79.7958C255.794 79.5827 255.581 79.3697 255.581 79.0501L254.942 75.4278C254.942 75.1082 254.942 74.8951 255.155 74.5755C255.368 74.3625 255.581 74.1494 255.901 74.1494L259.416 73.6167Z" fill="black"/>
</g>
<path d="M284.026 56.1448C284.346 56.3578 284.452 56.6774 284.559 56.997C284.559 57.3167 284.559 57.7428 284.346 57.9559L281.789 61.5781C281.576 61.8977 281.256 62.0043 280.937 62.1108C280.617 62.1108 280.191 62.1108 279.978 61.8977L276.462 59.4474C276.143 59.2343 276.036 58.9147 275.93 58.5951C275.93 58.2755 275.93 57.8493 276.143 57.6363L278.699 54.014C278.913 53.6944 279.232 53.5879 279.552 53.4813C279.871 53.4813 280.298 53.4813 280.511 53.6944L284.026 56.1448ZM298.835 31.961C300.113 32.8133 301.179 33.8786 302.138 35.1571C303.096 36.329 303.842 37.6074 304.268 38.9924C304.694 40.3773 304.907 41.7623 304.694 43.1473C304.588 44.5323 303.949 45.9172 303.096 47.3022C302.351 48.3676 301.498 49.2199 300.539 49.7526C299.687 50.2852 298.728 50.7114 297.663 51.031C296.704 51.2441 295.745 51.4571 294.68 51.5637C293.721 51.5637 292.762 51.7768 291.803 51.7768C290.951 51.7768 290.099 51.9898 289.247 52.2029C288.501 52.416 287.862 52.8421 287.329 53.3748C287.116 53.5879 286.796 53.8009 286.37 53.9075C286.05 53.9075 285.731 53.9075 285.411 53.6944L282.322 51.4571C282.002 51.2441 281.789 50.9245 281.789 50.6049C281.789 50.1787 281.789 49.8591 282.002 49.646C282.854 48.5807 283.707 47.8349 284.666 47.3022C285.624 46.7695 286.583 46.4499 287.649 46.1303C288.607 45.9172 289.673 45.7042 290.632 45.7042C291.59 45.7042 292.549 45.5976 293.402 45.4911C294.254 45.4911 295.106 45.278 295.745 45.065C296.385 44.8519 297.024 44.4257 297.343 43.8931C298.089 42.8277 298.196 41.7623 297.876 40.4839C297.45 39.2054 296.598 38.0335 295.106 37.0747C292.762 35.4767 290.312 35.3701 287.542 36.9682C287.222 37.1813 286.903 37.2878 286.69 37.2878C286.477 37.2878 286.157 37.2878 285.731 36.9682L282.428 34.6244C282.215 34.4113 282.002 34.1982 282.002 33.9852C282.002 33.6655 282.002 33.4525 282.215 33.1329C282.961 32.174 283.92 31.4283 285.198 30.8956C286.477 30.2564 287.862 29.9368 289.353 29.8302C290.845 29.7237 292.443 29.8302 294.041 30.1498C295.639 30.576 297.237 31.2152 298.622 32.2806L298.835 31.961Z" fill="#2492EB"/>
<g opacity="0.6">
<path d="M284.026 56.1448C284.346 56.3578 284.452 56.6774 284.559 56.997C284.559 57.3167 284.559 57.7428 284.346 57.9559L281.789 61.5781C281.576 61.8977 281.256 62.0043 280.937 62.1108C280.617 62.1108 280.191 62.1108 279.978 61.8977L276.462 59.4474C276.143 59.2343 276.036 58.9147 275.93 58.5951C275.93 58.2755 275.93 57.8493 276.143 57.6363L278.699 54.014C278.913 53.6944 279.232 53.5879 279.552 53.4813C279.871 53.4813 280.298 53.4813 280.511 53.6944L284.026 56.1448ZM298.835 31.961C300.113 32.8133 301.179 33.8786 302.138 35.1571C303.096 36.329 303.842 37.6074 304.268 38.9924C304.694 40.3773 304.907 41.7623 304.694 43.1473C304.588 44.5323 303.949 45.9172 303.096 47.3022C302.351 48.3676 301.498 49.2199 300.539 49.7526C299.687 50.2852 298.728 50.7114 297.663 51.031C296.704 51.2441 295.745 51.4571 294.68 51.5637C293.721 51.5637 292.762 51.7768 291.803 51.7768C290.951 51.7768 290.099 51.9898 289.247 52.2029C288.501 52.416 287.862 52.8421 287.329 53.3748C287.116 53.5879 286.796 53.8009 286.37 53.9075C286.05 53.9075 285.731 53.9075 285.411 53.6944L282.322 51.4571C282.002 51.2441 281.789 50.9245 281.789 50.6049C281.789 50.1787 281.789 49.8591 282.002 49.646C282.854 48.5807 283.707 47.8349 284.666 47.3022C285.624 46.7695 286.583 46.4499 287.649 46.1303C288.607 45.9172 289.673 45.7042 290.632 45.7042C291.59 45.7042 292.549 45.5976 293.402 45.4911C294.254 45.4911 295.106 45.278 295.745 45.065C296.385 44.8519 297.024 44.4257 297.343 43.8931C298.089 42.8277 298.196 41.7623 297.876 40.4839C297.45 39.2054 296.598 38.0335 295.106 37.0747C292.762 35.4767 290.312 35.3701 287.542 36.9682C287.222 37.1813 286.903 37.2878 286.69 37.2878C286.477 37.2878 286.157 37.2878 285.731 36.9682L282.428 34.6244C282.215 34.4113 282.002 34.1982 282.002 33.9852C282.002 33.6655 282.002 33.4525 282.215 33.1329C282.961 32.174 283.92 31.4283 285.198 30.8956C286.477 30.2564 287.862 29.9368 289.353 29.8302C290.845 29.7237 292.443 29.8302 294.041 30.1498C295.639 30.576 297.237 31.2152 298.622 32.2806L298.835 31.961Z" fill="white"/>
</g>
<path d="M204.657 150.43H166.836V58.7017C166.836 42.082 180.26 28.6584 196.879 28.6584H200.395C217.015 28.6584 230.438 42.082 230.438 58.7017V124.754C230.438 138.924 218.933 150.43 204.763 150.43H204.657Z" fill="#263238"/>
<path d="M163.107 371.173C162.788 373.517 162.149 376.18 162.042 382.679C161.935 389.71 160.657 392.161 160.444 397.914C160.231 404.519 161.403 406.969 164.066 410.592C166.73 414.32 173.655 417.623 176.638 411.444C179.621 405.158 179.194 401.11 178.236 394.718C177.277 388.112 177.17 384.384 176.531 379.376C175.998 374.902 175.466 371.493 175.466 371.493L163.107 371.28V371.173Z" fill="#263238"/>
<path d="M183.03 324.83L160.018 324.404C160.337 339.745 162.788 356.791 163.214 371.28C163.214 373.943 163.214 392.374 164.173 397.914C165.664 406.33 175.679 405.158 176.211 400.151C176.744 395.144 175.572 373.73 175.572 371.493C175.572 362.224 179.834 346.67 182.071 330.05C182.177 329.198 182.923 325.682 183.03 324.83Z" fill="#FFA8A7"/>
<path d="M212.54 359.241C212.54 359.241 211.581 358.708 211.475 359.774C211.262 360.946 210.942 363.289 210.41 365.207C209.77 367.871 209.238 372.132 209.557 374.369C209.983 376.5 214.991 379.27 218.187 380.229C222.981 381.72 226.284 384.064 228.84 386.621C232.037 389.604 238.961 392.48 243.756 392.48C249.295 392.48 253.237 390.669 255.048 387.58C256.966 384.49 253.344 384.171 246.952 380.122C245.46 379.163 243.862 378.098 241.944 376.926C231.823 370.321 228.095 366.805 225.218 360.2L212.327 359.454L212.54 359.241Z" fill="#263238"/>
<path d="M225.538 355.193C225.325 350.398 228.627 310.128 228.627 310.128L206.787 320.142C211.475 348.055 212.434 354.66 212.54 359.241C212.54 359.241 212.434 359.774 212.434 360.413C212.434 365.846 218.613 368.723 223.407 372.345C225.325 373.73 230.758 377.991 236.298 380.761C239.814 382.466 246.845 382.679 247.697 380.442C241.838 375.967 233.421 369.362 228.84 364.248C226.603 361.798 225.751 359.987 225.644 355.193H225.538Z" fill="#FFA8A7"/>
<path d="M169.393 174.826C160.977 193.257 160.977 207.533 162.362 230.971C163.64 252.492 165.664 271.562 165.664 271.562C165.345 275.397 160.018 282.854 159.379 299.794C158.739 315.561 160.444 335.697 160.444 335.697C160.444 335.697 172.376 342.302 181.219 335.697C181.219 335.697 189.741 295 192.192 275.184C194.323 257.925 198.158 235.872 198.158 235.872L206.148 275.077C206.148 275.077 203.059 284.772 202.419 292.123C201.247 303.736 207.853 326.641 207.853 326.641C207.853 326.641 220.211 330.37 227.775 323.658C227.775 323.658 230.545 286.477 231.61 272.414C232.995 253.663 230.012 202.739 227.775 175.892L169.5 174.826H169.393Z" fill="#455A64"/>
<path d="M198.158 235.872L201.461 206.361C201.461 206.361 216.269 204.337 223.087 198.051C223.087 198.051 218.08 207.32 205.615 209.131L200.821 236.617L206.255 275.184L198.264 235.978L198.158 235.872Z" fill="#263238"/>
<path d="M258.351 167.582C259.31 158.526 259.203 152.454 259.203 151.282C258.884 146.594 258.031 145.848 251.533 137.539C242.69 126.352 235.126 116.231 227.136 106.217C221.383 99.0789 215.417 97.907 209.557 98.2266C205.509 98.4396 213.499 118.149 217.441 129.761L240.453 154.478C241.199 155.437 241.518 156.609 241.412 157.887L240.027 178.875L246.952 188.037C246.952 188.037 257.392 179.088 258.564 167.475L258.351 167.582Z" fill="#FFA8A7"/>
<path d="M187.398 98.9723C182.923 99.2919 174.933 100.038 174.933 100.038C170.245 102.595 169.073 104.725 168.221 111.011C167.902 113.674 170.032 120.706 171.843 130.614L175.359 149.151L174.933 158.313C173.122 163.96 168.967 170.884 165.345 181.112C183.136 191.02 198.051 191.446 211.581 189.635C221.916 188.356 227.349 185.8 229.16 183.349C228.734 173.228 228.095 166.943 227.882 156.395C227.882 151.921 228.095 147.446 228.201 142.333C235.126 136.686 235.233 127.204 231.397 121.132C222.661 106.963 214.138 98.0135 208.492 98.4396L187.291 99.0788L187.398 98.9723Z" fill="#2492EB"/>
<path opacity="0.6" d="M187.398 98.9723C182.923 99.2919 174.933 100.038 174.933 100.038C170.245 102.595 169.073 104.725 168.221 111.011C167.902 113.674 170.032 120.706 171.843 130.614L175.359 149.151L174.933 158.313C173.122 163.96 168.967 170.884 165.345 181.112C183.136 191.02 198.051 191.446 211.581 189.635C221.916 188.356 227.349 185.8 229.16 183.349C228.734 173.228 228.095 166.943 227.882 156.395C227.882 151.921 228.095 147.446 228.201 142.333C235.126 136.686 235.233 127.204 231.397 121.132C222.661 106.963 214.138 98.0135 208.492 98.4396L187.291 99.0788L187.398 98.9723Z" fill="white"/>
<path d="M225.538 69.8879C225.218 85.2291 220.211 89.0645 217.654 90.1298C215.204 91.1952 210.303 90.556 205.615 89.8102V99.0789C205.615 99.0789 211.049 104.725 210.623 108.987C210.197 113.248 202.1 113.674 196.027 109.519C191.553 106.536 188.463 103.021 187.078 101.423C186.545 100.783 186.332 100.038 186.332 99.292V77.5585C186.332 77.5585 183.775 80.3285 179.194 77.1324C174.613 74.0428 174.294 68.2898 177.064 64.9872C179.088 62.6434 184.095 62.5369 186.439 66.1591C187.824 68.8225 187.93 71.4859 189.528 70.4206C193.577 67.5441 191.446 60.8323 196.347 57.6362C197.838 56.8904 199.436 56.1447 201.354 55.5055C210.09 52.5224 217.654 49.9656 219.465 43.9995C222.874 46.0237 225.964 51.8832 225.538 70.101V69.8879Z" fill="#FFA8A7"/>
<path d="M208.279 83.6312C209.397 83.6312 210.303 82.7249 210.303 81.607C210.303 80.489 209.397 79.5828 208.279 79.5828C207.161 79.5828 206.255 80.489 206.255 81.607C206.255 82.7249 207.161 83.6312 208.279 83.6312Z" fill="#B16668"/>
<path d="M207 67.5441C207 68.716 206.148 69.7813 204.976 69.8879C203.804 69.8879 202.846 69.0356 202.739 67.7571C202.739 66.5852 203.591 65.5199 204.763 65.4133C205.935 65.4133 206.894 66.2656 207 67.5441Z" fill="#263238"/>
<path d="M223.087 67.7573C223.087 68.8226 222.342 69.7814 221.276 69.888C220.104 69.888 219.359 69.1422 219.252 67.9703C219.252 66.905 219.998 65.9461 221.063 65.8396C222.129 65.8396 223.087 66.6919 223.087 67.7573Z" fill="#263238"/>
<path d="M204.23 72.9775C200.395 72.9775 197.306 69.8879 197.306 66.0526C197.306 62.2173 202.206 61.365 204.23 61.365C206.255 61.365 211.155 61.365 211.155 66.0526C211.155 70.7402 208.066 72.9775 204.23 72.9775ZM204.23 62.4304C200.076 62.4304 198.371 63.4957 198.371 66.0526C198.371 68.6095 201.034 71.9121 204.23 71.9121C207.427 71.9121 210.09 69.2487 210.09 66.0526C210.09 62.8565 208.492 62.4304 204.23 62.4304Z" fill="#455A64"/>
<path d="M221.809 72.9775C217.974 72.9775 214.884 69.8879 214.884 66.0526C214.884 62.2173 219.785 61.365 221.809 61.365C223.833 61.365 228.734 61.365 228.734 66.0526C228.734 70.7402 225.644 72.9775 221.809 72.9775ZM221.809 62.4304C217.654 62.4304 215.949 63.4957 215.949 66.0526C215.949 68.6095 218.613 71.9121 221.809 71.9121C225.005 71.9121 227.669 69.2487 227.669 66.0526C227.669 62.8565 226.07 62.4304 221.809 62.4304Z" fill="#455A64"/>
<path d="M212.221 63.8152L212.54 76.8126L219.359 74.6819L212.221 63.8152Z" fill="#F28F8F"/>
<path d="M205.615 89.8102C200.715 89.171 190.487 86.1879 188.889 82.2461C188.889 82.2461 189.422 84.803 192.405 87.3598C195.494 89.9167 205.509 92.8997 205.509 92.8997V89.8102H205.615Z" fill="#F28F8F"/>
<path d="M205.935 57.5296L201.461 60.2996C200.715 59.0212 201.141 57.3166 202.419 56.5708C203.698 55.8251 205.296 56.2512 206.042 57.5296H205.935Z" fill="#263238"/>
<path d="M224.259 60.6191L219.252 58.9146C219.678 57.5296 221.17 56.7838 222.555 57.21C223.94 57.7427 224.685 59.2342 224.259 60.6191Z" fill="#263238"/>
<path d="M210.623 66.6917C210.303 66.6917 210.09 66.4786 210.09 66.159C210.09 65.3067 211.795 64.6675 213.393 64.6675C214.991 64.6675 215.949 65.2002 215.949 66.159C215.949 67.1178 215.736 66.6917 215.417 66.6917C215.097 66.6917 214.884 66.4786 214.884 66.159C214.884 66.159 214.351 65.8394 213.393 65.8394C212.434 65.8394 211.155 66.159 211.155 66.2655C211.155 66.5851 210.942 66.7982 210.623 66.7982V66.6917Z" fill="#455A64"/>
<path d="M197.838 66.159L185.693 65.0936C185.48 64.8805 184.947 64.3479 183.669 63.8152L197.945 65.0936C198.264 65.0936 198.478 65.4132 198.478 65.7328C198.478 66.0525 198.158 66.2655 197.945 66.2655L197.838 66.159Z" fill="#455A64"/>
<path d="M147.873 78.837C151.815 73.5102 154.584 69.4618 158.207 64.9873C160.231 62.4304 161.616 60.5128 163.534 57.8493C164.919 56.0382 165.664 54.4402 167.262 53.9075C168.967 53.2683 170.565 51.9898 171.737 50.8179C172.483 49.9656 173.122 49.0068 173.868 48.1545C176.105 45.065 178.875 42.4016 181.964 40.0578C185.16 37.6074 188.783 35.7963 191.979 33.4525C193.896 32.0675 196.027 29.8302 193.683 27.6995C192.938 27.0603 192.085 26.6342 191.126 26.5276C185.374 25.2492 180.26 27.2734 174.613 28.6583C172.163 29.2976 169.713 30.0433 167.369 31.1087C166.197 31.6414 165.132 32.1741 164.173 32.9198C162.681 34.1982 161.829 35.9028 160.87 37.6074C158.313 42.0819 153.093 46.0238 149.364 49.5395C144.996 53.5879 141.054 57.4232 136.154 61.8977C131.679 65.9461 127.311 69.6749 123.156 74.1494C119.747 77.8782 121.025 80.7547 121.452 81.7135C124.222 87.36 127.311 89.4907 131.04 93.0064C137.432 99.079 159.592 116.658 166.836 122.517C168.434 123.795 169.606 125.394 170.458 127.205L171.843 130.401C180.153 131.892 185.8 119.427 178.875 104.299C177.703 101.849 175.998 99.7182 173.761 98.2267C165.025 91.8345 147.979 78.7305 147.979 78.7305L147.873 78.837Z" fill="#FFA8A7"/>
<path d="M147.873 78.8372C147.873 78.8372 144.144 83.8444 137.645 85.8686C137.645 85.8686 142.972 87.2535 150.216 80.6483L147.766 78.8372H147.873Z" fill="#F28F8F"/>
<path d="M256.22 156.502L254.835 155.33C254.516 155.117 254.09 155.011 253.45 155.224L238.642 159.272C237.257 159.698 235.765 161.083 235.339 162.362L224.685 193.044C224.472 193.79 224.579 194.323 224.899 194.642L226.284 195.814C226.603 196.027 227.029 196.134 227.668 195.921L242.477 191.872C243.862 191.553 245.354 190.061 245.78 188.783C247.91 182.71 254.303 164.066 256.433 158.1C256.646 157.355 256.54 156.822 256.114 156.502H256.22Z" fill="#455A64"/>
<path d="M226.07 194.216L236.724 163.534C237.15 162.149 238.642 160.764 240.027 160.444L254.835 156.396C256.22 155.97 256.966 156.822 256.433 158.1C254.303 164.173 247.91 182.817 245.78 188.783C245.354 190.168 243.862 191.553 242.477 191.872L227.668 195.921C226.284 196.24 225.538 195.495 226.07 194.216Z" fill="#2492EB"/>
<path d="M238.429 161.19C237.683 161.829 237.044 162.681 236.724 163.427L226.07 194.11C225.857 194.749 225.857 195.388 226.177 195.601L224.899 194.429C224.579 194.11 224.472 193.577 224.685 192.831L235.339 162.149C235.552 161.403 236.191 160.657 236.937 160.018L238.429 161.083V161.19Z" fill="#37474F"/>
<path d="M252.065 170.459C251 173.548 247.271 175.679 241.199 177.17C235.126 178.662 231.717 185.054 232.676 187.078C233.635 189.102 243.542 190.914 247.484 190.274C251.426 189.742 255.368 183.989 256.646 182.284C257.818 180.473 259.203 168.221 257.925 166.517C256.646 164.812 253.983 165.132 253.983 165.132L252.065 170.565V170.459Z" fill="#F28F8F"/>
</g>
<defs>
<clipPath id="clip0_1405_24943">
<rect width="502" height="468.654" fill="white"/>
</clipPath>
</defs>
</svg>
