<svg width="495" height="460" viewBox="0 0 495 460" fill="none" xmlns="http://www.w3.org/2000/svg">
<g clip-path="url(#clip0_1405_24169)">
<path d="M72.4917 425.432C169.152 471.523 325.862 471.523 422.508 425.432C519.169 379.34 519.169 304.604 422.508 258.512C325.848 212.421 169.138 212.421 72.4917 258.512C-24.1686 304.604 -24.1686 379.34 72.4917 425.432Z" fill="white"/>
<path d="M399.392 386.863C411.974 392.87 432.383 392.87 444.98 386.863C457.562 380.856 457.562 371.13 444.98 365.123C432.397 359.116 411.988 359.116 399.392 365.123C386.809 371.13 386.809 380.856 399.392 386.863Z" fill="#F4F4F4"/>
<path d="M65.0854 378.204L76.4754 371.621C76.4754 371.621 85.8735 364.702 90.5305 351.874C94.0513 342.161 93.5743 334.779 91.0355 331.074C87.9215 326.512 79.884 327.312 79.5754 336.926C78.9441 355.846 73.4315 368.94 65.0714 378.218L65.0854 378.204Z" fill="#2492EB"/>
<path opacity="0.2" d="M65.0854 378.204L76.4754 371.621C76.4754 371.621 85.8735 364.702 90.5305 351.874C94.0513 342.161 93.5743 334.779 91.0355 331.074C87.9215 326.512 79.884 327.312 79.5754 336.926C78.9441 355.846 73.4315 368.94 65.0714 378.218L65.0854 378.204Z" fill="#222222"/>
<path d="M65.0854 378.905C64.861 378.905 64.6506 378.793 64.5103 378.596C64.2859 378.274 64.3701 377.839 64.6927 377.614C91.0635 359.354 85.9577 333.923 85.9016 333.67C85.8174 333.291 86.0558 332.912 86.4346 332.842C86.8133 332.758 87.192 332.996 87.2622 333.375C87.3183 333.642 92.6486 359.958 65.4922 378.765C65.366 378.849 65.2257 378.891 65.0995 378.891L65.0854 378.905Z" fill="white"/>
<path d="M42.2915 391.368C42.2915 391.368 38.3219 388.14 39.2897 383.761C40.2436 379.382 42.8105 376.239 38.406 370.597C34.0015 364.954 32.8653 357.432 38.0413 353.347C42.039 350.19 48.281 354.667 50.5394 346.302C52.1806 340.211 51.6195 326.723 59.3905 322.232C67.1614 317.74 71.9727 324.505 70.7804 333.642C69.7144 341.825 68.2135 349.712 69.3637 351.846C71.6361 356.042 75.5215 355.481 75.3392 363.172C75.1709 370.33 68.4098 376.253 68.4098 376.253L42.2775 391.34L42.2915 391.368Z" fill="#2492EB"/>
<path d="M55.3226 384.533C54.9719 384.533 54.6633 384.267 54.6213 383.916C52.6154 367.284 57.3986 338.568 61.3542 330.035C61.5226 329.684 61.9294 329.53 62.28 329.698C62.6307 329.867 62.785 330.274 62.6167 330.625C58.7312 339.018 54.0882 367.846 56.0099 383.747C56.052 384.126 55.7855 384.477 55.3928 384.533C55.3647 384.533 55.3366 384.533 55.3086 384.533H55.3226Z" fill="white"/>
<path d="M54.9439 371.593C54.8457 371.593 54.7335 371.565 54.6353 371.523C49.7679 369.137 46.682 360.688 46.5557 360.323C46.4295 359.958 46.6118 359.551 46.9765 359.425C47.3412 359.298 47.748 359.481 47.8743 359.846C47.9023 359.93 50.8901 368.126 55.2525 370.26C55.6032 370.428 55.7434 370.849 55.5751 371.2C55.4489 371.453 55.2104 371.593 54.9439 371.593Z" fill="white"/>
<path d="M54.8738 377.193C54.5932 377.193 54.3267 377.025 54.2285 376.758C54.0882 376.393 54.2566 375.986 54.6213 375.846C62.8131 372.561 67.9189 362.793 67.975 362.695C68.1574 362.344 68.5782 362.218 68.9148 362.4C69.2655 362.583 69.3917 363.004 69.2234 363.34C69.013 363.761 63.823 373.67 55.1543 377.151C55.0701 377.179 54.986 377.207 54.8878 377.207L54.8738 377.193Z" fill="white"/>
<path d="M341.208 301.698C341.208 301.698 335.078 291.776 334.489 280.969C333.9 270.161 336.27 265.684 339.524 264.393C342.779 263.102 343.017 267.074 344.7 269.418C346.384 271.762 349.778 270.428 351.027 263.116C352.275 255.804 356.89 243.425 366.414 241.067C376.934 238.456 371.296 250.807 368.644 255.621C366.007 260.435 363.945 267.004 365.685 268.786C367.424 270.569 370.131 267.27 372.712 270.33C375.84 274.021 366.12 287.298 360.537 290.526L341.194 301.698H341.208Z" fill="#2492EB"/>
<path d="M349.61 297.516C349.61 297.516 349.582 297.516 349.568 297.516C349.175 297.502 348.88 297.165 348.908 296.772C350.451 268.028 364.464 248.127 364.619 247.93C364.843 247.607 365.278 247.537 365.601 247.762C365.909 247.986 365.993 248.421 365.769 248.744C365.629 248.941 351.854 268.534 350.325 296.842C350.311 297.221 350.003 297.502 349.624 297.502L349.61 297.516Z" fill="white"/>
<path d="M350.409 289.235C350.297 289.235 350.171 289.207 350.073 289.151C346.145 286.975 343.971 280.519 343.873 280.253C343.746 279.888 343.943 279.495 344.322 279.368C344.686 279.242 345.093 279.453 345.205 279.817C345.219 279.874 347.295 286.021 350.746 287.93C351.083 288.112 351.209 288.547 351.027 288.884C350.9 289.123 350.662 289.249 350.409 289.249V289.235Z" fill="white"/>
<path d="M351.097 284.982C350.788 284.982 350.493 284.772 350.423 284.449C350.325 284.07 350.55 283.691 350.928 283.593C361.056 281.024 364.563 275.719 364.591 275.663C364.801 275.34 365.236 275.242 365.558 275.453C365.881 275.663 365.979 276.098 365.769 276.421C365.615 276.66 361.982 282.246 351.265 284.954C351.209 284.968 351.153 284.982 351.097 284.982Z" fill="white"/>
<path d="M188.622 279.874C188.622 279.874 175.17 276.589 174.468 251.396C173.711 224.196 177.765 192.463 161.9 189.881C146.035 187.298 137.128 206.765 137.339 229.375C137.521 249.235 145.516 292.323 188.622 300.772V279.874Z" fill="#2492EB"/>
<path opacity="0.2" d="M188.622 279.874C188.622 279.874 175.17 276.589 174.468 251.396C173.711 224.196 177.765 192.463 161.9 189.881C146.035 187.298 137.128 206.765 137.339 229.375C137.521 249.235 145.516 292.323 188.622 300.772V279.874Z" fill="#222222"/>
<path d="M188.622 298.176C188.622 298.176 188.537 298.176 188.495 298.176C178.789 296.407 170.905 291.074 165.028 282.302C147.606 256.295 153.091 207.734 154.901 199.256C154.985 198.877 155.349 198.639 155.728 198.709C156.107 198.793 156.345 199.158 156.275 199.537C154.494 207.93 149.051 255.902 166.206 281.516C171.859 289.951 179.448 295.088 188.762 296.786C189.141 296.856 189.393 297.221 189.323 297.6C189.267 297.937 188.972 298.176 188.636 298.176H188.622Z" fill="white"/>
<path d="M188.622 362.863C174.721 364.744 152.123 364.716 139.12 354.442C126.103 344.169 128.81 335.327 133.818 331.635C138.826 327.944 143.174 323.72 134.561 315.537C125.949 307.341 112.104 294.176 107.629 274.428C103.155 254.681 105.357 242.33 114.166 238.218C122.708 234.232 124.967 240.562 130.199 253.656C135.431 266.737 147.2 255.523 157.271 259.607C167.343 263.691 166.936 271.776 167.581 278.723C168.212 285.67 171.537 287.593 177.232 287.593C182.927 287.593 188.622 290.877 188.622 297.474V362.863Z" fill="#2492EB"/>
<path d="M188.622 339.944C188.622 339.944 188.495 339.944 188.439 339.916C187.836 339.748 173.458 335.565 152.516 316.323C130.213 295.832 119.693 265.095 119.58 264.786C119.454 264.421 119.651 264.014 120.015 263.902C120.38 263.776 120.787 263.972 120.899 264.337C120.997 264.646 131.419 295.046 153.456 315.285C174.104 334.274 188.664 338.527 188.804 338.569C189.183 338.681 189.393 339.06 189.295 339.439C189.211 339.748 188.93 339.944 188.622 339.944Z" fill="white"/>
<path d="M158.337 321.221C158.057 321.221 157.79 321.053 157.678 320.772C153.175 309.193 152.151 284.449 152.109 283.41C152.095 283.017 152.39 282.695 152.782 282.681C153.147 282.681 153.498 282.961 153.512 283.354C153.512 283.607 154.564 308.912 158.982 320.267C159.123 320.632 158.94 321.039 158.59 321.179C158.505 321.207 158.421 321.221 158.337 321.221Z" fill="white"/>
<path d="M158.211 337.867C156.037 337.867 154.522 337.698 154.339 337.67C153.961 337.628 153.68 337.277 153.722 336.884C153.764 336.506 154.115 336.211 154.508 336.267C154.634 336.267 167.693 337.755 173.683 331.635C173.949 331.355 174.398 331.355 174.679 331.635C174.959 331.902 174.959 332.351 174.679 332.632C170.288 337.109 162.77 337.867 158.211 337.867Z" fill="white"/>
<path d="M148.111 72.0984L146.611 63.3545L138.812 68.4914C138.026 66.9896 137.03 65.7966 135.838 64.8844L139.569 54.7791L132.612 53.2212L127.478 63.0177C125.78 63.2844 123.985 63.8598 122.133 64.758L119.903 57.3756L111.571 63.93L112.118 72.6317C110.435 74.5124 108.892 76.5615 107.517 78.7229L100.644 78.3861L95.8187 89.2072L101.724 91.7335C101.107 94.0633 100.7 96.3651 100.56 98.5966L93.0553 105.502L94.5562 114.246L102.355 109.109C103.141 110.611 104.137 111.804 105.329 112.716L101.598 122.821L108.555 124.379L115.905 117.207C117.603 116.941 117.196 113.741 119.047 112.842L121.264 120.225L129.596 113.67L129.385 110.246C131.069 108.365 137.437 104.225 138.812 102.077L140.537 99.2282L145.362 88.4072L143.118 84.337L140.621 79.0317L148.125 72.1265L148.111 72.0984ZM122.68 100.94C116.298 105.965 114.348 107.06 113.184 100.351C112.02 93.6423 115.765 83.3966 122.147 78.3721C128.53 73.3475 130.984 72.9686 132.149 79.6914C133.313 86.4142 129.063 95.9159 122.68 100.94Z" fill="#A7A7A7"/>
<path d="M132.626 53.2212L141.715 58.4703L136.581 68.2528L127.478 63.0177L132.626 53.2212Z" fill="#A7A7A7"/>
<path d="M155.7 68.5895L147.901 73.7403L138.812 68.4912L146.611 63.3403L155.7 68.5895Z" fill="#A7A7A7"/>
<path d="M154.452 93.628L148.546 91.1017L139.457 85.8525L145.362 88.3789L154.452 93.628Z" fill="#A7A7A7"/>
<path d="M101.612 122.793L110.701 128.042L114.433 117.937L105.343 112.688L101.612 122.793Z" fill="#A7A7A7"/>
<path d="M130.367 125.446L121.264 120.196L119.047 112.814L128.137 118.063L130.367 125.446Z" fill="#A7A7A7"/>
<path d="M157.215 77.3474L155.714 68.6035L147.915 73.7404C147.13 72.2386 146.134 71.0457 144.941 70.1334L148.673 60.0281L141.715 58.4702L136.581 68.2667C134.884 68.5334 133.088 69.1088 131.237 70.0071L129.021 62.6246L120.689 69.179L121.236 77.8807C119.552 79.7614 118.009 81.8106 116.635 83.972L109.762 83.6351L104.936 94.4562L110.842 96.9825C110.224 99.3123 109.818 101.614 109.677 103.846L102.173 110.751L103.674 119.495L111.473 114.358C112.258 115.86 113.254 117.053 114.447 117.965L110.715 128.07L117.673 129.628L122.807 119.832C124.504 119.565 126.299 118.99 128.151 118.091L130.367 125.474L138.699 118.919L138.152 110.218C139.835 108.337 141.378 106.288 142.753 104.126L149.626 104.463L154.452 93.6421L148.546 91.1158C149.177 88.786 149.57 86.4842 149.711 84.2527L157.215 77.3474ZM131.784 106.19C125.402 111.214 119.286 109.853 118.122 103.13C116.957 96.4071 121.208 86.9053 127.59 81.8807C133.972 76.8562 140.088 78.2176 141.252 84.9404C142.402 91.6492 138.166 101.165 131.784 106.19Z" fill="#D3D3D3"/>
<path d="M129.007 62.6246L119.917 57.3755L111.585 63.9158L120.675 69.165L129.007 62.6246Z" fill="#A7A7A7"/>
<path d="M111.585 63.916L112.132 72.6178L121.222 77.8669L120.675 69.1651L111.585 63.916Z" fill="#A7A7A7"/>
<path d="M116.621 83.958L107.531 78.7089L100.644 78.3721L109.748 83.6212L116.621 83.958Z" fill="#A7A7A7"/>
<path d="M100.644 78.3721L95.8187 89.1931L104.922 94.4422L109.748 83.6212L100.644 78.3721Z" fill="#A7A7A7"/>
<path d="M109.663 103.817L100.56 98.5684L93.0694 105.474L102.159 110.723L109.663 103.817Z" fill="#A7A7A7"/>
<path d="M103.66 119.467L94.5703 114.217L93.0694 105.474L102.159 110.723L103.66 119.467Z" fill="#A7A7A7"/>
<path d="M141.715 58.4703L132.626 53.2212L139.569 54.7791L148.673 60.0282L141.715 58.4703Z" fill="#A7A7A7"/>
<path d="M107.363 32.407V19.3403L96.9687 24.0281C96.3375 21.614 95.3837 19.5509 94.1633 17.8386L100.714 4.61754L92.7186 0L84.5548 12.2807C82.4648 12.0702 80.1924 12.2807 77.7938 12.9404L76.6576 1.58596L65.3518 8.12632L64.2156 20.8C61.817 22.9053 59.5446 25.3193 57.4546 27.9439L49.2909 25.0947L41.2955 38.9614L47.8461 44.6035C46.6257 47.7333 45.6579 50.9053 45.0407 54.0351L34.6466 61.3614V74.4281L45.0407 69.7403C45.6719 72.1544 46.6257 74.2175 47.8461 75.9298L41.2955 89.1368L49.2909 93.7544L57.4546 81.4737C59.5446 81.6842 61.817 81.4737 64.2156 80.814L65.3518 92.1684L76.6576 85.6281L77.7938 72.9544C81.1603 71.8316 84.7652 69.221 86.8693 66.5965L92.7186 68.6596L100.714 54.793L95.8045 50.5544C97.0249 47.4246 97.1651 42.4421 96.9687 39.7053L107.363 32.3789V32.407ZM70.9907 65.0386C62.3079 70.0491 56.9216 66.4982 56.9216 56.4632C56.9216 46.4281 64.0894 34.1474 72.7721 29.1368C81.4548 24.1263 86.701 27.7754 86.701 37.7965C86.701 47.8175 79.6594 60.014 70.9907 65.0246V65.0386Z" fill="#A7A7A7"/>
<path d="M101.808 5.24912L92.7047 0L84.5409 12.2807L93.6445 17.5298L101.808 5.24912Z" fill="#A7A7A7"/>
<path d="M116.452 24.5895L107.363 19.3403L96.9689 24.0281L106.058 29.2772L116.452 24.5895Z" fill="#A7A7A7"/>
<path d="M74.4274 97.4176L65.3379 92.1685L64.1877 80.8281L73.2912 86.0773L74.4274 97.4176Z" fill="#A7A7A7"/>
<path d="M41.2675 89.1507L50.3711 94.3999L56.9077 81.1788L47.8182 75.9297L41.2675 89.1507Z" fill="#A7A7A7"/>
<path d="M116.452 37.656V24.5894L106.058 29.2771C105.427 26.8631 104.473 24.7999 103.253 23.0876L109.804 9.86657L101.808 5.24902L93.6445 17.5297C91.5544 17.3192 89.2821 17.5297 86.8834 18.1894L85.7472 6.83499L74.4415 13.3753L73.3053 26.049C70.9066 28.1543 68.6343 30.5683 66.5442 33.1929L58.3805 30.3438L50.3851 44.2104L56.9357 49.8525C55.7154 52.9824 54.7615 56.1543 54.1303 59.2841L43.7363 66.6104V79.6771L54.1303 74.9894C54.7615 77.4034 55.7154 79.4666 56.9357 81.1788L50.3851 94.3859L58.3805 99.0034L66.5442 86.7227C68.6343 86.9332 70.9066 86.7227 73.3053 86.063L74.4415 97.4174L85.7472 90.8771L86.8834 78.2034C89.2821 76.0981 91.5544 73.6841 93.6445 71.0595L101.808 73.9087L109.804 60.042L103.253 54.3999C104.473 51.2701 105.441 48.0981 106.058 44.9683L116.452 37.642V37.656ZM80.0803 70.2876C71.3976 75.2981 64.37 71.242 64.37 61.2069C64.37 51.1718 71.4116 38.9894 80.0803 33.9788C88.7631 28.9683 95.7906 33.0245 95.7906 43.0595C95.7906 53.0946 88.749 65.2771 80.0803 70.2876Z" fill="#D3D3D3"/>
<path d="M57.4267 27.9439L66.5302 33.193L58.3665 30.3439L49.2629 25.0947L57.4267 27.9439Z" fill="#A7A7A7"/>
<path d="M49.2691 25.1003L41.2716 38.9717L50.3721 44.2246L58.3697 30.3533L49.2691 25.1003Z" fill="#A7A7A7"/>
<path d="M41.2675 38.9614L50.3711 44.2105L56.9077 49.8527L47.8182 44.6035L41.2675 38.9614Z" fill="#A7A7A7"/>
<path d="M45.0127 54.0352L54.1023 59.2843L43.7082 66.6106L34.6187 61.3615L45.0127 54.0352Z" fill="#A7A7A7"/>
<path d="M34.6187 61.3613L43.7082 66.6104V79.6771L34.6187 74.428V61.3613Z" fill="#A7A7A7"/>
<path d="M85.7473 6.83506L76.6437 1.58594L65.3379 8.12629L74.4274 13.3754L85.7473 6.83506Z" fill="#A7A7A7"/>
<path d="M202.438 381.656L334.32 305.46C335.667 304.688 335.667 303.425 334.32 302.653L322.117 295.593C320.77 294.821 318.596 294.821 317.263 295.593L185.339 371.79C183.993 372.562 183.993 373.825 185.339 374.597L197.571 381.67C198.917 382.442 201.092 382.442 202.424 381.67L202.438 381.656Z" fill="#A7A7A7"/>
<path d="M330.687 11.3263L211.78 80.014C208.428 81.9509 205.706 86.6667 205.706 90.5403V372.744C205.706 376.617 208.428 378.189 211.78 376.253L330.687 307.565C334.04 305.628 336.761 300.912 336.761 297.039V14.8351C336.761 10.9614 334.04 9.38946 330.687 11.3263Z" fill="#7A7A7A"/>
<path d="M211.78 80.0142L330.687 11.3265C333.689 9.60018 336.172 10.6668 336.663 13.6844C336.2 10.0633 333.717 6.0493 330.687 4.30895L325.736 1.4458C322.383 -0.491047 316.941 -0.491047 313.588 1.4458L194.681 70.1335C192.998 71.1019 191.483 72.7721 190.389 74.6669L207.488 84.5476C208.582 82.6388 210.111 80.9826 211.78 80.0142Z" fill="#7A7A7A"/>
<path d="M188.622 362.863C188.622 366.737 191.343 371.453 194.695 373.39L199.647 376.253C202.677 378.007 207.404 378.162 210.756 376.744C207.895 377.825 205.706 376.211 205.706 372.744V90.5407C205.706 88.6038 206.38 86.4565 207.488 84.5477L190.389 74.667C189.295 76.5758 188.608 78.7231 188.608 80.66V362.863H188.622Z" fill="#4E4E4E"/>
<path d="M215.048 117.628L327.419 52.7161C329.439 51.5512 331.066 52.4915 331.066 54.8214V263.635C331.066 265.965 329.439 268.786 327.419 269.951L215.048 334.863C213.043 336.028 211.401 335.088 211.401 332.758V123.944C211.401 121.614 213.029 118.793 215.048 117.628Z" fill="white"/>
<path d="M271.241 56.3791C270.062 57.0668 269.109 58.7229 269.109 60.0843C269.109 61.4457 270.062 62.0071 271.241 61.3194C272.419 60.6317 273.373 58.9756 273.373 57.6142C273.373 56.2528 272.419 55.6914 271.241 56.3791Z" fill="#7A7A7A"/>
<path d="M271.241 312.435C266.584 315.13 262.811 321.67 262.811 327.06C262.811 332.449 266.584 334.625 271.241 331.93C275.898 329.235 279.671 322.695 279.671 317.306C279.671 311.916 275.898 309.741 271.241 312.435Z" fill="#7A7A7A"/>
<path d="M251.056 78.1056C248.699 79.467 246.778 82.7793 246.778 85.5161C246.778 88.253 248.685 89.3477 251.056 87.9863C253.412 86.6249 255.334 83.3126 255.334 80.5758C255.334 77.8389 253.426 76.7442 251.056 78.1056Z" fill="#7A7A7A"/>
<path d="M261.506 77.1791C261.506 78.9897 262.867 79.6914 264.55 78.723L292.66 62.4844C294.343 61.516 295.704 59.2563 295.704 57.4317C295.704 55.6072 294.343 54.9195 292.66 55.8879L264.55 72.1265C262.867 73.0949 261.506 75.3546 261.506 77.1791Z" fill="#7A7A7A"/>
<path d="M198.076 126.667C199.969 127.762 201.498 130.414 201.498 132.59C201.498 134.765 199.969 135.649 198.076 134.569C196.182 133.474 194.653 130.821 194.653 128.646C194.653 126.47 196.182 125.586 198.076 126.667Z" fill="#7A7A7A"/>
<path d="M198.076 153.011C199.969 154.105 201.498 156.758 201.498 158.934C201.498 161.109 199.969 161.993 198.076 160.912C196.182 159.818 194.653 157.165 194.653 154.99C194.653 152.814 196.182 151.93 198.076 153.011Z" fill="#7A7A7A"/>
<path d="M197.024 127.186C198.917 128.281 200.446 130.933 200.446 133.109C200.446 135.284 198.917 136.168 197.024 135.088C195.13 133.993 193.601 131.34 193.601 129.165C193.601 126.989 195.13 126.105 197.024 127.186Z" fill="#7A7A7A"/>
<path d="M197.024 153.544C198.917 154.639 200.446 157.291 200.446 159.467C200.446 161.642 198.917 162.526 197.024 161.446C195.13 160.351 193.601 157.698 193.601 155.523C193.601 153.347 195.13 152.463 197.024 153.544Z" fill="#7A7A7A"/>
<path d="M353.86 61.4175C353.86 59.0877 352.233 58.1474 350.213 59.3123L336.761 67.0877L237.842 124.225C235.822 125.389 234.195 128.211 234.195 130.54V339.368C234.195 341.698 235.822 342.639 237.842 341.474L336.789 284.309L350.199 276.561C352.205 275.396 353.846 272.575 353.846 270.246V61.4175H353.86Z" fill="white" stroke="#2492EB" stroke-miterlimit="10"/>
<path d="M236.215 342.667C235.752 342.667 235.303 342.555 234.911 342.33C233.999 341.797 233.494 340.744 233.494 339.355V130.541C233.494 127.958 235.247 124.912 237.492 123.621L336.41 66.4844L337.112 67.7054L238.193 124.842C236.412 125.867 234.897 128.491 234.897 130.555V339.369C234.897 340.225 235.163 340.856 235.612 341.123C236.075 341.39 236.748 341.291 237.492 340.87L336.438 283.705L337.14 284.926L238.193 342.091C237.506 342.484 236.832 342.681 236.215 342.681V342.667Z" fill="#2492EB" stroke="#2492EB" stroke-miterlimit="10"/>
<path d="M337.154 284.912L336.452 283.691L349.862 275.944C351.644 274.905 353.159 272.295 353.159 270.232V61.4175C353.159 60.5614 352.892 59.9298 352.443 59.6631C351.994 59.3965 351.307 59.4947 350.564 59.9158L337.112 67.6912L336.41 66.4702L349.862 58.6947C351.055 58.007 352.219 57.9088 353.145 58.4421C354.056 58.9754 354.561 60.0281 354.561 61.4035V270.246C354.561 272.828 352.808 275.874 350.564 277.165L337.154 284.912Z" fill="#2492EB" stroke="#2492EB" stroke-miterlimit="10"/>
<path d="M294.035 109.951C306.617 102.681 316.829 108.576 316.829 123.116C316.829 137.656 306.631 155.341 294.035 162.611C281.452 169.881 271.241 163.986 271.241 149.446C271.241 134.906 281.438 117.221 294.035 109.951Z" fill="#2492EB"/>
<path d="M294.035 121.39C298.117 119.032 301.427 120.941 301.427 125.657C301.427 130.372 298.117 136.113 294.035 138.471C289.953 140.828 286.642 138.92 286.642 134.204C286.642 129.488 289.953 123.748 294.035 121.39Z" fill="#2492EB"/>
<path d="M308.44 146.554C308.44 138.807 302.998 135.663 296.293 139.537L292.099 141.965C285.394 145.839 279.952 155.27 279.952 163.018V165.109C283.823 166.4 288.718 165.698 294.035 162.625C299.505 159.467 304.513 154.344 308.44 148.365V146.568V146.554Z" fill="#2492EB"/>
<path opacity="0.7" d="M294.035 121.389C298.117 119.032 301.427 120.94 301.427 125.656C301.427 130.372 298.117 136.112 294.035 138.47C289.953 140.828 286.642 138.919 286.642 134.203C286.642 129.488 289.953 123.747 294.035 121.389Z" fill="white"/>
<path opacity="0.7" d="M308.44 146.554C308.44 138.807 302.998 135.663 296.293 139.537L292.099 141.965C285.394 145.839 279.952 155.27 279.952 163.018V165.109C283.823 166.4 288.718 165.698 294.035 162.625C299.505 159.467 304.513 154.344 308.44 148.365V146.568V146.554Z" fill="white"/>
<path d="M249.934 194.681L279.264 177.741C280.611 176.969 281.691 177.6 281.691 179.144V180.113C281.691 181.67 280.597 183.551 279.264 184.323L249.934 201.263C248.587 202.035 247.507 201.404 247.507 199.86V198.891C247.507 197.348 248.601 195.453 249.934 194.681Z" fill="#2492EB"/>
<path opacity="0.1" d="M249.934 194.681L279.264 177.741C280.611 176.969 281.691 177.6 281.691 179.144V180.113C281.691 181.67 280.597 183.551 279.264 184.323L249.934 201.263C248.587 202.035 247.507 201.404 247.507 199.86V198.891C247.507 197.348 248.601 195.453 249.934 194.681Z" fill="#222222"/>
<path d="M248.713 215.144L337.448 163.888C338.122 163.495 338.669 163.818 338.669 164.59V174.948C338.669 175.72 338.122 176.66 337.448 177.053L248.713 228.309C248.04 228.702 247.493 228.379 247.493 227.607V217.249C247.493 216.477 248.04 215.537 248.713 215.144Z" fill="#2492EB"/>
<path opacity="0.2" d="M248.713 215.144L337.448 163.888C338.122 163.495 338.669 163.818 338.669 164.59V174.948C338.669 175.72 338.122 176.66 337.448 177.053L248.713 228.309C248.04 228.702 247.493 228.379 247.493 227.607V217.249C247.493 216.477 248.04 215.537 248.713 215.144Z" fill="white"/>
<path d="M249.934 240.772L279.264 223.832C280.611 223.06 281.691 223.692 281.691 225.235V226.204C281.691 227.748 280.597 229.642 279.264 230.414L249.934 247.355C248.587 248.127 247.507 247.495 247.507 245.951V244.983C247.507 243.439 248.601 241.544 249.934 240.772Z" fill="#2492EB"/>
<path opacity="0.1" d="M249.934 240.772L279.264 223.832C280.611 223.06 281.691 223.692 281.691 225.235V226.204C281.691 227.748 280.597 229.642 279.264 230.414L249.934 247.355C248.587 248.127 247.507 247.495 247.507 245.951V244.983C247.507 243.439 248.601 241.544 249.934 240.772Z" fill="#222222"/>
<path d="M248.713 261.221L337.448 209.965C338.122 209.572 338.669 209.895 338.669 210.667V221.025C338.669 221.797 338.122 222.737 337.448 223.13L248.713 274.386C248.04 274.779 247.493 274.456 247.493 273.684V263.327C247.493 262.555 248.04 261.614 248.713 261.221Z" fill="#2492EB"/>
<path opacity="0.2" d="M248.713 261.221L337.448 209.965C338.122 209.572 338.669 209.895 338.669 210.667V221.025C338.669 221.797 338.122 222.737 337.448 223.13L248.713 274.386C248.04 274.779 247.493 274.456 247.493 273.684V263.327C247.493 262.555 248.04 261.614 248.713 261.221Z" fill="white"/>
<path d="M284.118 267.102L319.143 246.863C320.49 246.091 321.57 246.723 321.57 248.267V259.116C321.57 260.66 320.476 262.554 319.143 263.326L284.118 283.565C282.771 284.337 281.691 283.705 281.691 282.161V271.312C281.691 269.768 282.785 267.874 284.118 267.102Z" fill="#2492EB"/>
<path opacity="0.1" d="M284.118 267.102L319.143 246.863C320.49 246.091 321.57 246.723 321.57 248.267V259.116C321.57 260.66 320.476 262.554 319.143 263.326L284.118 283.565C282.771 284.337 281.691 283.705 281.691 282.161V271.312C281.691 269.768 282.785 267.874 284.118 267.102Z" fill="#222222"/>
<path d="M367.158 221.375C367.158 221.375 349.918 197.586 348.88 194.765C348.081 192.631 348.936 189.459 349.133 187.986C349.329 186.512 349.61 183.228 349.862 182.315C350.297 180.715 348.221 181.052 347.071 182.498C345.879 183.986 345.5 186.877 344.911 187.354C344.322 187.831 339.721 181.137 337.308 178.035C334.909 174.933 333.409 173.066 331.95 174.217C330.898 175.045 331.683 176.856 333.423 179.48C335.162 182.119 335.933 183.34 336.2 183.901C336.466 184.463 335.036 184.519 334.264 185.698C333.661 186.624 334.222 188.126 333.423 188.842C332.623 189.558 331.88 190.849 332.749 192.308C333.871 194.161 336.102 196.8 338.683 198.596C341.264 200.379 342.302 201.01 343.817 203.438C345.332 205.866 359.064 230.666 359.99 232.154C360.916 233.642 362.697 236.673 365.404 236.758C368.111 236.842 390.274 217.754 391.41 216.8C395.057 213.754 396.208 213.305 396.839 216.056C397.035 216.912 397.161 217.894 397.302 219.003C397.737 222.484 400.107 234.919 400.107 234.919C400.107 234.919 411.315 240.351 420.544 237.67C429.774 234.989 432.874 231.13 432.874 231.13L428.259 223.607C429.522 220.505 435.315 207.93 437.139 199.13L408.243 194.456C407.654 194.33 406.7 194.091 405.493 193.768C403.908 193.347 399.925 191.944 396.839 194.624C386.894 203.284 367.158 221.347 367.158 221.347" fill="#FFA8A7"/>
<path d="M424.444 367.256L419.268 374.456C419.268 374.456 421.667 375.859 426.787 376.056C431.415 376.238 432.692 374.708 432.86 374.344C433.646 372.659 432.425 369.628 432.089 367.031L424.444 367.256Z" fill="#7A7A7A"/>
<path d="M419.549 370.989C419.549 370.989 413.278 370.582 408.93 370.049C404.596 369.501 401.159 371.621 402.183 373.403C403.207 375.186 405.592 376.673 409.309 377.922C412.493 378.989 416.322 379.775 419.647 380.772C423.055 381.796 425.244 382.961 427.165 382.301C429.325 381.558 430.237 380.701 430.055 379.129C429.872 377.558 428.315 372.505 428.315 372.505L419.549 370.989Z" fill="#7A7A7A"/>
<path d="M432.86 360.014C432.86 360.014 432.075 366.554 432.019 367.958C431.962 369.361 425.636 369.811 424.444 367.242L424.248 359.242L432.874 360L432.86 360.014Z" fill="#F28F8F"/>
<path d="M426.492 364.042L428.75 373.965C428.75 373.965 428.961 375.172 423.799 375.944C418.637 376.716 410.529 373.235 409.155 372.533C407.78 371.831 407.612 370.428 412.689 370.709C417.767 370.989 419.563 371.003 419.563 371.003L417.921 366.61L426.506 364.056L426.492 364.042Z" fill="#FFA8A7"/>
<path d="M437.138 199.144L440.715 198.161C440.715 198.161 448.192 221.838 449.019 224.112C449.847 226.386 450.773 228.828 449.174 231.649C447.252 235.003 437.138 248.519 437.138 248.519L430.714 242.231L437.994 228.884L431.556 215.817L437.138 199.144Z" fill="#F28F8F"/>
<path d="M400.36 168.379C400.36 168.379 397.498 163.789 400.514 158.175C404.063 151.565 412.016 148.323 421.47 149.572C425.847 150.147 430.995 153.74 433.828 159.214C436.942 165.235 437.223 177.361 437.994 181.951L400.36 168.379Z" fill="#7A7A7A"/>
<path d="M400.135 170.961C400.135 170.961 397.891 175.242 398.284 175.635C398.676 176.028 400.177 176.337 400.177 176.337L400.149 170.961H400.135Z" fill="#FFA8A7"/>
<path d="M406.966 157.431C404.526 159.031 400.318 161.937 400.135 171.565C399.953 181.445 401.341 184.617 402.8 185.768C403.782 186.54 409.547 186.147 412.016 185.572C414.485 184.996 421.597 181.473 424.163 176.126C427.179 169.838 426.562 160.631 422.087 157.951C415.775 154.189 409.042 156.084 406.966 157.431Z" fill="#FFA8A7"/>
<path d="M432.86 231.158C437.181 237.895 441.305 243.831 442.174 251.396C444.026 267.382 437.952 285.656 436.662 297.474C436.662 297.474 440.743 302.779 440.743 309.024C440.743 313.909 432.86 360.014 432.86 360.014C432.86 360.014 427.137 361.754 424.234 359.256L418.819 274.442L421.667 264.112L432.846 231.158H432.86Z" fill="#2492EB"/>
<path opacity="0.2" d="M432.86 231.158C437.181 237.895 441.305 243.831 442.174 251.396C444.026 267.382 437.952 285.656 436.662 297.474C436.662 297.474 440.743 302.779 440.743 309.024C440.743 313.909 432.86 360.014 432.86 360.014C432.86 360.014 427.137 361.754 424.234 359.256L418.819 274.442L421.667 264.112L432.846 231.158H432.86Z" fill="#222222"/>
<path d="M418.833 274.428L421.681 264.098C421.681 264.098 429.578 262.189 437.124 257.965C437.124 257.965 434.207 263.284 425.819 266.189L421.456 279.467L421.078 309.839L418.819 274.414L418.833 274.428Z" fill="#2492EB"/>
<path opacity="0.3" d="M418.833 274.428L421.681 264.098C421.681 264.098 429.578 262.189 437.124 257.965C437.124 257.965 434.207 263.284 425.819 266.189L421.456 279.467L421.078 309.839L418.819 274.414L418.833 274.428Z" fill="#222222"/>
<path d="M432.86 231.158C435.175 234.933 440.701 241.403 439.537 247.607C438.106 255.13 434.067 260.421 421.681 264.098L410.066 306.175C410.066 306.175 416.112 311.831 417.964 317.221C419.815 322.61 426.492 364.042 426.492 364.042C426.492 364.042 424.43 367.41 417.907 366.596C417.907 366.596 395.17 314.638 393.556 311.284C391.957 307.944 390.905 305.431 391.635 299.986C392.364 294.54 400.107 234.933 400.107 234.933L432.86 231.158Z" fill="#2492EB"/>
<path opacity="0.2" d="M432.86 231.158C435.175 234.933 440.701 241.403 439.537 247.607C438.106 255.13 434.067 260.421 421.681 264.098L410.066 306.175C410.066 306.175 416.112 311.831 417.964 317.221C419.815 322.61 426.492 364.042 426.492 364.042C426.492 364.042 424.43 367.41 417.907 366.596C417.907 366.596 395.17 314.638 393.556 311.284C391.957 307.944 390.905 305.431 391.635 299.986C392.364 294.54 400.107 234.933 400.107 234.933L432.86 231.158Z" fill="#222222"/>
<path d="M437.138 199.144L408.243 194.47C407.654 194.344 406.7 194.105 405.493 193.782C405.493 193.782 404.259 211.916 396.853 216.07C397.021 216.94 397.175 217.909 397.316 219.017C397.751 222.498 400.121 234.933 400.121 234.933C400.121 234.933 411.329 240.365 420.559 237.684C429.788 235.003 432.888 231.144 432.888 231.144L428.273 223.621C429.536 220.519 435.329 207.944 437.152 199.144H437.138Z" fill="#2492EB"/>
<path opacity="0.7" d="M437.138 199.144L408.243 194.47C407.654 194.344 406.7 194.105 405.493 193.782C405.493 193.782 404.259 211.916 396.853 216.07C397.021 216.94 397.175 217.909 397.316 219.017C397.751 222.498 400.121 234.933 400.121 234.933C400.121 234.933 411.329 240.365 420.559 237.684C429.788 235.003 432.888 231.144 432.888 231.144L428.273 223.621C429.536 220.519 435.329 207.944 437.152 199.144H437.138Z" fill="white"/>
<path d="M429.508 220.673C429.396 220.94 420.222 225.866 417.501 226.61C421.793 226.4 425.37 225.389 428.259 223.635L429.522 220.673H429.508Z" fill="#2492EB"/>
<path d="M406.237 157.923C406.237 157.923 404.89 167.045 408.159 172.407C408.159 172.407 409.379 168.772 412.465 169.474C415.565 170.175 415.705 174.203 413.545 176.491C411.385 178.779 408.986 177.951 408.986 177.951C408.986 177.951 408.495 184.547 408.243 190.077C407.99 195.41 406.503 207.663 412.731 212.589C418.945 217.516 434.543 219.186 441.852 208.954C445.919 203.27 440.519 193.221 438.008 181.951C435.694 171.593 434.403 156.238 423.406 153.768C412.423 151.312 406.251 157.923 406.251 157.923H406.237Z" fill="#7A7A7A"/>
<path d="M446.551 33.263L444.236 34.5964C444.419 33.7402 444.559 32.8981 444.559 32.0841C444.559 27.3823 441.262 25.4876 437.195 27.8315C436.016 28.5192 434.908 29.5016 433.926 30.6385V30.6104C433.926 24.2946 429.494 21.7262 424.023 24.8841C418.553 28.042 414.12 35.7332 414.12 42.049C414.12 42.3718 414.134 42.6806 414.162 42.9753C412.998 42.7648 411.623 43.0595 410.136 43.9157C406.069 46.2595 402.772 51.9718 402.772 56.6736C402.772 57.3192 402.842 57.9086 402.955 58.442L401.72 59.1578C398.368 61.0946 395.647 64.8841 395.647 67.6069C395.647 70.3297 398.368 70.9753 401.72 69.0385L446.551 43.1437C449.903 41.2069 452.624 37.4174 452.624 34.6946C452.624 31.9718 449.903 31.3262 446.551 33.263Z" fill="#F4F4F4"/>
</g>
<defs>
<clipPath id="clip0_1405_24169">
<rect width="495" height="460" fill="white"/>
</clipPath>
</defs>
</svg>
