<svg width="73" height="20" viewBox="0 0 73 20" fill="none" xmlns="http://www.w3.org/2000/svg">
<path id="Line" d="M1 19C1 19 3.51994 12.25 5.10584 12.25C6.69173 12.25 7.15765 5.5 9.28896 5.5C11.4203 5.5 14.8977 13.7895 16.0622 13.7895C17.2268 13.7895 21.4797 9.52632 23.0073 9.52632C24.5349 9.52632 28.4972 19 30.3949 19C32.2926 19 38.7656 8.57895 40.3439 8.57895C41.9223 8.57895 43.6279 13.7895 45.5781 13.7895C47.5284 13.7895 50.6878 3.84211 52.5409 3.84211C54.394 3.84211 59.7412 19 61.1465 19C62.5518 19 66.5732 10.4737 66.5732 10.4737L70.1222 6.68421L72 1" stroke="#2492EB" stroke-width="1.56"/>
</svg>
