<svg width="495" height="513" viewBox="0 0 495 513" fill="none" xmlns="http://www.w3.org/2000/svg">
<path d="M457.54 102.147C462.87 99.9156 466.663 94.4123 466.686 87.9378C466.72 79.4515 460.304 72.5492 452.349 72.5145C444.395 72.4799 437.92 79.3243 437.886 87.8106C437.863 94.3429 441.678 99.9041 447.066 102.147C424.902 105.488 425.908 129.571 425.908 129.571L478.317 129.814C478.317 129.814 479.508 105.465 457.54 102.147Z" fill="white"/>
<path d="M147.862 12.1166L113.605 0L79.6829 11.9547C75.3473 13.9665 71.5551 15.1804 71.5551 19.1461V38.928C71.5551 52.6633 75.2085 66.2713 82.7236 78.2954C89.0478 88.4118 98.8521 98.8173 113.928 105.442C127.791 101.002 138.139 89.1865 144.474 79.07C151.989 67.0575 155.643 53.4379 155.643 39.7027V21.9209C155.643 16.2557 152.591 13.4924 147.85 12.1282L147.862 12.1166Z" fill="white"/>
<path d="M124.981 44.0382C124.981 38.8007 120.738 34.5576 115.501 34.5576C110.264 34.5576 106.02 38.8007 106.02 44.0382C106.02 48.3738 108.945 51.9926 112.911 53.114V67.2886H118.091V53.114C122.056 51.981 124.981 48.3622 124.981 44.0382Z" fill="#F4F4F4"/>
<path d="M439.123 195.45L444.961 198.606L442.337 202.999L436.44 199.519L436.544 206.005H431.504L431.561 199.461L425.665 202.999L423.087 198.606L428.925 195.45L423.087 192.235L425.665 187.842L431.561 191.38L431.504 184.836H436.544L436.44 191.38L442.337 187.842L444.961 192.235L439.123 195.45Z" fill="#A7A7A7"/>
<path d="M463.448 195.45L469.287 198.606L466.662 202.999L460.766 199.519L460.87 206.005H455.829L455.887 199.461L449.991 202.999L447.412 198.606L453.251 195.45L447.412 192.235L449.991 187.842L455.887 191.38L455.829 184.836H460.87L460.766 191.38L466.662 187.842L469.287 192.235L463.448 195.45Z" fill="#A7A7A7"/>
<path d="M487.774 195.45L493.613 198.606L490.988 202.999L485.092 199.519L485.196 206.005H480.155L480.213 199.461L474.316 202.999L471.738 198.606L477.577 195.45L471.738 192.235L474.316 187.842L480.213 191.38L480.155 184.836H485.196L485.092 191.38L490.988 187.842L493.613 192.235L487.774 195.45Z" fill="#A7A7A7"/>
<path d="M240.251 472.189V508.1H292.775H350.699V472.189H240.251Z" fill="white"/>
<path d="M235.626 462.154V472.189H354.561V462.154H292.775H235.626Z" fill="#F4F4F4"/>
<path d="M295.087 508.1H350.699V472.189H354.561V462.154H292.775V471.264L295.087 508.1Z" fill="#F4F4F4"/>
<path d="M278.092 477.981H255.697V483.392H278.092V477.981Z" fill="#A7A7A7"/>
<path d="M281.583 490.144H252.818V501.556H281.583V490.144Z" fill="white"/>
<path d="M257.247 426.289V462.2H309.771H367.695V426.289H257.247Z" fill="white"/>
<path d="M252.61 416.242V426.289H371.556V416.242H309.771H252.61Z" fill="#F4F4F4"/>
<path d="M312.084 462.2H367.695V426.289H371.557V416.242H309.771V425.353L312.084 462.2Z" fill="#F4F4F4"/>
<path d="M295.088 432.082H272.693V437.493H295.088V432.082Z" fill="#A7A7A7"/>
<path d="M298.58 444.244H269.814V455.656H298.58V444.244Z" fill="white"/>
<path d="M495 508.377C495 508.539 384.182 508.677 247.512 508.677C110.841 508.677 0 508.539 0 508.377C0 508.215 110.795 508.076 247.512 508.076C384.228 508.076 495 508.215 495 508.377Z" fill="#4E4E4E"/>
<path d="M392.841 21.782H186.304C182.115 21.782 178.72 25.1776 178.72 29.3664V219.382C178.72 223.571 182.115 226.966 186.304 226.966H392.841C397.03 226.966 400.426 223.571 400.426 219.382V29.3664C400.426 25.1776 397.03 21.782 392.841 21.782Z" fill="white"/>
<path d="M392.841 226.967C392.841 226.967 393.026 226.943 393.385 226.92C393.743 226.897 394.286 226.816 394.969 226.62C395.651 226.412 396.483 226.053 397.327 225.417C398.171 224.781 399.038 223.868 399.628 222.608C400.287 221.359 400.414 219.775 400.356 218.053C400.356 216.33 400.356 214.434 400.345 212.387C400.345 208.294 400.333 203.566 400.322 198.247C400.298 176.962 400.264 146.185 400.229 108.159C400.229 89.1402 400.206 68.3062 400.194 45.946C400.194 40.3617 400.171 34.6849 400.16 28.9041C400.021 26.1062 398.09 23.4701 395.408 22.499C394.078 21.944 392.633 22.0365 391.142 22.0365C389.662 22.0365 388.182 22.0365 386.69 22.0365C374.782 22.0365 362.515 22.0365 349.948 22.0481C299.654 22.0481 244.367 22.0596 186.339 22.0712C184.593 22.0712 182.87 22.7071 181.552 23.8517C180.234 24.9847 179.344 26.6033 179.113 28.3145C178.997 29.1585 179.043 30.0718 179.032 30.9736V33.6675C179.032 35.4596 179.032 37.2632 179.032 39.0552C179.032 46.2234 179.032 53.3454 179.032 60.4096C179.032 74.5379 179.032 88.4697 179.032 102.159C179.032 129.525 179.02 155.932 179.009 181.078C179.009 193.657 179.009 205.913 178.997 217.821C178.997 218.561 178.974 219.324 179.032 220.03C179.113 220.735 179.252 221.452 179.529 222.111C180.061 223.44 180.986 224.585 182.154 225.394C183.321 226.203 184.709 226.654 186.119 226.689C187.576 226.689 189.021 226.689 190.466 226.701C196.247 226.701 201.935 226.701 207.52 226.701C229.88 226.712 250.714 226.724 269.733 226.735C307.759 226.782 338.536 226.805 359.821 226.828C370.446 226.851 378.701 226.874 384.309 226.886C387.107 226.897 389.234 226.909 390.679 226.92C392.113 226.92 392.853 226.955 392.853 226.955C392.853 226.955 392.113 226.978 390.679 226.99C389.234 226.99 387.107 227.001 384.309 227.024C378.701 227.036 370.446 227.059 359.821 227.082C338.548 227.105 307.771 227.14 269.733 227.175C250.714 227.175 229.88 227.198 207.52 227.209C201.924 227.209 196.247 227.209 190.466 227.209C189.021 227.209 187.564 227.209 186.108 227.209C184.605 227.175 183.102 226.689 181.853 225.822C180.604 224.955 179.61 223.729 179.043 222.307C178.743 221.602 178.593 220.839 178.512 220.076C178.454 219.301 178.488 218.573 178.477 217.821C178.477 205.913 178.477 193.646 178.465 181.078C178.465 155.932 178.465 129.537 178.442 102.159C178.442 88.4697 178.442 74.5494 178.442 60.4096C178.442 53.3454 178.442 46.2234 178.442 39.0552C178.442 37.2632 178.442 35.4711 178.442 33.6675V30.9736C178.442 30.0718 178.396 29.1816 178.535 28.2335C178.789 26.3721 179.737 24.6147 181.171 23.4008C182.593 22.1637 184.466 21.47 186.35 21.47C244.378 21.47 299.666 21.4815 349.959 21.4931C362.527 21.4931 374.794 21.4931 386.702 21.5047C388.193 21.5047 389.673 21.5047 391.153 21.5047C392.598 21.5047 394.182 21.4122 395.604 22.0134C398.472 23.0539 400.541 25.875 400.68 28.8694C400.68 34.6502 400.68 40.3386 400.692 45.9344C400.68 68.2946 400.668 89.1287 400.657 108.148C400.622 146.174 400.588 176.962 400.564 198.236C400.564 203.554 400.541 208.271 400.541 212.376C400.541 214.422 400.541 216.307 400.53 218.041C400.588 219.752 400.437 221.394 399.767 222.654C399.165 223.937 398.275 224.862 397.42 225.487C396.553 226.123 395.709 226.469 395.026 226.666C394.333 226.851 393.789 226.92 393.419 226.932C393.061 226.943 392.876 226.943 392.876 226.943L392.841 226.967Z" fill="#4E4E4E"/>
<path d="M195.449 36.003C195.449 38.1188 193.738 39.8299 191.611 39.8299C189.483 39.8299 187.784 38.1188 187.784 36.003C187.784 33.8872 189.495 32.1646 191.611 32.1646C193.727 32.1646 195.449 33.8757 195.449 36.003Z" fill="#4E4E4E"/>
<path d="M202.814 39.8298C204.928 39.8298 206.641 38.1165 206.641 36.0029C206.641 33.8894 204.928 32.176 202.814 32.176C200.701 32.176 198.987 33.8894 198.987 36.0029C198.987 38.1165 200.701 39.8298 202.814 39.8298Z" fill="#4E4E4E"/>
<path d="M214.006 39.8298C216.119 39.8298 217.833 38.1165 217.833 36.0029C217.833 33.8894 216.119 32.176 214.006 32.176C211.892 32.176 210.179 33.8894 210.179 36.0029C210.179 38.1165 211.892 39.8298 214.006 39.8298Z" fill="#4E4E4E"/>
<path d="M400.426 46.8826C400.426 47.0445 350.792 47.1832 289.584 47.1832C228.377 47.1832 178.731 47.0445 178.731 46.8826C178.731 46.7208 228.354 46.582 289.584 46.582C350.815 46.582 400.426 46.7208 400.426 46.8826Z" fill="#4E4E4E"/>
<path d="M320.893 124.172C320.893 124.172 320.986 124.045 321.159 123.814C321.206 123.756 321.252 123.687 321.31 123.617C321.356 123.536 321.402 123.455 321.46 123.363C321.564 123.178 321.703 122.958 321.795 122.692C321.853 122.565 321.911 122.426 321.969 122.276C322.015 122.126 322.061 121.964 322.107 121.79C322.165 121.617 322.188 121.444 322.223 121.247C322.246 121.05 322.304 120.866 322.304 120.646C322.396 119.813 322.339 118.842 322.177 117.767C321.841 115.617 320.928 113.085 319.541 110.333C318.142 107.57 316.223 104.61 313.864 101.511C311.505 98.4128 308.673 95.2218 305.401 92.0077C302.14 88.8051 298.441 85.5794 294.302 82.5271C292.232 81.001 290.047 79.5211 287.735 78.1337C285.434 76.7347 283.006 75.4398 280.439 74.3068C277.884 73.1969 275.179 72.2257 272.323 71.7632C270.901 71.5436 269.433 71.4395 267.999 71.6592C267.282 71.7748 266.577 71.9713 265.906 72.2604C265.247 72.5841 264.646 73.0003 264.149 73.5437C263.675 74.0987 263.316 74.7461 263.074 75.4283C262.854 76.122 262.738 76.8503 262.704 77.5787C262.646 79.0355 262.923 80.4807 263.305 81.8681C264.08 84.6429 265.351 87.2211 266.75 89.6375C268.161 92.0539 269.733 94.32 271.375 96.4473C273.017 98.5747 274.739 100.586 276.485 102.471C279.988 106.24 283.607 109.547 287.168 112.426C290.729 115.304 294.232 117.755 297.574 119.744C300.915 121.733 304.083 123.305 306.985 124.38C309.875 125.455 312.5 126.068 314.673 126.161C315.76 126.207 316.731 126.149 317.541 125.964C317.749 125.93 317.934 125.86 318.119 125.814C318.304 125.768 318.489 125.71 318.639 125.64C318.801 125.571 318.963 125.513 319.101 125.455C319.24 125.386 319.379 125.305 319.506 125.236C319.76 125.109 319.957 124.947 320.142 124.82C320.223 124.75 320.315 124.704 320.385 124.646C320.454 124.588 320.512 124.531 320.558 124.473C320.766 124.265 320.882 124.172 320.882 124.172C320.882 124.172 320.778 124.276 320.57 124.484C320.512 124.542 320.454 124.6 320.396 124.658C320.327 124.716 320.246 124.773 320.153 124.843C319.98 124.97 319.783 125.132 319.529 125.259C319.402 125.328 319.275 125.409 319.124 125.479C318.974 125.536 318.824 125.606 318.65 125.675C318.489 125.745 318.315 125.802 318.119 125.849C317.934 125.895 317.737 125.976 317.529 125.999C316.708 126.184 315.737 126.253 314.639 126.207C312.453 126.126 309.817 125.525 306.915 124.45C304.002 123.386 300.834 121.825 297.481 119.837C294.128 117.848 290.625 115.397 287.052 112.518C283.492 109.639 279.861 106.333 276.346 102.563C274.589 100.679 272.866 98.6672 271.225 96.5283C269.571 94.4009 267.999 92.1233 266.577 89.7069C265.178 87.2789 263.895 84.7007 263.108 81.8912C262.727 80.4923 262.449 79.0355 262.507 77.5556C262.53 76.8157 262.657 76.0757 262.877 75.3589C263.131 74.6536 263.49 73.9831 263.987 73.4165C264.496 72.8616 265.12 72.4222 265.791 72.0985C266.473 71.7864 267.201 71.5898 267.93 71.4742C269.398 71.2545 270.878 71.3586 272.311 71.5782C275.179 72.0407 277.896 73.0235 280.462 74.1334C283.029 75.2664 285.469 76.5729 287.769 77.9718C290.082 79.3708 292.267 80.8507 294.348 82.3768C298.499 85.4406 302.198 88.6663 305.459 91.8805C308.719 95.0946 311.552 98.3087 313.91 101.407C316.269 104.506 318.188 107.489 319.575 110.263C320.963 113.027 321.876 115.57 322.2 117.732C322.362 118.808 322.408 119.79 322.315 120.623C322.315 120.831 322.258 121.027 322.223 121.224C322.188 121.42 322.165 121.594 322.107 121.767C322.061 121.941 322.015 122.103 321.969 122.253C321.911 122.403 321.853 122.542 321.795 122.681C321.691 122.947 321.564 123.166 321.448 123.351C321.391 123.444 321.344 123.536 321.298 123.606C321.24 123.675 321.194 123.744 321.148 123.802C320.963 124.033 320.87 124.149 320.87 124.149L320.893 124.172Z" fill="#2492EB"/>
<path d="M331.38 98.8407C331.38 98.8407 331.368 98.6904 331.345 98.4013C331.345 98.3319 331.334 98.251 331.322 98.1585C331.311 98.066 331.287 97.9735 331.264 97.8695C331.218 97.6614 331.172 97.407 331.068 97.1411C331.022 97.0023 330.975 96.8636 330.917 96.7133C330.848 96.5746 330.767 96.4243 330.698 96.2624C330.628 96.1005 330.524 95.9502 330.42 95.7884C330.316 95.6265 330.224 95.4531 330.085 95.2912C329.599 94.6091 328.906 93.927 328.073 93.2333C326.397 91.8459 324.027 90.5625 321.148 89.441C318.269 88.308 314.858 87.3715 311.043 86.6316C307.228 85.8916 302.973 85.3945 298.406 85.1748C293.839 84.9551 288.937 85.0129 283.815 85.4985C281.26 85.7413 278.636 86.0997 275.988 86.5853C273.34 87.0825 270.658 87.7184 267.999 88.5855C265.351 89.4642 262.681 90.5394 260.253 92.0887C259.05 92.8748 257.883 93.7651 256.958 94.8866C256.495 95.4531 256.102 96.0659 255.801 96.7249C255.524 97.3955 255.362 98.1123 255.351 98.8522C255.362 99.5806 255.524 100.309 255.801 100.98C256.102 101.65 256.495 102.263 256.958 102.829C257.883 103.951 259.05 104.853 260.253 105.627C262.681 107.188 265.351 108.252 267.999 109.131C270.658 109.998 273.34 110.645 275.988 111.131C278.636 111.628 281.249 111.975 283.815 112.217C288.937 112.703 293.839 112.749 298.418 112.541C302.985 112.322 307.228 111.824 311.055 111.084C314.87 110.344 318.281 109.408 321.159 108.275C324.038 107.153 326.397 105.87 328.085 104.483C328.917 103.789 329.611 103.107 330.097 102.425C330.235 102.263 330.328 102.078 330.432 101.928C330.536 101.766 330.64 101.615 330.709 101.454C330.79 101.292 330.86 101.141 330.929 101.003C330.987 100.852 331.033 100.714 331.079 100.575C331.183 100.309 331.23 100.055 331.276 99.8465C331.299 99.7425 331.322 99.6384 331.334 99.5575C331.334 99.465 331.345 99.3841 331.357 99.3147C331.38 99.0256 331.391 98.8753 331.391 98.8753C331.391 98.8753 331.391 99.0256 331.368 99.3147C331.368 99.3841 331.368 99.4765 331.357 99.5575C331.357 99.65 331.322 99.7425 331.299 99.8581C331.253 100.066 331.218 100.321 331.114 100.586C331.068 100.725 331.022 100.864 330.964 101.014C330.894 101.165 330.825 101.315 330.744 101.465C330.675 101.627 330.571 101.789 330.467 101.951C330.362 102.113 330.27 102.298 330.131 102.459C329.646 103.153 328.964 103.847 328.12 104.541C326.443 105.939 324.073 107.234 321.194 108.367C318.315 109.512 314.905 110.46 311.078 111.2C307.251 111.952 303.008 112.449 298.429 112.68C293.851 112.9 288.949 112.853 283.815 112.379C281.249 112.137 278.624 111.79 275.977 111.293C273.329 110.807 270.635 110.159 267.964 109.292C265.305 108.414 262.634 107.338 260.172 105.766C258.958 104.98 257.779 104.078 256.83 102.933C256.356 102.367 255.952 101.731 255.651 101.049C255.374 100.355 255.2 99.6153 255.189 98.8522C255.2 98.1007 255.374 97.3492 255.663 96.6555C255.963 95.9734 256.38 95.3375 256.842 94.771C257.79 93.6264 258.969 92.7245 260.183 91.9384C262.634 90.3775 265.305 89.2907 267.964 88.4236C270.635 87.5565 273.317 86.909 275.977 86.4235C278.624 85.9263 281.249 85.5795 283.815 85.3367C288.949 84.8626 293.851 84.8048 298.429 85.0361C303.008 85.2673 307.251 85.776 311.078 86.5159C314.905 87.2675 318.315 88.2155 321.194 89.3485C324.073 90.4816 326.443 91.7765 328.12 93.1754C328.964 93.8691 329.646 94.5628 330.131 95.2565C330.27 95.4184 330.362 95.6034 330.467 95.7653C330.571 95.9271 330.675 96.089 330.744 96.2508C330.825 96.4127 330.894 96.563 330.964 96.7017C331.022 96.8521 331.068 97.0024 331.114 97.1295C331.218 97.3955 331.264 97.6498 331.299 97.8579C331.322 97.962 331.345 98.066 331.357 98.1585C331.357 98.251 331.357 98.3319 331.368 98.4013C331.391 98.6904 331.391 98.8407 331.391 98.8407H331.38Z" fill="#2492EB"/>
<path d="M317.483 67.3004C317.483 67.3004 317.356 67.2195 317.113 67.0576C317.055 67.023 316.986 66.9767 316.905 66.9189C316.824 66.8727 316.731 66.838 316.639 66.7917C316.442 66.6992 316.223 66.5836 315.945 66.5027C315.806 66.4564 315.668 66.4102 315.517 66.3639C315.355 66.3293 315.194 66.2946 315.02 66.2599C314.847 66.2136 314.662 66.2021 314.477 66.1905C314.28 66.179 314.084 66.1443 313.876 66.1443C313.043 66.1096 312.072 66.2368 311.02 66.468C308.893 66.942 306.43 68.0288 303.782 69.6128C301.123 71.1967 298.302 73.3125 295.377 75.8792C292.452 78.4459 289.457 81.4981 286.486 84.9666C283.515 88.4467 280.555 92.3545 277.792 96.7017C276.416 98.8753 275.086 101.153 273.861 103.558C272.624 105.951 271.502 108.46 270.554 111.096C269.618 113.732 268.843 116.495 268.577 119.362C268.461 120.796 268.45 122.264 268.774 123.687C268.936 124.392 269.178 125.086 269.525 125.733C269.884 126.369 270.358 126.935 270.924 127.398C271.514 127.837 272.184 128.149 272.878 128.346C273.583 128.519 274.312 128.589 275.04 128.566C276.497 128.519 277.919 128.149 279.272 127.675C281.989 126.704 284.474 125.259 286.787 123.698C289.099 122.126 291.249 120.403 293.261 118.611C295.273 116.819 297.157 114.969 298.915 113.096C302.43 109.339 305.482 105.5 308.106 101.754C310.731 98.0082 312.939 94.3431 314.696 90.8746C316.454 87.4061 317.795 84.1342 318.674 81.1744C319.541 78.2146 319.98 75.5554 319.922 73.3819C319.888 72.2951 319.772 71.3354 319.529 70.5261C319.483 70.318 319.402 70.133 319.344 69.9596C319.286 69.7746 319.217 69.6012 319.136 69.4509C319.055 69.289 318.986 69.1387 318.916 69C318.836 68.8613 318.755 68.7341 318.674 68.6185C318.535 68.3641 318.362 68.1791 318.223 68.0173C318.153 67.9363 318.096 67.8554 318.026 67.786C317.957 67.7282 317.899 67.6704 317.841 67.6242C317.622 67.4276 317.518 67.3236 317.518 67.3236C317.518 67.3236 317.633 67.4161 317.853 67.6126C317.911 67.6588 317.968 67.7167 318.038 67.7745C318.107 67.8438 318.165 67.9132 318.234 67.9941C318.373 68.156 318.546 68.341 318.697 68.5953C318.778 68.711 318.859 68.8381 318.94 68.9769C319.009 69.1156 319.09 69.2775 319.159 69.4278C319.24 69.5781 319.31 69.7631 319.367 69.9365C319.425 70.1215 319.518 70.3065 319.564 70.5146C319.807 71.3239 319.934 72.2835 319.98 73.3819C320.061 75.567 319.633 78.2377 318.766 81.2091C317.899 84.1804 316.558 87.4639 314.812 90.944C313.055 94.424 310.858 98.0891 308.234 101.847C305.609 105.604 302.557 109.454 299.042 113.212C297.285 115.096 295.4 116.946 293.377 118.738C291.365 120.53 289.203 122.264 286.891 123.837C284.567 125.409 282.081 126.854 279.341 127.837C277.977 128.311 276.531 128.693 275.052 128.739C274.312 128.762 273.56 128.693 272.832 128.519C272.115 128.323 271.421 127.999 270.808 127.548C270.219 127.074 269.733 126.484 269.363 125.837C269.005 125.178 268.762 124.473 268.6 123.744C268.276 122.299 268.288 120.808 268.404 119.374C268.67 116.472 269.456 113.709 270.392 111.061C271.34 108.425 272.473 105.905 273.71 103.511C274.948 101.107 276.277 98.829 277.653 96.6554C280.416 92.3083 283.388 88.4004 286.37 84.9204C289.353 81.4403 292.359 78.3996 295.296 75.8329C298.233 73.2662 301.065 71.1505 303.736 69.5781C306.395 67.9941 308.869 66.9189 311.008 66.4449C312.072 66.2136 313.043 66.0865 313.887 66.1327C314.095 66.1327 314.303 66.1674 314.488 66.179C314.685 66.1905 314.87 66.2136 315.043 66.2599C315.217 66.2946 315.379 66.3293 315.54 66.3639C315.691 66.4102 315.841 66.468 315.968 66.5027C316.246 66.5836 316.465 66.6992 316.662 66.8033C316.754 66.8495 316.847 66.8958 316.928 66.942C317.009 66.9883 317.067 67.0345 317.136 67.0808C317.379 67.2426 317.506 67.3351 317.506 67.3351L317.483 67.3004Z" fill="#2492EB"/>
<path d="M254.842 114.553C255.397 115.108 255.397 115.998 254.842 116.553C254.287 117.108 253.396 117.108 252.842 116.553C252.287 115.998 252.287 115.108 252.842 114.553C253.396 113.998 254.287 113.998 254.842 114.553Z" fill="#2492EB"/>
<path d="M334.605 70.7457C334.605 71.5319 333.97 72.1562 333.195 72.1562C332.42 72.1562 331.784 71.5204 331.784 70.7457C331.784 69.9711 332.42 69.3352 333.195 69.3352C333.97 69.3352 334.605 69.9711 334.605 70.7457Z" fill="#2492EB"/>
<path d="M263.767 119.201C263.767 119.397 263.605 119.559 263.409 119.559C263.212 119.559 263.05 119.397 263.05 119.201C263.05 119.004 263.212 118.842 263.409 118.842C263.605 118.842 263.767 119.004 263.767 119.201Z" fill="#2492EB"/>
<path d="M271.433 79.5906C271.433 79.7871 271.271 79.949 271.074 79.949C270.878 79.949 270.716 79.7871 270.716 79.5906C270.716 79.394 270.878 79.2322 271.074 79.2322C271.271 79.2322 271.433 79.394 271.433 79.5906Z" fill="#2492EB"/>
<path d="M327.495 98.8406C327.495 99.0371 327.333 99.199 327.137 99.199C326.94 99.199 326.778 99.0371 326.778 98.8406C326.778 98.644 326.94 98.4822 327.137 98.4822C327.333 98.4822 327.495 98.644 327.495 98.8406Z" fill="#2492EB"/>
<path d="M332.49 82.0877C332.49 82.2842 332.328 82.4461 332.131 82.4461C331.935 82.4461 331.773 82.2842 331.773 82.0877C331.773 81.8911 331.935 81.7292 332.131 81.7292C332.328 81.7292 332.49 81.8911 332.49 82.0877Z" fill="#2492EB"/>
<path d="M308.28 106.737H303.84V82.5503C303.84 76.862 299.204 72.2258 293.515 72.2258C287.827 72.2258 283.191 76.862 283.191 82.5503V106.737H278.751V82.5503C278.751 74.411 285.376 67.7861 293.515 67.7861C301.655 67.7861 308.28 74.411 308.28 82.5503V106.737Z" fill="#2492EB"/>
<g opacity="0.3">
<path d="M308.28 106.737H303.84V82.5503C303.84 76.862 299.204 72.2258 293.515 72.2258C287.827 72.2258 283.191 76.862 283.191 82.5503V106.737H278.751V82.5503C278.751 74.411 285.376 67.7861 293.515 67.7861C301.655 67.7861 308.28 74.411 308.28 82.5503V106.737Z" fill="#222222"/>
</g>
<path d="M310.811 95.9849H276.219C274.782 95.9849 273.618 97.1495 273.618 98.5862V118.912C273.618 120.348 274.782 121.513 276.219 121.513H310.811C312.248 121.513 313.413 120.348 313.413 118.912V98.5862C313.413 97.1495 312.248 95.9849 310.811 95.9849Z" fill="#2492EB"/>
<g opacity="0.3">
<path d="M296.845 105.419C296.845 103.581 295.354 102.09 293.515 102.09C291.677 102.09 290.186 103.581 290.186 105.419C290.186 106.934 291.215 108.206 292.602 108.599V113.57H294.417V108.599C295.804 108.206 296.833 106.934 296.833 105.419H296.845Z" fill="#222222"/>
</g>
<path d="M275.734 119.097C275.641 119.097 275.572 114.842 275.572 109.593C275.572 104.344 275.641 100.078 275.734 100.078C275.826 100.078 275.896 104.332 275.896 109.593C275.896 114.853 275.826 119.097 275.734 119.097Z" fill="white"/>
<path d="M290.914 109.685C290.914 109.685 290.764 109.639 290.521 109.466C290.29 109.292 289.977 109.015 289.665 108.587C289.041 107.778 288.474 106.298 288.844 104.702C289.226 103.107 290.405 102.043 291.319 101.592C291.781 101.361 292.186 101.245 292.475 101.199C292.764 101.153 292.926 101.153 292.926 101.176C292.937 101.234 292.29 101.303 291.434 101.8C290.59 102.274 289.527 103.303 289.168 104.783C288.821 106.252 289.318 107.651 289.862 108.46C290.405 109.292 290.96 109.639 290.914 109.685Z" fill="white"/>
<path d="M352.595 143.387H230.076C224.125 143.387 219.301 148.212 219.301 154.163V155.481C219.301 161.432 224.125 166.256 230.076 166.256H352.595C358.546 166.256 363.371 161.432 363.371 155.481V154.163C363.371 148.212 358.546 143.387 352.595 143.387Z" fill="white"/>
<path d="M353.647 174.754H231.129C225.178 174.754 220.353 179.579 220.353 185.53V186.848C220.353 192.799 225.178 197.623 231.129 197.623H353.647C359.599 197.623 364.423 192.799 364.423 186.848V185.53C364.423 179.579 359.599 174.754 353.647 174.754Z" fill="white"/>
<path d="M242.066 154.649V151.33H243.43V154.591C243.43 155.712 243.916 156.175 244.748 156.175C245.581 156.175 246.066 155.712 246.066 154.591V151.33H247.419V154.649C247.419 156.394 246.425 157.354 244.737 157.354C243.049 157.354 242.054 156.394 242.054 154.649H242.066Z" fill="#4E4E4E"/>
<path d="M248.24 156.834L248.679 155.886C249.084 156.151 249.697 156.325 250.263 156.325C250.876 156.325 251.096 156.163 251.096 155.909C251.096 155.169 248.356 155.92 248.356 154.105C248.356 153.238 249.13 152.637 250.46 152.637C251.084 152.637 251.778 152.775 252.206 153.03L251.766 153.966C251.315 153.712 250.864 153.631 250.46 153.631C249.87 153.631 249.616 153.816 249.616 154.059C249.616 154.833 252.367 154.082 252.367 155.874C252.367 156.718 251.581 157.319 250.217 157.319C249.442 157.319 248.668 157.111 248.252 156.834H248.24Z" fill="#4E4E4E"/>
<path d="M257.605 155.354H254.171C254.298 155.92 254.784 156.267 255.466 156.267C255.952 156.267 256.298 156.128 256.611 155.828L257.316 156.591C256.888 157.076 256.264 157.331 255.443 157.331C253.87 157.331 252.853 156.337 252.853 154.995C252.853 153.654 253.894 152.66 255.281 152.66C256.668 152.66 257.651 153.55 257.651 155.018C257.651 155.123 257.64 155.261 257.628 155.377L257.605 155.354ZM254.148 154.579H256.391C256.298 154.001 255.871 153.631 255.281 153.631C254.691 153.631 254.252 153.99 254.159 154.579H254.148Z" fill="#4E4E4E"/>
<path d="M261.328 152.637V153.851C261.212 153.851 261.131 153.839 261.027 153.839C260.299 153.839 259.813 154.232 259.813 155.111V157.261H258.495V152.718H259.755V153.319C260.079 152.88 260.622 152.648 261.316 152.648L261.328 152.637Z" fill="#4E4E4E"/>
<path d="M266.762 154.649V157.25H265.444V154.845C265.444 154.105 265.108 153.77 264.519 153.77C263.883 153.77 263.432 154.163 263.432 154.995V157.238H262.114V152.695H263.374V153.226C263.733 152.833 264.264 152.625 264.877 152.625C265.952 152.625 266.762 153.25 266.762 154.637V154.649Z" fill="#4E4E4E"/>
<path d="M271.976 154.66V157.25H270.739V156.683C270.496 157.1 270.022 157.319 269.352 157.319C268.288 157.319 267.652 156.73 267.652 155.943C267.652 155.157 268.219 154.579 269.606 154.579H270.658C270.658 154.013 270.323 153.689 269.606 153.689C269.12 153.689 268.623 153.851 268.3 154.117L267.826 153.192C268.323 152.833 269.063 152.637 269.791 152.637C271.178 152.637 271.976 153.284 271.976 154.66ZM270.658 155.816V155.354H269.756C269.144 155.354 268.947 155.585 268.947 155.886C268.947 156.221 269.224 156.44 269.687 156.44C270.126 156.44 270.508 156.232 270.658 155.828V155.816Z" fill="#4E4E4E"/>
<path d="M280.844 154.648V157.25H279.526V154.845C279.526 154.105 279.19 153.77 278.659 153.77C278.069 153.77 277.653 154.151 277.653 154.961V157.238H276.335V154.833C276.335 154.093 276.023 153.758 275.468 153.758C274.89 153.758 274.473 154.14 274.473 154.949V157.227H273.155V152.683H274.416V153.203C274.751 152.81 275.259 152.614 275.849 152.614C276.485 152.614 277.028 152.856 277.341 153.353C277.699 152.891 278.3 152.614 278.982 152.614C280.069 152.614 280.844 153.238 280.844 154.625V154.648Z" fill="#4E4E4E"/>
<path d="M286.509 155.354H283.075C283.202 155.92 283.688 156.267 284.37 156.267C284.856 156.267 285.202 156.128 285.515 155.828L286.22 156.591C285.792 157.076 285.168 157.331 284.347 157.331C282.775 157.331 281.757 156.337 281.757 154.995C281.757 153.654 282.798 152.66 284.185 152.66C285.572 152.66 286.555 153.55 286.555 155.018C286.555 155.123 286.544 155.261 286.532 155.377L286.509 155.354ZM283.052 154.579H285.295C285.202 154.001 284.775 153.631 284.185 153.631C283.595 153.631 283.156 153.99 283.064 154.579H283.052Z" fill="#4E4E4E"/>
<path d="M295.226 154.937C295.226 156.452 294.533 157.308 293.492 157.308C292.914 157.308 292.509 157.053 292.336 156.568C292.035 157.042 291.561 157.308 290.891 157.308C289.804 157.308 288.937 156.44 288.937 155.169C288.937 153.897 289.792 153.041 290.891 153.041C291.446 153.041 291.885 153.238 292.197 153.596V153.099H293.342V155.839C293.342 156.244 293.515 156.383 293.747 156.383C294.14 156.383 294.371 155.932 294.371 154.949C294.371 153.238 293.099 152.047 291.226 152.047C289.353 152.047 288.081 153.33 288.081 155.099C288.081 156.868 289.318 158.175 291.191 158.175C291.723 158.175 292.324 158.059 292.856 157.805L293.122 158.579C292.602 158.845 291.85 158.984 291.191 158.984C288.752 158.984 287.133 157.331 287.133 155.099C287.133 152.868 288.763 151.249 291.226 151.249C293.689 151.249 295.226 152.81 295.226 154.937ZM292.209 155.169C292.209 154.429 291.758 154.024 291.157 154.024C290.556 154.024 290.105 154.452 290.105 155.169C290.105 155.885 290.532 156.336 291.157 156.336C291.781 156.336 292.209 155.909 292.209 155.169Z" fill="#4E4E4E"/>
<path d="M303.84 154.648V157.25H302.522V154.845C302.522 154.105 302.187 153.77 301.655 153.77C301.065 153.77 300.649 154.151 300.649 154.961V157.238H299.331V154.833C299.331 154.093 299.019 153.758 298.464 153.758C297.886 153.758 297.469 154.14 297.469 154.949V157.227H296.151V152.683H297.412V153.203C297.747 152.81 298.256 152.614 298.845 152.614C299.481 152.614 300.025 152.856 300.337 153.353C300.695 152.891 301.296 152.614 301.978 152.614C303.065 152.614 303.84 153.238 303.84 154.625V154.648Z" fill="#4E4E4E"/>
<path d="M309.043 154.66V157.25H307.805V156.683C307.563 157.1 307.089 157.319 306.418 157.319C305.354 157.319 304.719 156.73 304.719 155.943C304.719 155.157 305.285 154.579 306.672 154.579H307.725C307.725 154.013 307.389 153.689 306.672 153.689C306.187 153.689 305.69 153.851 305.366 154.117L304.892 153.192C305.389 152.833 306.129 152.637 306.857 152.637C308.245 152.637 309.043 153.284 309.043 154.66ZM307.725 155.816V155.354H306.823C306.21 155.354 306.013 155.585 306.013 155.886C306.013 156.221 306.291 156.44 306.753 156.44C307.193 156.44 307.574 156.232 307.725 155.828V155.816Z" fill="#4E4E4E"/>
<path d="M310.083 151.33C310.083 150.914 310.418 150.59 310.904 150.59C311.389 150.59 311.725 150.891 311.725 151.296C311.725 151.735 311.389 152.059 310.904 152.059C310.418 152.059 310.083 151.735 310.083 151.319V151.33ZM310.245 152.695H311.563V157.238H310.245V152.695Z" fill="#4E4E4E"/>
<path d="M312.777 150.983H314.095V157.25H312.777V150.983Z" fill="#4E4E4E"/>
<path d="M315.008 156.487C315.008 156.001 315.367 155.677 315.829 155.677C316.292 155.677 316.65 156.001 316.65 156.487C316.65 156.972 316.292 157.319 315.829 157.319C315.367 157.319 315.008 156.972 315.008 156.487Z" fill="#4E4E4E"/>
<path d="M317.147 154.972C317.147 153.608 318.2 152.637 319.679 152.637C320.639 152.637 321.391 153.053 321.714 153.793L320.697 154.348C320.454 153.92 320.084 153.724 319.679 153.724C319.009 153.724 318.489 154.186 318.489 154.984C318.489 155.781 319.009 156.244 319.679 156.244C320.096 156.244 320.454 156.059 320.697 155.62L321.714 156.175C321.379 156.903 320.628 157.319 319.679 157.319C318.2 157.319 317.147 156.348 317.147 154.984V154.972Z" fill="#4E4E4E"/>
<path d="M322.073 154.972C322.073 153.608 323.125 152.637 324.57 152.637C326.015 152.637 327.067 153.608 327.067 154.972C327.067 156.336 326.015 157.308 324.57 157.308C323.125 157.308 322.073 156.336 322.073 154.972ZM325.726 154.972C325.726 154.186 325.229 153.712 324.57 153.712C323.911 153.712 323.402 154.186 323.402 154.972C323.402 155.758 323.911 156.232 324.57 156.232C325.229 156.232 325.726 155.758 325.726 154.972Z" fill="#4E4E4E"/>
<path d="M335.634 154.648V157.25H334.316V154.845C334.316 154.105 333.981 153.77 333.449 153.77C332.86 153.77 332.443 154.151 332.443 154.961V157.238H331.125V154.833C331.125 154.093 330.813 153.758 330.258 153.758C329.68 153.758 329.264 154.14 329.264 154.949V157.227H327.946V152.683H329.206V153.203C329.541 152.81 330.05 152.614 330.64 152.614C331.276 152.614 331.819 152.856 332.131 153.353C332.49 152.891 333.091 152.614 333.773 152.614C334.86 152.614 335.634 153.238 335.634 154.625V154.648Z" fill="#4E4E4E"/>
<path d="M259.721 186.316L261.86 187.472L260.9 189.079L258.738 187.807L258.773 190.189H256.923L256.946 187.796L254.784 189.091L253.836 187.484L255.975 186.328L253.836 185.148L254.784 183.541L256.946 184.836L256.923 182.443H258.773L258.738 184.836L260.9 183.541L261.86 185.148L259.721 186.328V186.316Z" fill="#4E4E4E"/>
<path d="M268.635 186.316L270.774 187.472L269.814 189.079L267.652 187.807L267.687 190.189H265.837L265.86 187.796L263.698 189.091L262.75 187.484L264.889 186.328L262.75 185.148L263.698 183.541L265.86 184.836L265.837 182.443H267.687L267.652 184.836L269.814 183.541L270.774 185.148L268.635 186.328V186.316Z" fill="#4E4E4E"/>
<path d="M277.549 186.316L279.688 187.472L278.728 189.079L276.566 187.807L276.601 190.189H274.751L274.774 187.796L272.612 189.091L271.664 187.484L273.803 186.328L271.664 185.148L272.612 183.541L274.774 184.836L274.751 182.443H276.601L276.566 184.836L278.728 183.541L279.688 185.148L277.549 186.328V186.316Z" fill="#4E4E4E"/>
<path d="M286.451 186.316L288.59 187.472L287.63 189.079L285.468 187.807L285.503 190.189H283.653L283.676 187.796L281.514 189.091L280.566 187.484L282.705 186.328L280.566 185.148L281.514 183.541L283.676 184.836L283.653 182.443H285.503L285.468 184.836L287.63 183.541L288.59 185.148L286.451 186.328V186.316Z" fill="#4E4E4E"/>
<path d="M295.365 186.316L297.504 187.472L296.545 189.079L294.383 187.807L294.417 190.189H292.567L292.591 187.796L290.429 189.091L289.48 187.484L291.619 186.328L289.48 185.148L290.429 183.541L292.591 184.836L292.567 182.443H294.417L294.383 184.836L296.545 183.541L297.504 185.148L295.365 186.328V186.316Z" fill="#4E4E4E"/>
<path d="M304.279 186.316L306.418 187.472L305.458 189.079L303.296 187.807L303.331 190.189H301.481L301.504 187.796L299.342 189.091L298.394 187.484L300.533 186.328L298.394 185.148L299.342 183.541L301.504 184.836L301.481 182.443H303.331L303.296 184.836L305.458 183.541L306.418 185.148L304.279 186.328V186.316Z" fill="#4E4E4E"/>
<path d="M313.182 186.316L315.321 187.472L314.361 189.079L312.199 187.807L312.234 190.189H310.384L310.407 187.796L308.245 189.091L307.297 187.484L309.436 186.328L307.297 185.148L308.245 183.541L310.407 184.836L310.384 182.443H312.234L312.199 184.836L314.361 183.541L315.321 185.148L313.182 186.328V186.316Z" fill="#4E4E4E"/>
<path d="M322.096 186.316L324.235 187.472L323.275 189.079L321.113 187.807L321.148 190.189H319.298L319.321 187.796L317.159 189.091L316.211 187.484L318.35 186.328L316.211 185.148L317.159 183.541L319.321 184.836L319.298 182.443H321.148L321.113 184.836L323.275 183.541L324.235 185.148L322.096 186.328V186.316Z" fill="#4E4E4E"/>
<path d="M419.526 250.055H247.234C243.16 250.055 239.858 253.358 239.858 257.432V346.618C239.858 350.692 243.16 353.994 247.234 353.994H419.526C423.6 353.994 426.902 350.692 426.902 346.618V257.432C426.902 253.358 423.6 250.055 419.526 250.055Z" fill="white"/>
<path d="M419.526 353.994C419.526 353.994 420.023 353.994 420.982 353.821C421.907 353.613 423.341 353.139 424.694 351.797C425.353 351.127 425.965 350.248 426.358 349.161C426.578 348.618 426.682 348.017 426.775 347.392C426.821 346.768 426.809 346.098 426.809 345.404C426.809 342.629 426.798 339.426 426.786 335.831C426.763 321.413 426.728 300.579 426.694 274.832C426.694 271.617 426.694 268.311 426.694 264.946C426.694 263.258 426.694 261.559 426.694 259.836C426.648 258.113 426.879 256.345 426.173 254.772C425.538 253.2 424.312 251.847 422.751 251.061C421.977 250.668 421.133 250.425 420.254 250.332C419.398 250.263 418.462 250.309 417.549 250.298C413.895 250.298 410.172 250.298 406.392 250.298C391.246 250.298 375.071 250.321 358.041 250.321C323.992 250.321 286.555 250.332 247.257 250.344C246.078 250.344 244.91 250.645 243.87 251.2C242.852 251.778 241.95 252.575 241.314 253.57C240.69 254.552 240.274 255.686 240.205 256.853C240.147 258.021 240.193 259.27 240.181 260.472C240.181 265.328 240.181 270.149 240.181 274.936C240.181 284.509 240.181 293.931 240.181 303.204C240.181 312.465 240.181 321.575 240.181 330.489C240.181 334.941 240.181 339.357 240.181 343.716C240.181 344.803 240.158 345.913 240.193 346.965C240.239 348.005 240.528 349.034 241.002 349.948C241.973 351.786 243.777 353.127 245.789 353.555C246.783 353.786 247.835 353.694 248.899 353.717C249.951 353.717 251.015 353.717 252.067 353.717C254.171 353.717 256.252 353.717 258.333 353.717C262.484 353.717 266.577 353.717 270.612 353.717C278.682 353.717 286.509 353.717 294.082 353.728C309.228 353.74 323.333 353.751 336.212 353.763C361.96 353.798 382.794 353.832 397.212 353.855C404.403 353.879 409.999 353.902 413.791 353.913C415.676 353.925 417.121 353.936 418.103 353.948C419.075 353.948 419.572 353.983 419.572 353.983C419.572 353.983 419.075 354.006 418.103 354.017C417.121 354.017 415.676 354.029 413.791 354.052C409.987 354.063 404.403 354.087 397.212 354.11C382.794 354.133 361.96 354.168 336.212 354.202C323.333 354.202 309.228 354.225 294.082 354.237C286.509 354.237 278.682 354.237 270.612 354.248C266.577 354.248 262.484 354.248 258.333 354.248C256.264 354.248 254.171 354.248 252.067 354.248C251.015 354.248 249.963 354.248 248.899 354.248C247.858 354.225 246.772 354.329 245.673 354.087C243.511 353.636 241.569 352.179 240.517 350.202C239.996 349.219 239.684 348.109 239.638 346.988C239.603 345.878 239.638 344.814 239.615 343.716C239.615 339.357 239.615 334.941 239.615 330.489C239.615 321.575 239.615 312.476 239.615 303.204C239.615 293.943 239.615 284.509 239.615 274.936C239.615 270.149 239.615 265.328 239.615 260.472C239.626 259.246 239.58 258.067 239.65 256.807C239.731 255.535 240.181 254.31 240.864 253.246C241.546 252.171 242.528 251.304 243.638 250.679C244.76 250.078 246.032 249.754 247.315 249.754C286.613 249.754 324.05 249.766 358.099 249.778C375.129 249.778 391.304 249.801 406.449 249.801C410.23 249.801 413.953 249.801 417.606 249.801C418.531 249.812 419.41 249.766 420.358 249.835C421.283 249.928 422.196 250.194 423.017 250.622C424.67 251.454 425.977 252.899 426.648 254.576C426.994 255.42 427.168 256.31 427.191 257.212C427.191 258.079 427.191 258.946 427.191 259.813C427.191 261.536 427.191 263.235 427.191 264.923C427.191 268.288 427.191 271.594 427.191 274.808C427.156 300.556 427.122 321.39 427.098 335.808C427.098 339.403 427.075 342.606 427.075 345.381C427.075 346.074 427.075 346.745 427.029 347.392C426.937 348.028 426.821 348.641 426.59 349.196C426.173 350.306 425.549 351.196 424.867 351.867C423.48 353.208 422.023 353.682 421.086 353.867C420.601 353.948 420.242 353.983 419.988 353.983C419.745 353.983 419.618 353.983 419.618 353.983L419.526 353.994Z" fill="#4E4E4E"/>
<path d="M305.031 286.786V288.081H299.62V281.086H304.904V282.381H301.227V283.896H304.476V285.156H301.227V286.775H305.031V286.786Z" fill="#4E4E4E"/>
<path d="M312.731 281.086V288.081H311.401L307.921 283.838V288.081H306.326V281.086H307.667L311.147 285.33V281.086H312.742H312.731Z" fill="#4E4E4E"/>
<path d="M315.829 282.404H313.598V281.086H319.691V282.404H317.459V288.081H315.841V282.404H315.829Z" fill="#4E4E4E"/>
<path d="M325.969 286.786V288.081H320.558V281.086H325.842V282.381H322.165V283.896H325.414V285.156H322.165V286.775H325.969V286.786Z" fill="#4E4E4E"/>
<path d="M331.715 288.081L330.362 286.139H328.871V288.081H327.252V281.086H330.281C332.143 281.086 333.311 282.058 333.311 283.618C333.311 284.671 332.779 285.434 331.877 285.827L333.449 288.07H331.715V288.081ZM330.2 282.404H328.882V284.844H330.2C331.195 284.844 331.692 284.382 331.692 283.63C331.692 282.878 331.195 282.416 330.2 282.416V282.404Z" fill="#4E4E4E"/>
<path d="M336.987 284.589C336.987 282.485 338.606 280.971 340.779 280.971C341.982 280.971 342.999 281.41 343.658 282.208L342.618 283.167C342.144 282.624 341.554 282.347 340.86 282.347C339.554 282.347 338.629 283.26 338.629 284.578C338.629 285.896 339.554 286.809 340.86 286.809C341.554 286.809 342.144 286.532 342.618 285.977L343.658 286.936C342.999 287.746 341.993 288.185 340.768 288.185C338.606 288.185 336.987 286.682 336.987 284.566V284.589Z" fill="#4E4E4E"/>
<path d="M344.156 284.589C344.156 282.508 345.774 280.971 347.982 280.971C350.191 280.971 351.809 282.497 351.809 284.589C351.809 286.682 350.179 288.208 347.982 288.208C345.786 288.208 344.156 286.671 344.156 284.589ZM350.168 284.589C350.168 283.26 349.231 282.358 347.982 282.358C346.734 282.358 345.797 283.271 345.797 284.589C345.797 285.908 346.734 286.821 347.982 286.821C349.231 286.821 350.168 285.908 350.168 284.589Z" fill="#4E4E4E"/>
<path d="M353.034 281.087H356.214C358.503 281.087 360.064 282.462 360.064 284.578C360.064 286.694 358.492 288.07 356.214 288.07H353.034V281.075V281.087ZM356.133 286.752C357.52 286.752 358.434 285.919 358.434 284.59C358.434 283.26 357.52 282.428 356.133 282.428H354.653V286.763H356.133V286.752Z" fill="#4E4E4E"/>
<path d="M366.689 286.786V288.081H361.278V281.086H366.562V282.381H362.885V283.896H366.134V285.156H362.885V286.775H366.689V286.786Z" fill="#4E4E4E"/>
<path d="M278.508 299.238H261.524C259.002 299.238 256.958 301.283 256.958 303.805V330.247C256.958 332.769 259.002 334.813 261.524 334.813H278.508C281.031 334.813 283.075 332.769 283.075 330.247V303.805C283.075 301.283 281.031 299.238 278.508 299.238Z" fill="#F4F4F4"/>
<path d="M311.124 299.238H294.14C291.617 299.238 289.573 301.283 289.573 303.805V330.247C289.573 332.769 291.617 334.813 294.14 334.813H311.124C313.646 334.813 315.69 332.769 315.69 330.247V303.805C315.69 301.283 313.646 299.238 311.124 299.238Z" fill="#F4F4F4"/>
<path d="M343.739 299.238H326.755C324.233 299.238 322.188 301.283 322.188 303.805V330.247C322.188 332.769 324.233 334.813 326.755 334.813H343.739C346.261 334.813 348.306 332.769 348.306 330.247V303.805C348.306 301.283 346.261 299.238 343.739 299.238Z" fill="#F4F4F4"/>
<path d="M376.343 299.238H359.359C356.837 299.238 354.792 301.283 354.792 303.805V330.247C354.792 332.769 356.837 334.813 359.359 334.813H376.343C378.865 334.813 380.91 332.769 380.91 330.247V303.805C380.91 301.283 378.865 299.238 376.343 299.238Z" fill="#F4F4F4"/>
<path d="M408.958 299.238H391.974C389.452 299.238 387.407 301.283 387.407 303.805V330.247C387.407 332.769 389.452 334.813 391.974 334.813H408.958C411.48 334.813 413.525 332.769 413.525 330.247V303.805C413.525 301.283 411.48 299.238 408.958 299.238Z" fill="#F4F4F4"/>
<path d="M275.71 319.772C275.71 322.315 273.745 323.957 271.086 323.957C267.432 323.957 265.513 321.333 265.513 316.985C265.513 312.28 268.01 309.864 271.687 309.864C272.878 309.864 273.988 310.06 274.843 310.58L274.427 311.39C273.71 310.939 272.739 310.754 271.687 310.754C268.565 310.754 266.53 312.8 266.53 316.824C266.53 317.24 266.553 317.853 266.646 318.488C267.224 316.662 268.97 315.633 271.074 315.633C273.849 315.633 275.722 317.263 275.722 319.76L275.71 319.772ZM274.693 319.795C274.693 317.806 273.259 316.523 270.924 316.523C268.588 316.523 267.074 317.968 267.074 319.841C267.074 321.471 268.438 323.09 271.039 323.09C273.201 323.09 274.693 321.795 274.693 319.795Z" fill="#2492EB"/>
<path d="M307.967 320.015H305.054V323.865H304.06V320.015H296.14V319.275L303.678 309.968H304.811L297.412 319.113H304.083V315.714H305.054V319.113H307.967V320.003V320.015Z" fill="#2492EB"/>
<path d="M341.6 325.842C341.6 326.003 338.895 326.142 335.554 326.142C332.212 326.142 329.507 326.003 329.507 325.842C329.507 325.68 332.212 325.541 335.554 325.541C338.895 325.541 341.6 325.68 341.6 325.842Z" fill="#2492EB"/>
<path d="M251.732 263.258C253.296 263.258 254.564 261.99 254.564 260.426C254.564 258.861 253.296 257.593 251.732 257.593C250.167 257.593 248.899 258.861 248.899 260.426C248.899 261.99 250.167 263.258 251.732 263.258Z" fill="#4E4E4E"/>
<path d="M262.726 260.426C262.726 261.987 261.455 263.258 259.894 263.258C258.333 263.258 257.061 261.987 257.061 260.426C257.061 258.865 258.333 257.593 259.894 257.593C261.455 257.593 262.726 258.865 262.726 260.426Z" fill="#4E4E4E"/>
<path d="M267.906 263.258C269.471 263.258 270.739 261.99 270.739 260.426C270.739 258.861 269.471 257.593 267.906 257.593C266.342 257.593 265.074 258.861 265.074 260.426C265.074 261.99 266.342 263.258 267.906 263.258Z" fill="#4E4E4E"/>
<path d="M427.18 268.403C427.18 268.565 385.303 268.704 333.657 268.704C282.012 268.704 240.124 268.565 240.124 268.403C240.124 268.242 281.988 268.103 333.657 268.103C385.326 268.103 427.18 268.242 427.18 268.403Z" fill="#4E4E4E"/>
<path d="M217.093 122.449H127.028C124.438 122.449 122.345 124.542 122.345 127.132V168.164C122.345 170.754 124.438 172.847 127.028 172.847H164.811L172.835 183.136L179.518 172.847H217.081C219.671 172.847 221.764 170.754 221.764 168.164V127.132C221.764 124.542 219.671 122.449 217.081 122.449H217.093Z" fill="white"/>
<path d="M217.093 122.449C217.093 122.449 217.243 122.449 217.544 122.449C217.833 122.484 218.284 122.519 218.827 122.738C219.37 122.946 220.029 123.305 220.608 123.941C221.197 124.565 221.706 125.49 221.845 126.623C221.926 131.097 221.914 137.583 221.949 145.815C221.949 149.931 221.972 154.475 221.983 159.4C221.983 161.863 221.983 164.43 221.995 167.077C221.983 167.736 222.041 168.418 221.902 169.124C221.764 169.817 221.475 170.488 221.047 171.066C220.203 172.234 218.804 173.02 217.312 173.066C205.982 173.078 193.276 173.101 179.529 173.124L179.76 172.997C177.656 176.234 175.39 179.726 173.078 183.287L172.858 183.622L172.615 183.31C170.083 180.061 167.355 176.569 164.58 173.02L164.811 173.136C154.406 173.136 143.515 173.136 132.346 173.136H128.45C127.791 173.124 127.178 173.159 126.473 173.101C125.791 173.02 125.12 172.8 124.53 172.453C123.339 171.771 122.472 170.58 122.172 169.239C122.01 168.569 122.056 167.887 122.045 167.262V165.355C122.045 160.279 122.045 155.273 122.045 150.348C122.045 145.434 122.045 140.601 122.045 135.861C122.045 133.491 122.045 131.155 122.045 128.843V127.109C122.045 126.496 122.16 125.895 122.38 125.328C122.819 124.195 123.675 123.247 124.738 122.704C125.27 122.426 125.848 122.253 126.438 122.183C127.039 122.126 127.583 122.16 128.149 122.149C129.259 122.149 130.369 122.149 131.479 122.149C133.676 122.149 135.849 122.149 138 122.149C142.277 122.149 146.44 122.149 150.463 122.16C158.498 122.172 165.99 122.183 172.823 122.195C186.478 122.23 197.542 122.264 205.207 122.287C209.011 122.311 211.983 122.334 214.006 122.345C215 122.357 215.763 122.368 216.295 122.38C216.815 122.38 217.07 122.415 217.07 122.415C217.07 122.415 216.804 122.438 216.295 122.449C215.763 122.449 215 122.461 214.006 122.484C211.971 122.496 209.011 122.519 205.207 122.542C197.542 122.565 186.478 122.6 172.823 122.634C165.99 122.634 158.498 122.657 150.463 122.669C146.44 122.669 142.289 122.669 138 122.681C135.861 122.681 133.687 122.681 131.479 122.681C130.381 122.681 129.271 122.681 128.149 122.681C127.594 122.681 127.016 122.669 126.507 122.715C125.987 122.773 125.467 122.935 124.993 123.178C124.045 123.663 123.282 124.507 122.9 125.513C122.704 126.01 122.611 126.554 122.6 127.097V128.831C122.6 131.144 122.6 133.491 122.6 135.849C122.6 140.578 122.6 145.411 122.6 150.336C122.6 155.25 122.6 160.256 122.6 165.343V167.251C122.6 167.898 122.565 168.511 122.715 169.089C122.969 170.257 123.744 171.309 124.785 171.91C125.305 172.211 125.883 172.407 126.484 172.476C127.062 172.534 127.756 172.5 128.392 172.511C129.687 172.511 130.993 172.511 132.288 172.511C143.457 172.511 154.348 172.511 164.753 172.511H164.892L164.984 172.627C167.748 176.176 170.476 179.668 173.008 182.917L172.546 182.94C174.858 179.379 177.136 175.887 179.24 172.65L179.321 172.523H179.471C193.206 172.534 205.913 172.546 217.232 172.557C218.584 172.511 219.856 171.806 220.619 170.754C221.001 170.234 221.278 169.621 221.405 168.996C221.532 168.372 221.486 167.702 221.498 167.043C221.498 164.395 221.498 161.828 221.509 159.366C221.521 154.44 221.532 149.897 221.544 145.781C221.567 137.572 221.579 131.074 221.59 126.6C221.475 125.513 221.001 124.611 220.434 123.999C219.879 123.363 219.243 123.004 218.723 122.785C217.648 122.357 217.023 122.461 217.023 122.415L217.093 122.449Z" fill="#4E4E4E"/>
<path d="M155.192 134.023V135.537H154.197V134.011L152.533 131.26H153.585L154.729 133.167L155.874 131.26H156.845L155.18 134.023H155.192Z" fill="#4E4E4E"/>
<path d="M156.822 133.398C156.822 132.127 157.816 131.178 159.169 131.178C160.522 131.178 161.516 132.115 161.516 133.398C161.516 134.682 160.522 135.618 159.169 135.618C157.816 135.618 156.822 134.67 156.822 133.398ZM160.51 133.398C160.51 132.589 159.932 132.022 159.169 132.022C158.406 132.022 157.828 132.577 157.828 133.398C157.828 134.219 158.406 134.774 159.169 134.774C159.932 134.774 160.51 134.219 160.51 133.398Z" fill="#4E4E4E"/>
<path d="M162.233 133.664V131.26H163.227V133.618C163.227 134.427 163.585 134.774 164.187 134.774C164.788 134.774 165.146 134.439 165.146 133.618V131.26H166.129V133.664C166.129 134.925 165.412 135.618 164.187 135.618C162.961 135.618 162.244 134.925 162.244 133.664H162.233Z" fill="#4E4E4E"/>
<path d="M169.829 135.549L169.008 134.358H168.095V135.549H167.1V131.26H168.95C170.095 131.26 170.812 131.849 170.812 132.809C170.812 133.456 170.488 133.919 169.933 134.161L170.893 135.537H169.829V135.549ZM168.904 132.069H168.095V133.56H168.904C169.505 133.56 169.817 133.283 169.817 132.809C169.817 132.335 169.517 132.057 168.904 132.057V132.069Z" fill="#4E4E4E"/>
<path d="M173.066 133.398C173.066 132.103 174.06 131.178 175.39 131.178C176.13 131.178 176.754 131.444 177.147 131.942L176.512 132.531C176.222 132.196 175.864 132.034 175.436 132.034C174.639 132.034 174.06 132.601 174.06 133.41C174.06 134.219 174.627 134.786 175.436 134.786C175.864 134.786 176.222 134.612 176.512 134.277L177.147 134.867C176.743 135.364 176.13 135.63 175.378 135.63C174.049 135.63 173.055 134.705 173.055 133.41L173.066 133.398Z" fill="#4E4E4E"/>
<path d="M177.471 133.398C177.471 132.127 178.465 131.178 179.818 131.178C181.171 131.178 182.165 132.115 182.165 133.398C182.165 134.682 181.171 135.618 179.818 135.618C178.465 135.618 177.471 134.67 177.471 133.398ZM181.159 133.398C181.159 132.589 180.581 132.022 179.818 132.022C179.055 132.022 178.477 132.577 178.477 133.398C178.477 134.219 179.055 134.774 179.818 134.774C180.581 134.774 181.159 134.219 181.159 133.398Z" fill="#4E4E4E"/>
<path d="M182.905 131.259H184.847C186.246 131.259 187.206 132.103 187.206 133.398C187.206 134.693 186.246 135.537 184.847 135.537H182.905V131.248V131.259ZM184.801 134.728C185.657 134.728 186.212 134.219 186.212 133.398C186.212 132.577 185.657 132.069 184.801 132.069H183.899V134.728H184.801Z" fill="#4E4E4E"/>
<path d="M191.287 134.751V135.549H187.969V131.26H191.206V132.057H188.952V132.982H190.94V133.757H188.952V134.751H191.287Z" fill="#4E4E4E"/>
<path d="M208.294 140.046H135.814C133.548 140.046 131.71 141.884 131.71 144.151V159.458C131.71 161.725 133.548 163.563 135.814 163.563H208.294C210.561 163.563 212.399 161.725 212.399 159.458V144.151C212.399 141.884 210.561 140.046 208.294 140.046Z" fill="white"/>
<path d="M148.116 153.238C148.116 155.319 146.509 156.672 144.324 156.672C141.329 156.672 139.757 154.521 139.757 150.96C139.757 147.11 141.803 145.122 144.809 145.122C145.781 145.122 146.694 145.283 147.399 145.711L147.052 146.382C146.463 146.012 145.665 145.862 144.809 145.862C142.254 145.862 140.578 147.538 140.578 150.833C140.578 151.18 140.589 151.677 140.67 152.197C141.144 150.706 142.578 149.85 144.301 149.85C146.578 149.85 148.104 151.18 148.104 153.238H148.116ZM147.284 153.249C147.284 151.619 146.116 150.567 144.197 150.567C142.277 150.567 141.04 151.758 141.04 153.284C141.04 154.614 142.162 155.955 144.289 155.955C146.058 155.955 147.284 154.903 147.284 153.261V153.249Z" fill="#2492EB"/>
<path d="M163.227 153.435H160.834V156.591H160.024V153.435H153.538V152.833L159.724 145.203H160.649L154.579 152.706H160.048V149.92H160.845V152.706H163.239V153.435H163.227Z" fill="#2492EB"/>
<path d="M175.875 153.388C175.875 155.273 174.511 156.672 171.887 156.672C170.21 156.672 168.661 156.059 167.875 155.146L168.303 154.51C168.996 155.308 170.337 155.909 171.898 155.909C173.945 155.909 175.043 154.938 175.043 153.388C175.043 151.839 174.002 150.868 171.725 150.868H171.008V150.267L174.372 145.954H168.303V145.203H175.448V145.792L172.037 150.174C174.627 150.244 175.887 151.538 175.887 153.4L175.875 153.388Z" fill="#2492EB"/>
<path d="M189.634 145.203V145.792L184.743 156.591H183.83L188.674 145.954H182.281V148.139H181.471V145.214H189.634V145.203Z" fill="#2492EB"/>
<path d="M195.449 150.903C195.449 147.342 197.288 145.133 199.9 145.133C202.513 145.133 204.352 147.342 204.352 150.903C204.352 154.464 202.513 156.672 199.9 156.672C197.288 156.672 195.449 154.464 195.449 150.903ZM203.531 150.903C203.531 147.735 202.051 145.896 199.9 145.896C197.75 145.896 196.27 147.735 196.27 150.903C196.27 154.07 197.75 155.909 199.9 155.909C202.051 155.909 203.531 154.07 203.531 150.903Z" fill="#2492EB"/>
<path d="M443.354 448.672C458.488 442.244 476.016 429.607 483.831 414.115C467.506 420.67 453.112 432.972 443.354 448.672Z" fill="#4E4E4E"/>
<path d="M446.58 424.624C461.714 418.196 479.241 405.559 487.057 390.066C470.732 396.622 456.338 408.923 446.58 424.624Z" fill="#4E4E4E"/>
<path d="M450.95 401.235C466.084 394.807 483.612 382.17 491.427 366.677C475.102 373.233 460.708 385.534 450.95 401.235Z" fill="#4E4E4E"/>
<path d="M456.442 376.747C470.72 368.273 486.641 353.312 492.572 336.883C477.125 345.658 464.269 359.833 456.442 376.747Z" fill="#4E4E4E"/>
<path d="M462.315 358.006C472.721 344.398 482.421 324.142 482.294 306.592C470.905 320.951 463.795 339.242 462.315 358.006Z" fill="#4E4E4E"/>
<path d="M459.402 366.909C457.297 348.502 450.141 325.368 437.99 311.563C439.92 331.287 447.539 350.965 459.402 366.909Z" fill="#4E4E4E"/>
<path d="M454.511 387.037C450.811 368.065 441.446 344.595 427.642 331.287C431.272 351.647 440.834 371.475 454.511 387.037Z" fill="#4E4E4E"/>
<path d="M448.892 411.594C445.192 392.622 435.827 369.151 422.023 355.844C425.653 376.204 435.215 396.032 448.892 411.594Z" fill="#4E4E4E"/>
<path d="M444.383 441.724C440.683 422.751 431.318 399.281 417.514 385.974C421.144 406.334 430.705 426.162 444.383 441.724Z" fill="#4E4E4E"/>
<path d="M463.02 354.399C463.02 354.399 462.974 354.491 462.905 354.688C462.824 354.907 462.731 355.196 462.616 355.532C462.361 356.329 462.014 357.428 461.563 358.815C460.65 361.671 459.425 365.822 457.979 370.978C456.534 376.135 454.939 382.297 453.285 389.188C451.667 396.078 450.025 403.686 448.51 411.71C447.007 419.745 445.782 427.422 444.788 434.44C443.816 441.446 443.065 447.782 442.545 453.112C442.013 458.442 441.654 462.754 441.458 465.737C441.365 467.194 441.296 468.35 441.238 469.171C441.227 469.541 441.203 469.83 441.192 470.061C441.192 470.258 441.192 470.362 441.192 470.373C441.192 470.373 441.215 470.269 441.25 470.073C441.273 469.842 441.307 469.541 441.354 469.183C441.435 468.35 441.539 467.206 441.677 465.749C441.932 462.766 442.36 458.465 442.949 453.147C443.527 447.828 444.314 441.516 445.319 434.509C446.348 427.514 447.585 419.838 449.088 411.814C450.603 403.802 452.233 396.194 453.817 389.303C455.436 382.424 456.985 376.25 458.384 371.082C459.771 365.914 460.939 361.752 461.783 358.885C462.188 357.474 462.5 356.376 462.731 355.566C462.824 355.208 462.905 354.931 462.962 354.699C463.009 354.503 463.032 354.399 463.02 354.399Z" fill="#4E4E4E"/>
<path d="M435.978 458.696C442.394 445.25 447.065 426.358 443.909 411.606C436.787 425.873 433.966 442.614 435.978 458.696Z" fill="#7A7A7A"/>
<path d="M425.307 441.296C431.723 427.85 436.394 408.958 433.238 394.206C426.116 408.473 423.295 425.214 425.307 441.296Z" fill="#7A7A7A"/>
<path d="M415.733 423.595C422.15 410.149 426.821 391.257 423.665 376.505C416.543 390.772 413.722 407.513 415.733 423.595Z" fill="#7A7A7A"/>
<path d="M406.299 404.507C411.074 390.275 413.467 370.886 408.6 356.688C403.224 371.834 402.414 388.83 406.299 404.507Z" fill="#7A7A7A"/>
<path d="M400.16 388.876C399.686 373.742 395.235 354.78 385.835 343.6C386.066 359.821 391.153 375.927 400.16 388.876Z" fill="#7A7A7A"/>
<path d="M402.992 396.379C391.858 385.87 374.932 375.441 359.706 374.077C371.429 385.534 386.818 393.466 402.992 396.379Z" fill="#7A7A7A"/>
<path d="M410.507 412.3C398.032 402.414 379.488 393.13 363.463 393.096C376.632 403.917 393.362 410.75 410.507 412.3Z" fill="#7A7A7A"/>
<path d="M419.884 431.503C407.409 421.618 388.864 412.334 372.84 412.3C386.009 423.121 402.738 429.954 419.884 431.503Z" fill="#7A7A7A"/>
<path d="M432.96 453.609C420.485 443.724 401.94 434.44 385.916 434.406C399.085 445.227 415.814 452.06 432.96 453.609Z" fill="#7A7A7A"/>
<path d="M398.703 386.124C398.703 386.124 398.715 386.216 398.773 386.378C398.842 386.575 398.923 386.806 399.027 387.095C399.281 387.766 399.628 388.667 400.067 389.812C400.981 392.171 402.368 395.57 404.149 399.72C407.71 408.045 412.982 419.398 419.537 431.561C422.821 437.643 426.116 443.342 429.203 448.476C432.313 453.586 435.192 458.153 437.712 461.91C440.209 465.679 442.291 468.697 443.77 470.755C444.487 471.749 445.054 472.536 445.482 473.114C445.667 473.356 445.817 473.553 445.933 473.715C446.037 473.854 446.094 473.911 446.106 473.911C446.106 473.911 446.071 473.83 445.979 473.68C445.863 473.507 445.736 473.299 445.574 473.044C445.181 472.455 444.638 471.645 443.955 470.628C442.533 468.535 440.51 465.483 438.047 461.691C435.585 457.899 432.741 453.332 429.654 448.21C426.601 443.065 423.33 437.365 420.046 431.295C413.502 419.144 408.172 407.837 404.519 399.558C402.692 395.419 401.247 392.055 400.276 389.72C399.79 388.586 399.408 387.696 399.131 387.037C399.004 386.76 398.9 386.529 398.819 386.344C398.749 386.193 398.703 386.112 398.692 386.112L398.703 386.124Z" fill="#4E4E4E"/>
<path d="M405.409 460.315H469.183V472.617H462.628L457.113 507.672H417.687L412.011 472.617H405.409V460.315Z" fill="#2492EB"/>
<path d="M405.409 472.351C405.409 472.189 419.584 472.05 437.065 472.05C454.546 472.05 468.72 472.177 468.72 472.351C468.72 472.524 454.546 472.651 437.065 472.651C419.584 472.651 405.409 472.524 405.409 472.351Z" fill="#4E4E4E"/>
<path d="M40.0957 507.683H29.748L25.9095 461.09H38.0955L40.0957 507.683Z" fill="#4E4E4E"/>
<path d="M129.802 507.683H140.162L144 461.09H131.803L129.802 507.683Z" fill="#4E4E4E"/>
<path d="M151.111 466.986L17.8742 470.119L13.8161 384.066C13.423 375.638 20.1403 368.597 28.5803 368.597H142.104C150.671 368.597 157.446 375.857 156.845 384.401L151.111 466.998V466.986Z" fill="#2492EB"/>
<path d="M157.944 383.766C157.944 383.766 157.816 383.789 157.574 383.8C157.296 383.8 156.938 383.823 156.487 383.835C155.492 383.846 154.082 383.87 152.29 383.893C148.602 383.904 143.341 383.927 136.844 383.951C123.802 383.974 105.789 383.823 85.9029 384.286C66.0054 384.945 47.9808 384.829 34.9392 384.633C28.4185 384.529 23.1464 384.401 19.4929 384.297C17.7008 384.24 16.2903 384.193 15.296 384.159C14.8451 384.135 14.4867 384.124 14.2092 384.101C13.9664 384.089 13.8392 384.078 13.8392 384.066C13.8392 384.055 13.9664 384.043 14.2092 384.043C14.4867 384.043 14.8451 384.043 15.296 384.043C16.2903 384.043 17.7008 384.066 19.4929 384.078C23.181 384.112 28.4416 384.159 34.9392 384.228C47.9808 384.32 65.9938 384.367 85.8914 383.696C105.789 383.234 123.814 383.453 136.855 383.534C143.341 383.592 148.613 383.638 152.301 383.673C154.093 383.696 155.504 383.708 156.498 383.719C156.949 383.719 157.308 383.742 157.585 383.742C157.828 383.742 157.955 383.766 157.955 383.777L157.944 383.766Z" fill="#4E4E4E"/>
<path d="M62.4213 369.938C62.456 370.135 58.2476 370.215 53.7732 372.539C49.2642 374.805 46.7322 378.17 46.5934 378.02C46.5356 377.985 47.0906 377.095 48.2468 375.881C49.4029 374.667 51.2181 373.175 53.5073 372.008C55.7965 370.84 58.0742 370.25 59.7275 370.03C61.3923 369.811 62.4329 369.88 62.4329 369.95L62.4213 369.938Z" fill="#4E4E4E"/>
<path d="M117.223 213.474L133.514 243.222L157.377 229.88L168.973 233.707C168.973 233.707 139.699 265.444 134.947 267.063C130.196 268.681 121.201 268.97 116.067 262.542C111.385 256.68 97.7537 225.915 97.7537 225.915L117.223 213.474Z" fill="#FFBE9D"/>
<path d="M184.269 194.051C183.842 193.53 183.183 193.265 182.512 193.357L171.17 194.918C170.176 195.068 169.297 195.646 168.742 196.49L145.18 232.701L146.995 233.719L159.539 233.326L184.628 194.502L184.269 194.062V194.051Z" fill="#4E4E4E"/>
<path d="M176.234 198.756C176.477 198.965 176.905 198.884 177.182 198.56C177.46 198.236 177.495 197.808 177.252 197.589C177.009 197.369 176.581 197.462 176.304 197.785C176.026 198.109 175.992 198.537 176.234 198.756Z" fill="white"/>
<path d="M184.628 194.49C184.628 194.49 183.853 194.687 182.431 194.929C180.894 195.172 178.87 195.484 176.419 195.866C175.136 196.051 173.748 196.259 172.257 196.479C171.54 196.548 170.904 196.918 170.5 197.508C170.06 198.178 169.621 198.883 169.158 199.589C167.297 202.444 165.274 205.578 163.146 208.861C158.857 215.428 154.949 221.359 152.093 225.637C150.706 227.695 149.55 229.395 148.683 230.678C147.862 231.857 147.388 232.505 147.353 232.47C147.319 232.447 147.712 231.753 148.463 230.528C149.284 229.21 150.382 227.475 151.7 225.371C154.452 221.036 158.302 215.058 162.591 208.491C164.742 205.219 166.788 202.098 168.65 199.242C169.124 198.537 169.575 197.843 170.026 197.161C170.523 196.421 171.39 195.958 172.188 195.912C173.679 195.727 175.078 195.542 176.361 195.38C178.824 195.091 180.87 194.848 182.408 194.663C183.842 194.513 184.628 194.444 184.639 194.49H184.628Z" fill="#7A7A7A"/>
<path d="M172.037 207.439C172.037 207.439 171.02 207.254 170.476 210.029C169.922 212.792 168.141 220.735 168.141 220.735L162.846 217.926L156.221 218.793C156.221 218.793 154.776 220.134 155.839 220.851C156.903 221.579 161.088 222.319 161.088 222.319L164.175 226.759L155.308 222.481C155.308 222.481 152.348 223.256 153.215 225.059C154.082 226.863 160.059 232.516 160.059 232.516L155.62 232.181L150.336 228.979C150.336 228.979 148.717 229.048 149.319 230.435C149.92 231.811 155.423 236.806 155.423 236.806L162.083 240.043C162.083 240.043 165.725 239.754 166.072 238.69C166.418 237.627 166.511 236.101 166.511 236.101C166.511 236.101 168.442 235.58 168.8 234.644C169.158 233.707 168.927 232.227 168.927 232.227C168.927 232.227 171.956 232.759 172.338 231.071C172.719 229.383 172.396 226.054 172.095 224.759C171.795 223.464 173.39 211.382 173.263 211.012C173.136 210.642 173.957 206.665 172.06 207.462L172.037 207.439Z" fill="#FFBE9D"/>
<path d="M166.291 238.679C166.314 238.76 165.667 239.037 164.557 239.222C163.447 239.407 161.852 239.419 160.164 239.026C158.476 238.621 157.065 237.893 156.152 237.222C155.238 236.563 154.787 236.02 154.845 235.962C154.972 235.788 157.077 237.615 160.325 238.367C163.551 239.164 166.256 238.482 166.291 238.69V238.679Z" fill="#EB996E"/>
<path d="M164.707 236.297C164.603 236.448 163.424 235.835 162.164 234.794C160.904 233.765 160.06 232.725 160.198 232.598C160.337 232.459 161.366 233.257 162.603 234.274C163.84 235.291 164.823 236.147 164.719 236.297H164.707Z" fill="#EB996E"/>
<path d="M168.222 230.54C168.118 230.69 166.95 230.089 165.771 228.99C164.58 227.903 163.886 226.782 164.037 226.666C164.187 226.551 165.089 227.441 166.233 228.493C167.366 229.545 168.337 230.378 168.222 230.54Z" fill="#EB996E"/>
<path d="M171.898 225.915C171.713 225.996 171.043 224.735 169.991 223.383C168.95 222.007 167.91 221.047 168.025 220.885C168.129 220.735 169.413 221.51 170.523 222.966C171.644 224.412 172.06 225.857 171.887 225.915H171.898Z" fill="#EB996E"/>
<path d="M176.407 440.336C176.407 440.336 176.488 439.943 176.373 439.238C176.257 438.544 175.968 437.527 175.263 436.452C175.078 436.186 174.904 435.908 174.604 435.642C174.326 435.388 173.829 435.192 173.367 435.365C173.135 435.446 172.904 435.654 172.823 435.92C172.731 436.186 172.777 436.452 172.846 436.66C172.997 437.099 173.228 437.411 173.424 437.781C173.852 438.51 174.211 439.227 174.754 440.036C175.032 440.452 175.656 440.799 176.222 440.695C176.789 440.626 177.24 440.348 177.644 440.071C178.431 439.492 179.136 438.845 179.737 438.14C180.038 437.793 180.315 437.435 180.558 437.065C180.789 436.706 181.067 436.336 181.182 435.839C181.286 435.353 181.101 434.718 180.558 434.498C180.003 434.301 179.541 434.579 179.24 434.798C178.604 435.319 178.234 435.862 177.841 436.382C177.113 437.423 176.696 438.371 176.477 439.042C176.257 439.712 176.199 440.094 176.234 440.105C176.35 440.152 176.72 438.614 178.211 436.66C178.581 436.197 179.043 435.631 179.552 435.249C179.818 435.064 180.142 434.937 180.338 435.041C180.546 435.111 180.662 435.434 180.593 435.735C180.523 436.047 180.292 436.382 180.049 436.729C179.807 437.076 179.541 437.411 179.252 437.735C178.673 438.394 178.014 439.007 177.263 439.55C176.905 439.805 176.511 440.024 176.153 440.059C175.783 440.105 175.506 439.955 175.263 439.643C174.8 438.984 174.373 438.163 173.945 437.481C173.737 437.122 173.494 436.776 173.39 436.486C173.274 436.174 173.344 435.966 173.563 435.885C174.06 435.677 174.558 436.244 174.893 436.729C176.303 438.729 176.28 440.394 176.419 440.348L176.407 440.336Z" fill="#4E4E4E"/>
<path d="M148.001 441.308L133.895 471.888L111.131 461.367L125.721 423.526L148.001 441.308Z" fill="#FFBE9D"/>
<path d="M136.555 469.842L128.311 485.566C128.311 485.566 149.411 507.383 147.434 512.262L97.8347 488.479L111.466 456.951L136.566 469.853L136.555 469.842Z" fill="#7A7A7A"/>
<path d="M114.009 476.062C112.923 475.866 111.743 476.629 111.5 477.704C111.258 478.779 112.021 479.993 113.108 480.201C114.194 480.421 115.64 479.542 115.755 478.455C115.871 477.357 114.9 475.993 113.801 476.039" fill="#A7A7A7"/>
<g opacity="0.6">
<path d="M97.8346 488.468L99.8925 484.514L146.671 508.793C146.671 508.793 148.417 510.816 147.422 512.25L97.823 488.468H97.8346Z" fill="white"/>
</g>
<path d="M129.236 485.693C129.109 485.936 127.849 485.462 126.288 485.67C124.716 485.832 123.606 486.595 123.421 486.387C123.224 486.236 124.276 484.953 126.172 484.745C128.068 484.514 129.398 485.496 129.236 485.693Z" fill="#4E4E4E"/>
<path d="M133.41 490.341C133.352 490.607 132.103 490.514 130.797 491.139C129.467 491.728 128.727 492.734 128.484 492.607C128.242 492.538 128.75 491.035 130.404 490.283C132.045 489.52 133.514 490.098 133.41 490.329V490.341Z" fill="#4E4E4E"/>
<path d="M133.375 497.983C133.132 497.925 133.375 496.561 134.635 495.532C135.884 494.491 137.283 494.514 137.283 494.769C137.329 495.035 136.242 495.393 135.225 496.249C134.184 497.081 133.629 498.075 133.375 497.983Z" fill="#4E4E4E"/>
<path d="M131.606 479.635C131.398 479.808 130.45 478.941 129.04 478.374C127.641 477.785 126.357 477.727 126.323 477.461C126.265 477.218 127.733 476.825 129.386 477.507C131.051 478.178 131.814 479.496 131.606 479.635Z" fill="#4E4E4E"/>
<path d="M141.202 465.761L178.385 372.689C178.385 372.689 177.552 356.815 174.627 351.798C171.702 346.78 83.1167 317.529 83.1167 317.529C83.1167 317.529 60.5484 312.095 45.5067 317.529C30.465 322.963 19.1809 341.762 21.2735 352.214C23.3662 362.666 32.1762 370.331 32.1762 370.331L97.326 372.262L132.832 385.211L108.922 453.737L141.202 465.737V465.761Z" fill="#4E4E4E"/>
<path d="M174.28 402.172L175.113 435.828L150.047 436.44L146.44 396.044L174.28 402.172Z" fill="#FFBE9D"/>
<path d="M176.616 432.822L176.153 450.569C176.153 450.569 204.71 460.824 205.092 466.084L150.093 466.639L148.405 432.336L176.616 432.833V432.822Z" fill="#7A7A7A"/>
<path d="M159.123 448.349C158.059 448.649 157.343 449.852 157.597 450.927C157.851 452.002 159.077 452.742 160.14 452.465C161.204 452.187 162.117 450.765 161.747 449.725C161.366 448.684 159.898 447.886 158.926 448.418" fill="#A7A7A7"/>
<g opacity="0.6">
<path d="M150.082 466.628L150.186 462.165L202.884 463.298C202.884 463.298 205.346 464.338 205.08 466.061L150.082 466.616V466.628Z" fill="white"/>
</g>
<path d="M177.043 450.28C177.043 450.546 175.691 450.684 174.384 451.563C173.043 452.407 172.384 453.575 172.13 453.471C171.887 453.424 172.268 451.806 173.875 450.777C175.471 449.725 177.101 450.037 177.043 450.28Z" fill="#4E4E4E"/>
<path d="M182.836 452.603C182.905 452.858 181.738 453.332 180.836 454.476C179.899 455.598 179.68 456.823 179.414 456.812C179.159 456.858 178.963 455.286 180.107 453.887C181.24 452.476 182.824 452.349 182.824 452.603H182.836Z" fill="#4E4E4E"/>
<path d="M186.177 459.471C185.934 459.529 185.541 458.188 186.223 456.719C186.882 455.239 188.143 454.638 188.27 454.869C188.42 455.089 187.611 455.887 187.079 457.112C186.512 458.326 186.455 459.459 186.189 459.482L186.177 459.471Z" fill="#4E4E4E"/>
<path d="M176.489 443.793C176.373 444.036 175.147 443.678 173.621 443.793C172.107 443.886 170.928 444.406 170.789 444.175C170.627 443.978 171.771 442.973 173.564 442.857C175.356 442.73 176.616 443.574 176.489 443.782V443.793Z" fill="#4E4E4E"/>
<path d="M159.643 308.707C159.643 308.707 174.662 307.505 176.338 323.807C178.015 340.109 179.656 416.161 179.656 416.161L144.555 419.086L139.121 341.369L83.1283 317.552C83.1283 317.552 149.619 306.638 159.655 308.719L159.643 308.707Z" fill="#4E4E4E"/>
<path d="M97.7306 286.717C97.7306 286.717 106.841 312.28 105.107 315.124C103.373 317.968 79.9257 329.692 79.9257 329.692L21.2735 352.214C21.2735 352.214 15.2499 342.629 15.2499 327.911C15.2499 313.193 35.6562 286.706 35.6562 286.706H97.7306V286.717Z" fill="#4E4E4E"/>
<path d="M80.3419 316.234C80.3419 316.234 80.4344 316.292 80.6194 316.384C80.8391 316.488 81.105 316.616 81.4518 316.766C82.2265 317.113 83.3133 317.598 84.7007 318.211C87.5795 319.471 91.7186 321.263 96.8982 323.518C107.361 328.027 122.022 334.339 138.994 341.635L138.809 341.369C139.341 349.046 139.919 357.336 140.509 365.914C141.931 385.962 143.249 404.461 144.289 419.086L144.312 419.352L144.578 419.329C155.25 418.393 164.013 417.618 170.153 417.086C173.17 416.809 175.54 416.577 177.194 416.427C177.968 416.346 178.581 416.277 179.032 416.231C179.448 416.184 179.656 416.15 179.656 416.138C179.656 416.126 179.437 416.138 179.021 416.15C178.57 416.173 177.957 416.219 177.171 416.265C175.517 416.392 173.136 416.566 170.118 416.786C163.979 417.271 155.215 417.965 144.532 418.809L144.81 419.052C143.804 404.415 142.532 385.928 141.156 365.868C140.555 357.289 139.965 349 139.433 341.323V341.126L139.248 341.057C122.241 333.842 107.546 327.599 97.06 323.148C91.8573 320.963 87.6951 319.217 84.7931 318.003C83.3826 317.425 82.2843 316.974 81.5096 316.65C81.1512 316.511 80.8738 316.396 80.6541 316.315C80.4575 316.246 80.365 316.211 80.3535 316.222L80.3419 316.234Z" fill="#7A7A7A"/>
<path d="M33.6905 318.789C33.6905 318.789 34.2917 318.674 35.3323 318.338C36.5 317.968 37.9799 317.483 39.7488 316.916C43.4717 315.737 48.6397 314.084 54.5246 313.182C60.4095 312.268 65.855 312.557 69.6588 313.378C73.4741 314.165 75.6708 315.263 75.7171 315.136C75.7287 315.101 75.1968 314.8 74.191 314.361C73.1851 313.922 71.6705 313.39 69.7513 312.927C65.9244 311.979 60.3748 311.621 54.4206 312.534C48.4663 313.448 43.2867 315.182 39.587 316.477C37.7371 317.136 36.2572 317.691 35.2282 318.096C34.2108 318.5 33.6559 318.743 33.6674 318.789H33.6905Z" fill="#7A7A7A"/>
<path d="M41.9802 305.32C41.9918 305.424 43.9457 305.042 47.1136 305.285C48.6975 305.401 50.5705 305.632 52.6632 305.875C54.7558 306.129 57.045 306.407 59.4267 306.858C64.1901 307.702 68.2945 309.367 70.919 311.124C73.5666 312.847 74.8153 314.419 74.9078 314.338C74.9309 314.315 74.665 313.899 74.0522 313.24C73.4394 312.581 72.5029 311.667 71.1734 310.754C68.5604 308.858 64.3636 307.089 59.5424 306.233C57.1375 305.782 54.8252 305.517 52.7325 305.297C50.6399 305.089 48.7438 304.892 47.1367 304.834C45.5296 304.777 44.2232 304.869 43.3445 305.008C42.4543 305.147 41.9802 305.297 41.9918 305.332L41.9802 305.32Z" fill="#7A7A7A"/>
<path d="M67.89 99.9272C61.138 98.7826 55.2068 101.384 49.5185 105.188C43.8302 108.992 39.5408 114.738 37.0666 121.12C34.4653 127.849 33.8294 135.41 35.8295 142.335C37.8297 149.261 42.5815 155.458 49.0098 158.73C57.7851 163.192 69.023 161.632 76.8734 155.701C84.7237 149.758 89.2212 139.942 89.5912 130.103C89.8455 123.328 88.2269 116.391 84.4462 110.76C80.654 105.13 74.6073 100.921 67.9015 99.9388" fill="#4E4E4E"/>
<path d="M48.6977 122.877C49.6805 120.299 49.2989 117.409 49.692 114.68C50.5476 108.656 55.4035 103.824 61.0224 101.477C66.2483 99.2915 72.6303 99.7655 78.9199 101.8C83.2324 103.199 87.2905 105.627 90.1693 109.13C93.9847 113.778 95.3258 120.357 93.6494 126.126L62.8145 121.64C59.9241 124.033 56.9759 126.461 53.4727 127.791C52.4437 128.184 51.3454 128.473 50.2586 128.3C49.1718 128.126 48.1197 127.386 47.8653 126.323C47.5878 125.155 48.2815 124.01 48.7093 122.889L48.6977 122.877Z" fill="#4E4E4E"/>
<path d="M79.5789 110.31L52.6634 116.01C50.062 116.183 48.0156 118.322 47.9694 120.935L48.2931 179.194C48.3162 183.171 49.6458 187.033 52.0853 190.178L54.652 193.484C60.5022 201.034 72.3644 200.271 76.8272 191.831C77.1394 191.241 77.359 190.721 77.4515 190.305C77.544 189.785 77.6828 189.438 77.7059 188.987L78.2146 183.31C78.4805 178.119 78.5152 172.858 78.5152 172.905C78.5152 172.905 89.5334 171.517 92.3545 157.319C93.7534 150.255 93.8575 138.601 93.6263 129.063C93.4182 120.473 88.1461 109.743 79.5789 110.31Z" fill="#FFBE9D"/>
<path d="M89.5333 139.989C89.5333 140.96 88.7125 141.758 87.695 141.769C86.6892 141.781 85.8683 141.018 85.8683 140.046C85.8683 139.075 86.6892 138.278 87.7066 138.266C88.7125 138.254 89.5333 139.018 89.5333 139.989Z" fill="#4E4E4E"/>
<path d="M90.8629 135.017C90.6317 135.248 89.279 134.161 87.3135 134.092C85.348 133.988 83.8566 134.948 83.66 134.705C83.5559 134.589 83.8103 134.173 84.4578 133.734C85.0936 133.306 86.1689 132.901 87.3944 132.947C88.6199 133.005 89.6374 133.491 90.2155 133.976C90.8051 134.462 90.9901 134.901 90.8745 135.005L90.8629 135.017Z" fill="#4E4E4E"/>
<path d="M71.8669 139.549C71.8669 140.52 71.0461 141.318 70.0286 141.329C69.0228 141.341 68.2019 140.578 68.2019 139.607C68.2019 138.636 69.0228 137.838 70.0402 137.826C71.0461 137.815 71.8669 138.578 71.8669 139.549Z" fill="#4E4E4E"/>
<path d="M72.1561 134.543C71.9133 134.774 70.5721 133.687 68.5951 133.618C66.6296 133.514 65.1382 134.474 64.9416 134.231C64.8376 134.115 65.0919 133.699 65.7394 133.26C66.3753 132.832 67.4505 132.427 68.676 132.473C69.9016 132.531 70.919 133.017 71.4971 133.502C72.0867 133.988 72.2717 134.427 72.1561 134.531V134.543Z" fill="#4E4E4E"/>
<path d="M78.0639 149.527C78.0639 149.411 79.2895 149.249 81.2896 149.076C81.7983 149.041 82.2724 148.96 82.3764 148.625C82.5036 148.266 82.3186 147.711 82.0989 147.122C81.6712 145.885 81.2318 144.59 80.7578 143.237C78.9079 137.699 77.5783 133.155 77.8096 133.086C78.0293 133.017 79.7172 137.445 81.5787 142.983C82.018 144.347 82.4458 145.654 82.8505 146.891C83.0239 147.469 83.3245 148.128 83.0354 148.879C82.8851 149.249 82.5036 149.504 82.1799 149.584C81.8562 149.665 81.5671 149.665 81.3243 149.665C79.3241 149.7 78.0871 149.665 78.0755 149.55L78.0639 149.527Z" fill="#4E4E4E"/>
<path d="M78.5265 172.904C78.5265 172.904 68.8957 173.147 59.6001 167.066C59.6001 167.066 64.0282 177.136 78.3762 176.361L78.5381 172.916L78.5265 172.904Z" fill="#EB996E"/>
<path d="M77.0466 154.244C76.3761 153.284 75.1505 152.718 73.9134 152.799C73.0579 152.856 72.1792 153.238 71.6242 153.909C71.0808 154.579 70.9305 155.573 71.3814 156.256C71.8786 157.019 72.9885 157.238 73.9366 157.007C74.8846 156.776 75.7171 156.186 76.5148 155.597C76.7345 155.435 76.9542 155.261 77.1045 155.03C77.2432 154.799 77.2894 154.498 77.1276 154.302" fill="#EB996E"/>
<path d="M72.214 150.672C72.5377 150.672 72.4568 152.811 74.2257 154.394C75.9947 155.99 78.2839 155.84 78.2839 156.14C78.307 156.279 77.7636 156.533 76.7924 156.522C75.8444 156.522 74.4801 156.163 73.3933 155.192C72.3065 154.221 71.8787 152.961 71.844 152.071C71.7978 151.169 72.0521 150.649 72.2024 150.672H72.214Z" fill="#4E4E4E"/>
<path d="M72.0406 128.693C71.821 129.225 69.8671 128.889 67.5432 129.074C65.2193 129.213 63.3232 129.826 63.0341 129.329C62.9069 129.097 63.2538 128.6 64.0284 128.115C64.7915 127.629 66.0055 127.178 67.4044 127.074C68.8034 126.982 70.0636 127.248 70.8845 127.618C71.7169 127.988 72.1331 128.427 72.0406 128.681V128.693Z" fill="#4E4E4E"/>
<path d="M90.6318 126.381C90.2734 126.82 88.9323 126.3 87.2905 126.207C85.6603 126.069 84.2614 126.392 83.9608 125.907C83.8336 125.675 84.0648 125.236 84.6892 124.831C85.3019 124.427 86.3078 124.126 87.4293 124.207C88.5507 124.288 89.5104 124.727 90.0538 125.213C90.6087 125.699 90.7821 126.161 90.6203 126.381H90.6318Z" fill="#4E4E4E"/>
<path d="M43.7609 118.726C46.5473 110.529 58.7332 99.3607 67.3582 100.135L80.9894 108.679C80.0645 113.362 76.3532 117.385 71.7516 118.68C69.3006 119.374 66.3523 119.524 64.8609 121.582C63.3348 123.698 64.1441 126.831 62.722 129.005C60.7565 132.022 55.5307 131.78 54.0392 135.063C53.3802 136.497 53.6808 138.231 52.9987 139.653C52.0968 141.549 47.2063 143.873 45.2177 143.202C43.2291 142.532 43.2869 139.121 42.6741 137.318C41.622 134.242 42.1076 132.67 42.5123 130.97C43.4603 126.947 42.4429 122.623 43.7725 118.715L43.7609 118.726Z" fill="#4E4E4E"/>
<path d="M51.0909 145.018C51.1256 143.954 49.9926 141.399 48.952 141.191C46.1656 140.647 41.1017 140.671 40.7779 147.793C40.3386 157.527 50.2007 155.967 50.2353 155.689C50.2585 155.47 50.9637 148.694 51.0909 145.018Z" fill="#FFBE9D"/>
<path d="M47.4258 151.862C47.4258 151.862 47.2523 151.978 46.9633 152.094C46.6743 152.209 46.1887 152.278 45.6915 152.059C44.6857 151.631 43.8879 149.966 43.9226 148.209C43.9342 147.319 44.1654 146.486 44.5122 145.804C44.836 145.11 45.3216 144.625 45.8418 144.555C46.3621 144.463 46.7089 144.787 46.8246 145.064C46.9402 145.342 46.8708 145.538 46.9286 145.55C46.9517 145.573 47.1483 145.399 47.0789 144.995C47.0442 144.798 46.9402 144.567 46.7205 144.37C46.5008 144.174 46.154 144.058 45.7956 144.081C45.0441 144.104 44.3388 144.763 43.9573 145.515C43.5411 146.266 43.2636 147.203 43.252 148.197C43.2289 150.163 44.1423 152.047 45.5297 152.51C46.2002 152.718 46.7899 152.544 47.0905 152.325C47.4026 152.094 47.4605 151.885 47.4258 151.862Z" fill="#EB996E"/>
<path d="M41.6797 116.194C41.7144 113.154 37.9106 111.154 34.9393 110.471C31.9679 109.778 28.8347 110.68 26.164 112.148C24.6032 113.003 23.0308 114.217 22.6839 115.975C22.3371 117.721 24.0135 119.802 25.6784 119.177C22.4874 120.276 20.8572 124.542 22.5221 127.479C24.187 130.415 28.6844 131.225 31.2627 129.051C30.4302 131.837 28.6151 134.323 26.1987 135.965C31.2049 136.682 36.5232 134.543 39.6449 130.554C42.7665 126.577 43.5643 120.9 41.6682 116.206L41.6797 116.194Z" fill="#4E4E4E"/>
<path d="M34.9276 131.687C34.8583 131.687 34.5923 130.589 34.5692 128.762C34.5345 126.935 34.8005 124.392 35.6907 121.733C36.5925 119.085 37.9105 116.888 39.0551 115.455C40.1882 114.021 41.0669 113.293 41.1131 113.35C41.2981 113.478 38.0262 116.715 36.3035 121.929C34.5114 127.132 35.1589 131.676 34.9392 131.676L34.9276 131.687Z" fill="#2492EB"/>
<path d="M78.1567 105.731C79.047 109.697 85.0821 114.772 87.7182 117.859C92.7591 123.744 93.7534 125.698 93.7071 138.867C96.0888 134.323 97.9155 129.872 97.7306 124.739C97.5456 119.605 95.661 114.472 92.0885 110.784C88.5275 107.095 83.2323 105.003 78.1451 105.731" fill="#4E4E4E"/>
<path d="M119.455 214.052C119.455 214.052 108.968 196.559 106.055 193.021C103.326 189.703 99.8116 187.749 97.4646 186.72C96.1581 186.154 94.7822 185.761 93.3833 185.518L78.2954 182.177C78.2954 182.177 78.2722 192.478 67.4737 193.114C56.6866 193.75 47.5992 178.72 47.5992 178.72C47.5992 178.72 30.1643 181.414 25.9905 183.564C21.8167 185.715 15.2613 188.432 11.6541 206.502L9.12207 224.169L39.1823 226.943L42.0612 271.606L56.9641 281.988C56.9641 281.988 98.297 292.729 100.933 293.446C103.569 294.151 104.448 226.943 104.448 226.943C104.448 226.943 115.061 220.076 119.455 214.064V214.052Z" fill="#4E4E4E"/>
<path d="M99.6612 206.537C99.6612 206.537 99.904 206.976 100.239 207.82C100.586 208.664 101.026 209.901 101.511 211.451C102.494 214.549 103.569 218.931 104.17 223.868C104.771 228.805 104.783 233.314 104.587 236.563C104.482 238.181 104.367 239.499 104.228 240.389C104.101 241.291 104.02 241.788 103.974 241.777C103.927 241.777 103.939 241.268 103.997 240.366C104.055 239.464 104.112 238.158 104.159 236.539C104.251 233.314 104.159 228.839 103.581 223.937C102.979 219.047 101.974 214.688 101.106 211.566C100.679 210.005 100.297 208.757 100.02 207.89C99.7537 207.023 99.6266 206.537 99.6612 206.525V206.537Z" fill="#7A7A7A"/>
<path d="M98.3779 279.711L41.7837 267.386L39.1708 226.932L14.0011 224.608C14.0011 224.608 14.9376 252.263 15.8972 260.484C17.2846 272.311 24.2794 288.44 28.3722 291.665C32.465 294.891 100.921 293.434 100.921 293.434L98.3779 279.699V279.711Z" fill="#FFBE9D"/>
<path d="M130.508 287.041C130.115 287.827 129.282 288.347 128.403 288.266C128.23 288.255 128.045 288.22 127.86 288.151C126.611 287.746 126.727 285.203 126.727 285.203L120.727 284.22C120.727 284.22 112.922 289.249 110.148 292.579C107.373 295.909 100.297 293.215 100.297 293.215L97.8461 280.428L108.887 270.438C108.887 270.438 108.205 271.028 108.968 269.167C109.731 267.294 113.2 268.01 113.2 268.01C113.743 267.085 116.009 266.762 116.009 266.762L125.698 267.883C127.698 268.114 129.479 269.236 130.554 270.935L134.647 277.422C134.647 277.422 136.809 282.092 136.462 283.179C135.942 284.821 134.207 284.451 134.207 284.451C134.207 284.451 133.733 287.515 132.924 287.63C132.115 287.735 130.531 287.052 130.531 287.052L130.508 287.041Z" fill="#FFBE9D"/>
<path d="M109.893 277.861C109.893 277.965 111.188 277.838 113.258 277.93C115.316 278.034 118.172 278.393 121.166 279.41C122.657 279.907 124.033 280.52 125.236 281.156C126.403 281.815 127.629 282.358 127.999 283.214C128.184 283.63 128.103 284.058 127.895 284.37C127.687 284.682 127.409 284.89 127.166 284.983C126.658 285.191 126.334 285.052 126.322 285.11C126.299 285.122 126.623 285.376 127.247 285.214C127.548 285.133 127.895 284.925 128.184 284.567C128.473 284.22 128.635 283.607 128.415 283.052C128.207 282.486 127.721 282.046 127.213 281.688C126.681 281.341 126.137 280.994 125.513 280.659C124.299 279.977 122.889 279.341 121.363 278.832C118.31 277.792 115.374 277.491 113.269 277.503C111.165 277.526 109.882 277.803 109.893 277.872V277.861Z" fill="#EB996E"/>
<path d="M109.223 284.035C109.223 284.22 113.177 284.058 118.021 284.335C122.866 284.601 126.762 285.214 126.797 285.029C126.808 284.948 125.849 284.694 124.276 284.416C122.704 284.139 120.507 283.861 118.056 283.723C115.616 283.584 113.397 283.619 111.801 283.723C110.206 283.815 109.223 283.965 109.223 284.046V284.035Z" fill="#EB996E"/>
<path d="M130.45 286.787C130.45 286.787 130.531 286.428 130.577 285.758C130.612 285.087 130.658 284.127 130.577 282.925C130.531 282.324 130.473 281.665 130.311 280.959C130.161 280.254 129.826 279.503 129.363 278.844C128.496 277.526 127.282 276.15 125.733 275.132C124.195 274.115 122.657 273.259 121.097 272.797C119.547 272.334 118.102 272.219 116.911 272.161C115.709 272.115 114.749 272.15 114.079 272.161C113.408 272.184 113.05 272.219 113.05 272.265C113.05 272.369 114.53 272.415 116.888 272.589C118.067 272.693 119.466 272.855 120.923 273.329C122.38 273.791 123.883 274.658 125.374 275.63C126.866 276.624 127.999 277.884 128.889 279.156C129.826 280.381 129.999 281.78 130.149 282.948C130.381 285.295 130.323 286.787 130.462 286.775L130.45 286.787Z" fill="#EB996E"/>
<path d="M116.46 269.224C116.46 269.317 117.906 269.352 120.218 269.618C122.449 269.964 126.01 270.126 128.045 273.19C130.242 275.988 132.115 278.624 132.936 280.786C133.803 282.937 133.722 284.428 133.849 284.416C133.884 284.416 133.942 284.046 133.907 283.387C133.884 282.728 133.733 281.757 133.34 280.636C132.6 278.347 130.739 275.618 128.531 272.809C127.964 272.103 127.351 271.433 126.646 270.901C125.941 270.358 125.12 270.045 124.368 269.826C122.842 269.398 121.432 269.271 120.264 269.178C117.917 269.016 116.46 269.144 116.46 269.213V269.224Z" fill="#EB996E"/>
<path d="M112.264 290.521C112.264 290.521 112.472 290.382 112.842 290.082C113.258 289.746 113.79 289.319 114.46 288.775C115.894 287.665 118.021 286.093 120.819 284.393L120.68 284.416C122.472 284.717 124.484 285.064 126.669 285.434L126.461 285.179C126.45 285.665 126.473 286.151 126.577 286.648C126.681 287.133 126.831 287.665 127.259 288.093C127.479 288.301 127.791 288.428 128.057 288.463C128.323 288.532 128.612 288.555 128.901 288.509C129.467 288.428 130.011 288.128 130.392 287.688C130.485 287.584 130.577 287.457 130.658 287.33L130.716 287.237L130.739 287.191V287.168H130.751C130.832 287.133 130.08 287.411 130.404 287.295H130.415L130.6 287.376C130.855 287.48 131.109 287.573 131.375 287.654C131.641 287.735 131.907 287.804 132.196 287.862C132.335 287.885 132.485 287.908 132.647 287.908C132.797 287.908 132.97 287.908 133.202 287.804C133.537 287.561 133.664 287.284 133.791 287.006C133.907 286.729 134.011 286.463 134.092 286.185C134.254 285.63 134.381 285.075 134.473 284.486L134.127 284.729C134.901 284.867 135.826 284.682 136.358 283.965C136.601 283.63 136.797 283.226 136.774 282.763C136.751 282.347 136.659 281.977 136.566 281.607C136.15 280.139 135.549 278.728 134.913 277.294L134.901 277.26C134.208 276.161 133.468 274.982 132.716 273.803C132.254 273.063 131.791 272.334 131.329 271.606C130.866 270.901 130.462 270.115 129.814 269.479C129.19 268.854 128.45 268.357 127.641 268.034C126.843 267.687 125.953 267.606 125.166 267.525C121.952 267.166 118.9 266.82 116.033 266.496H115.998H115.963C115.397 266.588 114.877 266.727 114.368 266.912C113.871 267.12 113.339 267.34 112.98 267.883L113.316 267.779C112.287 267.363 111.107 267.351 110.206 267.953C109.304 268.542 108.888 269.502 108.668 270.404L108.737 270.277C105.569 273.132 102.98 275.456 101.13 277.121C100.274 277.907 99.592 278.532 99.0833 279.006C98.6208 279.445 98.378 279.676 98.4012 279.699C98.4127 279.711 98.6786 279.514 99.1758 279.11C99.7076 278.659 100.424 278.057 101.303 277.318C103.188 275.687 105.824 273.421 109.049 270.623L109.107 270.577L109.13 270.496C109.338 269.698 109.743 268.831 110.483 268.369C111.211 267.883 112.252 267.895 113.108 268.253L113.316 268.346L113.443 268.149C113.651 267.825 114.113 267.583 114.576 267.409C115.038 267.236 115.559 267.109 116.067 267.028H115.998C118.854 267.363 121.918 267.721 125.12 268.103C125.941 268.195 126.704 268.265 127.432 268.589C128.161 268.878 128.831 269.328 129.398 269.895C129.964 270.45 130.358 271.19 130.832 271.918C131.294 272.647 131.745 273.375 132.219 274.115C132.97 275.294 133.71 276.474 134.404 277.572L134.381 277.537C135.017 278.936 135.607 280.347 136.011 281.746C136.104 282.093 136.196 282.451 136.208 282.763C136.242 283.041 136.104 283.341 135.919 283.584C135.572 284.081 134.867 284.231 134.277 284.139L133.976 284.093L133.93 284.382C133.838 284.925 133.722 285.48 133.572 286C133.433 286.497 133.213 287.099 132.947 287.295C132.936 287.295 132.832 287.33 132.705 287.318C132.589 287.318 132.462 287.295 132.335 287.284C132.08 287.237 131.837 287.18 131.583 287.099C131.329 287.018 131.086 286.937 130.843 286.844L130.67 286.775C130.982 286.659 130.242 286.937 130.311 286.902V286.925L130.288 286.96L130.242 287.041C130.184 287.133 130.115 287.237 130.034 287.318C129.733 287.665 129.317 287.908 128.878 287.977C128.658 288.012 128.438 288 128.219 287.943C127.976 287.908 127.826 287.839 127.675 287.711C127.109 287.122 127.028 286.058 127.016 285.203V284.983L126.808 284.948C124.623 284.601 122.6 284.289 120.808 284.012H120.727L120.669 284.035C117.859 285.804 115.767 287.434 114.379 288.59C113.686 289.18 113.165 289.654 112.819 289.978C112.472 290.313 112.31 290.486 112.321 290.498L112.264 290.521Z" fill="#EB996E"/>
<path d="M203.936 249.847L129.386 250.448C126.97 250.448 124.658 251.604 124.299 253.998L116.148 308.326H77.7521C76.515 308.326 75.5092 309.332 75.5092 310.569C75.5092 311.806 76.515 312.812 77.7521 312.812H200.386L208.769 255.466C209.22 252.506 206.93 249.847 203.936 249.847Z" fill="#A7A7A7"/>
<path d="M203.936 249.847C203.936 249.847 204.34 249.801 205.115 249.963C205.867 250.136 207.034 250.598 207.959 251.847C208.422 252.46 208.769 253.281 208.884 254.229C209.011 255.188 208.734 256.206 208.607 257.293C208.294 259.489 207.936 262.021 207.531 264.854C205.89 276.242 203.531 292.66 200.618 312.846L200.594 313.043H200.398C168.661 313.066 126.958 313.089 81.4171 313.112H78.2145C77.7173 313.135 77.0352 313.112 76.5149 312.789C75.9831 312.499 75.5784 312.014 75.3703 311.447C74.9194 310.314 75.4628 308.915 76.5265 308.349C77.0352 308.037 77.7173 308.014 78.2029 308.037H79.7753C83.9722 308.037 88.1344 308.037 92.2388 308.037C100.448 308.037 108.437 308.037 116.148 308.037L115.859 308.28C118.796 288.821 121.524 270.669 123.987 254.379C124.068 253.35 124.542 252.229 125.363 251.535C126.172 250.818 127.201 250.437 128.219 250.275C129.259 250.113 130.242 250.205 131.225 250.171C132.207 250.171 133.179 250.159 134.15 250.148C138.023 250.124 141.769 250.101 145.376 250.067C152.59 250.02 159.262 249.974 165.32 249.939C177.425 249.882 187.067 249.824 193.715 249.789C197.022 249.789 199.565 249.789 201.311 249.778C202.167 249.778 202.814 249.778 203.277 249.778C203.716 249.778 203.947 249.801 203.947 249.801C203.947 249.801 203.728 249.824 203.277 249.835C202.814 249.835 202.167 249.859 201.311 249.882C199.565 249.905 197.01 249.939 193.715 249.986C187.067 250.055 177.425 250.171 165.32 250.298C159.262 250.356 152.59 250.425 145.376 250.494C141.769 250.529 138.023 250.564 134.15 250.598C133.179 250.598 132.207 250.622 131.225 250.622C130.242 250.656 129.236 250.575 128.288 250.726C127.34 250.876 126.403 251.234 125.687 251.87C124.958 252.506 124.565 253.396 124.473 254.414C122.045 270.704 119.339 288.856 116.426 308.326L116.391 308.569H116.137C108.437 308.569 100.436 308.569 92.2272 308.569C88.1228 308.569 83.9722 308.569 79.7637 308.569H78.1914C77.6364 308.557 77.2202 308.569 76.804 308.811C75.9831 309.239 75.5784 310.303 75.9253 311.17C76.0871 311.598 76.3993 311.979 76.804 312.199C77.2202 312.442 77.6364 312.465 78.2029 312.442C79.2666 312.442 80.3303 312.442 81.4055 312.442C126.947 312.465 168.65 312.499 200.386 312.511L200.155 312.708C203.15 292.533 205.577 276.127 207.266 264.75C207.693 261.906 208.075 259.385 208.399 257.189C208.526 256.09 208.815 255.084 208.699 254.171C208.607 253.258 208.271 252.46 207.832 251.859C206.953 250.622 205.809 250.148 205.08 249.963C204.329 249.778 203.924 249.812 203.924 249.789L203.936 249.847Z" fill="#4E4E4E"/>
<path d="M163.505 285.318C166.084 285.318 168.176 283.227 168.176 280.647C168.176 278.068 166.084 275.976 163.505 275.976C160.925 275.976 158.834 278.068 158.834 280.647C158.834 283.227 160.925 285.318 163.505 285.318Z" fill="white"/>
<path d="M119.177 312.315C119.282 312.338 121.652 298.498 124.473 281.422C127.294 264.334 129.49 250.471 129.386 250.46C129.282 250.437 126.912 264.276 124.091 281.364C121.27 298.441 119.073 312.303 119.177 312.326V312.315Z" fill="#4E4E4E"/>
</svg>
