<svg width="495" height="509" viewBox="0 0 495 509" fill="none" xmlns="http://www.w3.org/2000/svg">
<g clip-path="url(#clip0_1405_24342)">
<path d="M68.117 70.9914L124.862 186.478C126.06 188.907 125.056 191.85 122.627 193.036C120.197 194.234 117.254 193.23 116.068 190.801L59.3115 75.3143C58.1139 72.8848 59.1176 69.942 61.5471 68.7558C63.9766 67.5581 66.9193 68.5619 68.1056 70.9914H68.117Z" fill="#A7A7A7"/>
<path d="M108.228 154.993L119.919 178.783L125.866 175.86L114.175 152.07L108.228 154.993Z" fill="#A7A7A7"/>
<path d="M107.171 141.914C108.289 144.195 107.354 146.944 105.073 148.062L96.2785 152.385C93.9973 153.503 91.2484 152.568 90.1307 150.286C89.0129 148.005 89.9482 145.256 92.2294 144.138L101.023 139.816C103.305 138.698 106.054 139.633 107.171 141.914Z" fill="#A7A7A7"/>
<path d="M126.071 180.877L138.344 174.844L135.15 168.342L129.014 171.353L127.006 167.27L133.143 164.259L127.885 153.56L123.573 155.67L121.566 151.587L125.877 149.477L122.695 143.009L110.422 149.032L126.071 180.877Z" fill="#A7A7A7"/>
<path d="M53.5319 72.6899L58.4718 82.7424L75.8949 74.1806L70.9549 64.128L53.5319 72.6899Z" fill="#A7A7A7"/>
<path d="M34.9482 37.9937C35.1421 38.3929 35.3702 38.7693 35.6097 39.1343C26.7016 44.5864 23.2455 56.0266 27.9448 65.5849C32.9293 75.7249 45.1794 79.8995 55.3194 74.9265L70.6947 67.3757C80.8347 62.3912 85.0093 50.1411 80.0363 40.0011C75.2686 30.2946 63.8283 26.0515 53.9621 30.0893C53.8252 29.6901 53.6655 29.2909 53.4716 28.9031C50.9623 23.7931 44.7802 21.683 39.6703 24.1923C34.5604 26.7017 32.4502 32.8838 34.9596 37.9937H34.9482ZM56.8934 37.2637C63.1667 34.1841 70.7518 36.7618 73.8314 43.0352C76.911 49.3085 74.3333 56.8935 68.0599 59.9731C64.7294 61.6156 61.0224 61.6498 57.8287 60.3838C56.8706 63.6915 54.578 66.6001 51.2474 68.2311C44.9741 71.3108 37.3891 68.733 34.3094 62.4597C31.2298 56.1863 33.8076 48.6013 40.0809 45.5217C43.4115 43.8792 47.1184 43.845 50.3121 45.1111C51.2702 41.8033 53.5628 38.8948 56.8934 37.2637ZM48.3161 30.6824C49.5137 33.1119 48.51 36.0546 46.0805 37.2523C43.651 38.4499 40.7082 37.4462 39.5106 35.0167C38.3129 32.5872 39.3167 29.6444 41.7462 28.4468C44.1757 27.2492 47.1184 28.2529 48.3161 30.6824Z" fill="#A7A7A7"/>
<path d="M431.943 415.1L461.574 269.719C462.077 267.25 460.483 264.841 458.014 264.337L456.025 263.932C453.556 263.429 451.146 265.022 450.643 267.491L421.012 412.872C420.509 415.341 422.103 417.751 424.572 418.254L426.561 418.659C429.03 419.163 431.439 417.569 431.943 415.1Z" fill="#A7A7A7"/>
<path d="M443.536 308.386L449.556 278.847L442.169 277.341L436.148 306.88L443.536 308.386Z" fill="#A7A7A7"/>
<path d="M456.311 326.067L456.689 324.212C457.162 321.898 455.668 319.639 453.353 319.166L440.579 316.561C438.265 316.088 436.006 317.582 435.533 319.897L435.155 321.752C434.683 324.066 436.176 326.325 438.491 326.798L451.265 329.403C453.58 329.876 455.839 328.382 456.311 326.067Z" fill="#A7A7A7"/>
<path d="M445.452 272.65L430.214 269.537L428.56 277.624L436.19 279.175L435.152 284.239L427.533 282.688L424.819 295.976L430.168 297.071L429.13 302.135L423.792 301.052L422.149 309.081L437.388 312.184L445.452 272.65Z" fill="#A7A7A7"/>
<path d="M435.512 420.494L438.057 408.01L416.431 403.602L413.886 416.086L435.512 420.494Z" fill="#A7A7A7"/>
<path d="M428.092 464.603C428.195 464.101 428.263 463.611 428.297 463.12C440.114 464.409 451.178 456.516 453.596 444.642C456.162 432.05 448.041 419.766 435.449 417.199L416.367 413.31C403.774 410.744 391.49 418.865 388.924 431.457C386.471 443.513 393.817 455.284 405.497 458.512C405.348 458.968 405.212 459.436 405.12 459.915C403.831 466.257 407.926 472.45 414.268 473.751C420.61 475.04 426.803 470.945 428.103 464.603H428.092ZM407.835 450.003C400.045 448.418 395.015 440.81 396.611 433.02C398.197 425.229 405.805 420.199 413.595 421.796C417.735 422.64 421.089 425.184 423.096 428.548C426.256 426.233 430.339 425.218 434.479 426.062C442.27 427.647 447.3 435.255 445.703 443.046C444.118 450.836 436.51 455.866 428.719 454.269C424.579 453.425 421.226 450.882 419.218 447.517C416.059 449.832 411.975 450.847 407.835 450.003ZM410.983 461.888C411.599 458.866 414.542 456.915 417.564 457.531C420.587 458.147 422.537 461.09 421.921 464.113C421.305 467.135 418.363 469.086 415.34 468.47C412.318 467.854 410.367 464.911 410.983 461.888Z" fill="#A7A7A7"/>
<path d="M420.283 33.4603L409.926 33.5164L410.205 85.0482L420.562 84.9921L420.283 33.4603Z" fill="#A7A7A7"/>
<path d="M347.012 33.5832L320.197 33.7283L320.351 62.1746L347.166 62.0295L347.012 33.5832Z" fill="#F4F4F4"/>
<path d="M373.702 33.4501L346.886 33.5952L347.04 62.0415L373.855 61.8964L373.702 33.4501Z" fill="white"/>
<path d="M320.236 41.6094C338.064 41.7577 355.926 41.655 373.742 41.3584C374.107 41.3584 374.107 40.7881 373.742 40.7881C355.915 40.6855 338.053 40.7881 320.236 41.1189C319.917 41.1189 319.928 41.6094 320.236 41.6094Z" fill="#A7A7A7"/>
<path d="M352.206 61.5682L303.48 61.8318L303.605 85.02L352.331 84.7563L352.206 61.5682Z" fill="#F4F4F4"/>
<path d="M400.702 61.3057L351.976 61.5693L352.102 84.7575L400.827 84.4939L400.702 61.3057Z" fill="white"/>
<path d="M303.515 68.2996C335.886 68.6646 368.37 68.3338 400.74 67.8206C401.105 67.8206 401.105 67.2503 400.74 67.2503C368.37 67.0792 335.885 67.102 303.527 67.8092C303.207 67.8092 303.219 68.2996 303.527 68.2996H303.515Z" fill="#A7A7A7"/>
<path d="M474.07 85.0322H285.288V93.3358H474.07V85.0322Z" fill="#A7A7A7"/>
<path d="M323.864 89.0244H316.199V117.368H323.864V89.0244Z" fill="#A7A7A7"/>
<path d="M438.255 89.0244H430.59V117.368H438.255V89.0244Z" fill="#A7A7A7"/>
<path d="M430.376 14.2435L420.019 14.2996L420.403 85.1757L430.759 85.1197L430.376 14.2435Z" fill="#F4F4F4"/>
<path d="M446.564 27.4325L430.47 27.5195L430.781 84.9596L446.875 84.8725L446.564 27.4325Z" fill="white"/>
<path d="M446.456 38.5184C446.456 38.6781 442.852 38.7921 438.415 38.7921C433.978 38.7921 430.373 38.6667 430.373 38.5184C430.373 38.3701 433.978 38.2446 438.415 38.2446C442.852 38.2446 446.456 38.3701 446.456 38.5184Z" fill="#A7A7A7"/>
<path d="M446.456 36.1116C446.456 36.2599 442.852 36.3854 438.415 36.3854C433.978 36.3854 430.373 36.2599 430.373 36.1116C430.373 35.9634 433.978 35.8379 438.415 35.8379C442.852 35.8379 446.456 35.9634 446.456 36.1116Z" fill="#A7A7A7"/>
<path d="M446.456 76.2496C446.456 76.4093 442.852 76.5233 438.415 76.5233C433.978 76.5233 430.373 76.3979 430.373 76.2496C430.373 76.1013 433.978 75.9758 438.415 75.9758C442.852 75.9758 446.456 76.1013 446.456 76.2496Z" fill="#A7A7A7"/>
<path d="M446.456 73.8428C446.456 73.9911 442.852 74.1166 438.415 74.1166C433.978 74.1166 430.373 73.9911 430.373 73.8428C430.373 73.6946 433.978 73.5691 438.415 73.5691C442.852 73.5691 446.456 73.6946 446.456 73.8428Z" fill="#A7A7A7"/>
<path d="M438.665 68.5734C438.506 68.5734 438.392 62.7791 438.392 55.6275C438.392 48.4759 438.517 42.6816 438.665 42.6816C438.814 42.6816 438.939 48.4759 438.939 55.6275C438.939 62.7791 438.814 68.5734 438.665 68.5734Z" fill="#A7A7A7"/>
<path d="M464.147 41.564H446.627V84.9184H464.147V41.564Z" fill="#F4F4F4"/>
<path d="M428.024 26.3595C428.024 28.002 426.689 29.3365 425.047 29.3365C423.404 29.3365 422.07 28.002 422.07 26.3595C422.07 24.7171 423.404 23.3826 425.047 23.3826C426.689 23.3826 428.024 24.7171 428.024 26.3595Z" fill="#A7A7A7"/>
<path d="M425.959 34.5491H424.123V76.7059H425.959V34.5491Z" fill="#A7A7A7"/>
<path d="M89.7086 289.646L76.5917 342.501H81.9069L95.5257 289.646H89.7086Z" fill="#F4F4F4"/>
<path d="M127.736 289.646L140.853 342.501H135.538L121.919 289.646H127.736Z" fill="#F4F4F4"/>
<path d="M111.175 275.274H104.993V342.49H111.175V275.274Z" fill="#F4F4F4"/>
<path d="M151.586 221.369H64.2959V277.293H151.586V221.369Z" fill="#A7A7A7"/>
<path d="M129.869 288.79H86.0587V294.185H129.869V288.79Z" fill="#F4F4F4"/>
<path d="M70.0902 269.993C70.0902 269.993 70.1358 270.312 70.1472 271.019H70.0332C69.9419 268.282 69.8735 259.226 69.8735 248.481C69.8963 242.002 69.9191 236.14 69.9419 231.817C69.9647 229.729 69.999 228.019 70.0104 226.764C70.0218 226.205 70.0446 225.749 70.056 225.395C70.0674 225.076 70.0788 224.916 70.1016 224.916C70.1244 224.916 70.1358 225.076 70.1472 225.395C70.1472 225.76 70.17 226.205 70.1929 226.764C70.2043 228.019 70.2385 229.729 70.2613 231.817C70.2727 236.128 70.2955 241.991 70.3297 248.481C70.3297 259.214 70.2613 268.282 70.17 271.019H70.056C70.0788 270.312 70.0902 269.993 70.113 269.993H70.0902Z" fill="white"/>
<path d="M76.5917 269.993C76.5917 269.993 76.6373 270.312 76.6487 271.019H76.5346C76.4434 268.282 76.3749 259.226 76.3749 248.481C76.3978 242.002 76.4206 236.14 76.4434 231.817C76.4662 229.729 76.5004 228.019 76.5118 226.764C76.5232 226.205 76.546 225.749 76.5574 225.395C76.5688 225.076 76.5803 224.916 76.6031 224.916C76.6259 224.916 76.6373 225.076 76.6487 225.395C76.6487 225.76 76.6715 226.205 76.6943 226.764C76.7057 228.019 76.7399 229.729 76.7627 231.817C76.7742 236.128 76.797 241.991 76.8312 248.481C76.8312 259.214 76.7627 268.282 76.6715 271.019H76.5574C76.5803 270.312 76.5917 269.993 76.6145 269.993H76.5917Z" fill="white"/>
<path d="M83.0817 269.993C83.0817 269.993 83.1273 270.312 83.1387 271.019H83.0247C82.9334 268.282 82.865 259.226 82.865 248.481C82.8878 242.002 82.9106 236.14 82.9334 231.817C82.9562 229.729 82.9905 228.019 83.0019 226.764C83.0133 226.205 83.0361 225.749 83.0475 225.395C83.0589 225.076 83.0703 224.916 83.0931 224.916C83.1159 224.916 83.1273 225.076 83.1387 225.395C83.1387 225.76 83.1615 226.205 83.1844 226.764C83.1958 228.019 83.23 229.729 83.2528 231.817C83.2642 236.128 83.287 241.991 83.3212 248.481C83.3212 259.214 83.2528 268.282 83.1616 271.019H83.0475C83.0703 270.312 83.0817 269.993 83.1045 269.993H83.0817Z" fill="white"/>
<path d="M89.5832 269.993C89.5832 269.993 89.6288 270.312 89.6402 271.019H89.5261C89.4349 268.282 89.3664 259.226 89.3664 248.481C89.3893 242.002 89.4121 236.14 89.4349 231.817C89.4577 229.729 89.4805 228.019 89.5033 226.764C89.5147 226.205 89.5375 225.749 89.5489 225.395C89.5603 225.076 89.5718 224.916 89.5946 224.916C89.6174 224.916 89.6288 225.076 89.6402 225.395C89.6402 225.76 89.663 226.205 89.6858 226.764C89.6972 228.019 89.7314 229.729 89.7543 231.817C89.7657 236.128 89.7885 241.991 89.8227 248.481C89.8227 259.214 89.7542 268.282 89.663 271.019H89.5489C89.5718 270.312 89.5832 269.993 89.606 269.993H89.5832Z" fill="white"/>
<path d="M96.0846 269.993C96.0846 269.993 96.1302 270.312 96.1416 271.019H96.0276C95.9363 268.282 95.8679 259.226 95.8679 248.481C95.8907 242.002 95.9135 236.14 95.9363 231.817C95.9592 229.729 95.9934 228.019 96.0048 226.764C96.0162 226.205 96.039 225.749 96.0504 225.395C96.0618 225.076 96.0846 224.916 96.096 224.916C96.1074 224.916 96.1302 225.076 96.1416 225.395C96.1416 225.76 96.1645 226.205 96.1873 226.764C96.1987 228.019 96.2329 229.729 96.2557 231.817C96.2671 236.128 96.2899 241.991 96.3241 248.481C96.3241 259.214 96.2557 268.282 96.1645 271.019H96.0504C96.0732 270.312 96.0846 269.993 96.1074 269.993H96.0846Z" fill="white"/>
<path d="M102.575 269.993C102.575 269.993 102.62 270.312 102.632 271.019H102.518C102.426 268.282 102.358 259.226 102.358 248.481C102.381 242.002 102.404 236.14 102.426 231.817C102.449 229.729 102.483 228.019 102.495 226.764C102.506 226.205 102.529 225.749 102.54 225.395C102.552 225.076 102.563 224.916 102.586 224.916C102.609 224.916 102.62 225.076 102.632 225.395C102.632 225.76 102.654 226.205 102.677 226.764C102.689 228.019 102.723 229.729 102.746 231.817C102.757 236.128 102.78 241.991 102.814 248.481C102.814 259.214 102.746 268.282 102.655 271.019H102.54C102.563 270.312 102.575 269.993 102.597 269.993H102.575Z" fill="white"/>
<path d="M109.076 269.993C109.076 269.993 109.122 270.312 109.133 271.019H109.019C108.928 268.282 108.859 259.226 108.859 248.481C108.882 242.002 108.905 236.14 108.928 231.817C108.951 229.729 108.985 228.019 108.996 226.764C109.008 226.205 109.03 225.749 109.042 225.395C109.053 225.076 109.065 224.916 109.088 224.916C109.11 224.916 109.122 225.076 109.133 225.395C109.133 225.76 109.156 226.205 109.179 226.764C109.19 228.019 109.224 229.729 109.247 231.817C109.259 236.128 109.281 241.991 109.316 248.481C109.316 259.214 109.247 268.282 109.156 271.019H109.042C109.065 270.312 109.076 269.993 109.099 269.993H109.076Z" fill="white"/>
<path d="M115.566 269.993C115.566 269.993 115.612 270.312 115.623 271.019H115.509C115.418 268.282 115.349 259.226 115.349 248.481C115.372 242.002 115.395 236.14 115.418 231.817C115.441 229.729 115.475 228.019 115.486 226.764C115.498 226.205 115.521 225.749 115.532 225.395C115.543 225.076 115.566 224.916 115.578 224.916C115.589 224.916 115.612 225.076 115.623 225.395C115.623 225.76 115.646 226.205 115.669 226.764C115.68 228.019 115.703 229.729 115.737 231.817C115.749 236.128 115.771 241.991 115.806 248.481C115.806 259.214 115.737 268.282 115.646 271.019H115.532C115.555 270.312 115.566 269.993 115.589 269.993H115.566Z" fill="white"/>
<path d="M122.068 269.993C122.068 269.993 122.113 270.312 122.125 271.019H122.011C121.919 268.282 121.851 259.226 121.851 248.481C121.874 242.002 121.897 236.14 121.919 231.817C121.942 229.729 121.976 228.019 121.988 226.764C121.999 226.205 122.022 225.749 122.033 225.395C122.045 225.076 122.068 224.916 122.079 224.916C122.09 224.916 122.113 225.076 122.125 225.395C122.125 225.76 122.147 226.205 122.17 226.764C122.182 228.019 122.216 229.729 122.239 231.817C122.25 236.128 122.273 241.991 122.307 248.481C122.307 259.214 122.239 268.282 122.147 271.019H122.033C122.056 270.312 122.068 269.993 122.09 269.993H122.068Z" fill="white"/>
<path d="M128.558 269.993C128.558 269.993 128.603 270.312 128.615 271.019H128.501C128.409 268.282 128.341 259.226 128.341 248.481C128.364 242.002 128.387 236.14 128.409 231.817C128.432 229.729 128.466 228.019 128.478 226.764C128.489 226.205 128.512 225.749 128.523 225.395C128.535 225.076 128.546 224.916 128.569 224.916C128.592 224.916 128.603 225.076 128.615 225.395C128.615 225.76 128.637 226.205 128.66 226.764C128.672 228.019 128.706 229.729 128.729 231.817C128.74 236.128 128.763 241.991 128.797 248.481C128.797 259.214 128.729 268.282 128.637 271.019H128.523C128.546 270.312 128.558 269.993 128.58 269.993H128.558Z" fill="white"/>
<path d="M135.059 269.993C135.059 269.993 135.105 270.312 135.116 271.019H135.002C134.911 268.282 134.842 259.226 134.842 248.481C134.865 242.002 134.888 236.14 134.911 231.817C134.934 229.729 134.968 228.019 134.979 226.764C134.991 226.205 135.013 225.749 135.025 225.395C135.036 225.076 135.048 224.916 135.071 224.916C135.093 224.916 135.105 225.076 135.116 225.395C135.116 225.76 135.139 226.205 135.162 226.764C135.173 228.019 135.207 229.729 135.23 231.817C135.242 236.128 135.264 241.991 135.299 248.481C135.299 259.214 135.23 268.282 135.139 271.019H135.025C135.048 270.312 135.059 269.993 135.082 269.993H135.059Z" fill="white"/>
<path d="M141.561 269.993C141.561 269.993 141.606 270.312 141.618 271.019H141.504C141.412 268.282 141.344 259.226 141.344 248.481C141.367 242.002 141.389 236.14 141.412 231.817C141.435 229.729 141.469 228.019 141.481 226.764C141.492 226.205 141.515 225.749 141.526 225.395C141.538 225.076 141.549 224.916 141.572 224.916C141.595 224.916 141.606 225.076 141.618 225.395C141.618 225.76 141.64 226.205 141.663 226.764C141.675 228.019 141.709 229.729 141.732 231.817C141.743 236.128 141.766 241.991 141.8 248.481C141.8 259.214 141.732 268.282 141.64 271.019H141.526C141.549 270.312 141.561 269.993 141.583 269.993H141.561Z" fill="white"/>
<path d="M148.051 269.993C148.051 269.993 148.096 270.312 148.108 271.019H147.994C147.902 268.282 147.834 259.226 147.834 248.481C147.857 242.002 147.88 236.14 147.902 231.817C147.925 229.729 147.959 228.019 147.971 226.764C147.982 226.205 148.005 225.749 148.016 225.395C148.028 225.076 148.051 224.916 148.062 224.916C148.073 224.916 148.096 225.076 148.108 225.395C148.108 225.76 148.13 226.205 148.153 226.764C148.165 228.019 148.199 229.729 148.222 231.817C148.233 236.128 148.256 241.991 148.29 248.481C148.29 259.214 148.222 268.282 148.13 271.019H148.016C148.039 270.312 148.051 269.993 148.073 269.993H148.051Z" fill="white"/>
<path d="M256.237 335.977H28.6862V440.924H256.237V335.977Z" fill="white"/>
<path d="M250.808 435.974H33.8874V341.497H250.808V435.974ZM35.3017 434.559H249.393V342.912H35.3017V434.559Z" fill="#A7A7A7"/>
<path d="M311.819 335.977H256.226V440.924H311.819V335.977Z" fill="#A7A7A7"/>
<path d="M34.5946 370.731H250.101C250.466 370.731 250.466 370.161 250.101 370.161H34.5946C34.2296 370.161 34.2296 370.731 34.5946 370.731Z" fill="#A7A7A7"/>
<path d="M143.055 370.446C143.705 361.127 143.636 351.261 143.123 341.942C143.1 341.566 142.564 341.566 142.541 341.942C142.04 351.261 141.971 361.127 142.61 370.446C142.633 370.72 143.021 370.72 143.043 370.446H143.055Z" fill="#A7A7A7"/>
<path d="M201.066 356.188C201.066 357.808 199.754 359.12 198.135 359.12C196.515 359.12 195.203 357.808 195.203 356.188C195.203 354.569 196.515 353.257 198.135 353.257C199.754 353.257 201.066 354.569 201.066 356.188Z" fill="#A7A7A7"/>
<path d="M87.9635 356.188C87.9635 357.808 86.6518 359.12 85.0322 359.12C83.4125 359.12 82.1008 357.808 82.1008 356.188C82.1008 354.569 83.4125 353.257 85.0322 353.257C86.6518 353.257 87.9635 354.569 87.9635 356.188Z" fill="#A7A7A7"/>
<path d="M145.29 388.73C145.29 390.35 143.979 391.661 142.359 391.661C140.739 391.661 139.428 390.35 139.428 388.73C139.428 387.11 140.739 385.799 142.359 385.799C143.979 385.799 145.29 387.11 145.29 388.73Z" fill="#A7A7A7"/>
<path d="M55.8897 440.913L44.9171 504.285H51.4983L72.36 440.913H55.8897Z" fill="#A7A7A7"/>
<path d="M240.132 440.913L249.929 504.285H243.337L223.65 440.913H240.132Z" fill="#A7A7A7"/>
<path d="M284.113 440.913L295.77 504.285H289.178L267.643 440.913H284.113Z" fill="#A7A7A7"/>
<path d="M145.085 418.431C145.085 420.051 143.773 421.363 142.154 421.363C140.534 421.363 139.222 420.051 139.222 418.431C139.222 416.812 140.534 415.5 142.154 415.5C143.773 415.5 145.085 416.812 145.085 418.431Z" fill="#A7A7A7"/>
<path d="M34.5946 403.227H250.101C250.466 403.227 250.466 402.657 250.101 402.657H34.5946C34.2296 402.657 34.2296 403.227 34.5946 403.227Z" fill="#A7A7A7"/>
<path d="M495 172.528H439.51V187.208H495V172.528Z" fill="white"/>
<path d="M471.538 202.663C471.538 202.663 471.538 202.572 471.515 202.401C471.515 202.207 471.515 201.956 471.492 201.648C471.492 200.952 471.469 199.994 471.446 198.762C471.424 196.23 471.389 192.58 471.355 187.995L471.526 188.166C458.854 188.189 438.7 188.234 416.036 188.28C416.161 188.155 415.751 188.565 416.31 187.995V188.93V189.877C416.31 190.504 416.31 191.131 416.31 191.747C416.31 192.991 416.31 194.223 416.31 195.454C416.31 197.907 416.31 200.313 416.31 202.674L416.036 202.401C431.833 202.446 445.669 202.492 455.581 202.526C460.519 202.56 464.489 202.583 467.249 202.606C468.595 202.617 469.656 202.629 470.409 202.64C470.751 202.64 471.024 202.652 471.23 202.663C471.412 202.663 471.515 202.674 471.526 202.686C471.526 202.686 471.446 202.697 471.264 202.709C471.059 202.709 470.796 202.709 470.477 202.731C469.736 202.731 468.698 202.754 467.386 202.766C464.637 202.788 460.691 202.811 455.775 202.846C445.806 202.88 431.913 202.925 416.036 202.971H415.762V202.697C415.762 200.336 415.762 197.93 415.762 195.477C415.762 194.257 415.762 193.013 415.762 191.77C415.762 191.143 415.762 190.527 415.762 189.9V188.953V188.485V188.04V188.018C416.332 187.447 415.922 187.858 416.047 187.732C438.711 187.778 458.866 187.812 471.538 187.847H471.709V188.018C471.663 192.66 471.64 196.333 471.618 198.888C471.595 200.108 471.583 201.055 471.572 201.739C471.572 202.036 471.561 202.275 471.549 202.458C471.549 202.617 471.549 202.697 471.538 202.686V202.663Z" fill="#A7A7A7"/>
<path d="M384.738 331.369C384.738 331.369 384.738 331.278 384.715 331.106C384.715 330.913 384.715 330.662 384.692 330.354C384.692 329.658 384.669 328.7 384.646 327.468C384.624 324.936 384.589 321.286 384.555 316.701L384.726 316.872C372.054 316.895 351.9 316.94 329.236 316.986C329.361 316.86 328.951 317.271 329.51 316.701V317.636V318.583C329.51 319.21 329.51 319.837 329.51 320.453C329.51 321.697 329.51 322.928 329.51 324.16C329.51 326.613 329.51 329.019 329.51 331.38L329.236 331.106C345.033 331.152 358.869 331.198 368.781 331.232C373.719 331.266 377.689 331.289 380.449 331.312C381.795 331.323 382.856 331.335 383.608 331.346C383.951 331.346 384.224 331.357 384.43 331.369C384.612 331.369 384.715 331.38 384.726 331.392C384.726 331.392 384.646 331.403 384.464 331.414C384.259 331.414 383.996 331.414 383.677 331.437C382.935 331.437 381.898 331.46 380.586 331.471C377.837 331.494 373.89 331.517 368.974 331.551C359.006 331.586 345.113 331.631 329.236 331.677H328.962V331.403C328.962 329.042 328.962 326.635 328.962 324.183C328.962 322.963 328.962 321.719 328.962 320.476C328.962 319.849 328.962 319.233 328.962 318.605V317.659V317.191V316.746V316.723C329.532 316.153 329.122 316.564 329.247 316.438C351.911 316.484 372.066 316.518 384.738 316.552H384.909V316.723C384.863 321.366 384.84 325.038 384.817 327.593C384.795 328.814 384.783 329.761 384.772 330.445C384.772 330.741 384.76 330.981 384.749 331.164C384.749 331.323 384.749 331.403 384.738 331.392V331.369Z" fill="#A7A7A7"/>
<path d="M79.2379 178.391H23.7474V193.07H79.2379V178.391Z" fill="white"/>
<path d="M55.7756 208.537C55.7756 208.537 55.7756 208.446 55.7528 208.275C55.7528 208.081 55.7528 207.83 55.73 207.522C55.73 206.826 55.7072 205.868 55.6844 204.636C55.6616 202.104 55.6273 198.454 55.5931 193.869L55.7642 194.04C43.0921 194.063 22.9376 194.108 0.273745 194.154C0.399212 194.029 -0.0114061 194.439 0.547491 193.869H0.570303V195.751C0.570303 196.378 0.570303 197.005 0.570303 197.621C0.570303 198.865 0.570303 200.097 0.570303 201.328C0.570303 203.781 0.570303 206.187 0.570303 208.548L0.296557 208.275C16.0939 208.32 29.9295 208.366 39.8414 208.4C44.7802 208.434 48.7495 208.457 51.5097 208.48C52.8557 208.491 53.9164 208.503 54.6692 208.514C55.0114 208.514 55.2852 208.526 55.4905 208.537C55.673 208.537 55.7756 208.548 55.787 208.56C55.787 208.56 55.7072 208.571 55.5247 208.583C55.3194 208.583 55.057 208.583 54.7377 208.605C53.9963 208.605 52.9583 208.628 51.6466 208.64C48.8978 208.662 44.9513 208.685 40.0353 208.72C30.0664 208.754 16.1738 208.799 0.296557 208.845H0V208.571C0 206.21 0 203.804 0 201.351C0 200.131 0 198.887 0 197.644C0 197.017 0 196.401 0 195.774V194.827V194.359V193.914V193.892C0.570303 193.321 0.159685 193.732 0.285151 193.607C22.949 193.652 43.1035 193.686 55.7756 193.721H55.9467V193.892C55.9011 198.534 55.8783 202.207 55.8555 204.762C55.8326 205.982 55.8212 206.929 55.8098 207.613C55.8098 207.91 55.7984 208.149 55.787 208.332C55.787 208.491 55.787 208.571 55.7756 208.56V208.537Z" fill="#A7A7A7"/>
<path d="M265.191 29.7016C265.191 29.7016 265.191 29.6103 265.179 29.4392C265.179 29.2453 265.179 28.9944 265.157 28.6864C265.157 27.9907 265.134 27.0326 265.111 25.8007C265.088 23.2686 265.054 19.6186 265.02 15.0334L265.191 15.2045C252.519 15.2273 232.364 15.2729 209.7 15.3185C209.826 15.1931 209.415 15.6037 209.974 15.0334V15.501V15.9687V16.9154C209.974 17.5427 209.974 18.1701 209.974 18.786C209.974 20.0292 209.974 21.2611 209.974 22.493C209.974 24.9453 209.974 27.3519 209.974 29.713L209.7 29.4392C225.498 29.4849 239.333 29.5305 249.245 29.5647C254.184 29.5989 258.153 29.6217 260.914 29.6445C262.259 29.656 263.32 29.6674 264.073 29.6788C264.415 29.6788 264.689 29.6902 264.894 29.7016C265.077 29.7016 265.179 29.713 265.191 29.7244C265.191 29.7244 265.111 29.7358 264.928 29.7472C264.723 29.7472 264.461 29.7472 264.141 29.77C263.4 29.77 262.362 29.7928 261.05 29.8042C258.302 29.827 254.355 29.8499 249.439 29.8841C239.47 29.9183 225.578 29.9639 209.7 30.0095H209.427V29.7358C209.427 27.3747 209.427 24.9681 209.427 22.5158C209.427 21.2953 209.427 20.0521 209.427 18.8088C209.427 18.1815 209.427 17.5655 209.427 16.9382V15.9915V15.5239V15.079V15.0562C209.997 14.4859 209.586 14.8965 209.712 14.7711C232.376 14.8167 252.53 14.8509 265.202 14.8851H265.373V15.0562C265.328 19.6985 265.305 23.3712 265.282 25.9262C265.259 27.1466 265.248 28.0933 265.236 28.7777C265.236 29.0742 265.225 29.3138 265.214 29.4963C265.214 29.656 265.214 29.7358 265.191 29.7244V29.7016Z" fill="#A7A7A7"/>
<path d="M272.719 15.0219C272.719 15.0219 272.707 14.9192 272.696 14.7481C272.696 14.5428 272.685 14.2805 272.673 13.9725C272.662 13.254 272.639 12.273 272.628 11.0298C272.605 8.452 272.559 4.82488 272.513 0.353702L272.719 0.559011C264.084 0.581823 252.325 0.604635 239.379 0.638854C239.128 0.889787 239.721 0.296672 239.664 0.353702V0.832757V1.31181V2.26992C239.664 2.90866 239.664 3.5474 239.664 4.17473C239.664 5.4408 239.664 6.68406 239.664 7.91592C239.664 10.3682 239.664 12.7521 239.664 15.0333L239.39 14.7596C249.017 14.8166 257.298 14.8508 263.24 14.885C266.172 14.9192 268.521 14.942 270.187 14.9649C270.962 14.9763 271.59 14.9877 272.057 14.9991C272.491 14.9991 272.719 15.0219 272.73 15.0333C272.73 15.0333 272.536 15.0561 272.126 15.0675C271.669 15.0675 271.065 15.0903 270.312 15.1017C268.658 15.1245 266.331 15.1474 263.423 15.1816C257.435 15.2158 249.085 15.2614 239.39 15.307H239.117V15.0333C239.117 12.7521 239.117 10.3682 239.117 7.91592C239.117 6.68406 239.117 5.4408 239.117 4.17473C239.117 3.5474 239.117 2.90866 239.117 2.26992V1.31181V0.832757V0.376514V0.353702C239.06 0.410732 239.653 -0.182383 239.402 0.0685507C252.348 0.102769 264.107 0.125581 272.742 0.148393H272.947V0.353702C272.901 4.8705 272.867 8.55466 272.833 11.1552C272.81 12.3757 272.799 13.3452 272.787 14.0524C272.776 14.7139 272.753 15.0447 272.742 15.0333L272.719 15.0219Z" fill="#A7A7A7"/>
<path d="M476.796 504.284C476.796 504.444 374.187 504.581 247.637 504.581C121.087 504.581 18.455 504.444 18.455 504.284C18.455 504.125 121.041 503.988 247.637 503.988C374.233 503.988 476.796 504.125 476.796 504.284Z" fill="#4E4E4E"/>
<path d="M191.781 99.5633L187.265 90.37C189.295 84.8495 189.865 78.7016 188.611 72.5195C184.995 54.7147 167.623 43.206 149.819 46.8217C132.014 50.4374 120.505 67.8088 124.121 85.6137C127.736 103.419 145.108 114.927 162.913 111.312C170.349 109.806 176.68 105.894 181.276 100.556L191.781 99.5747V99.5633Z" fill="white"/>
<path d="M191.781 99.5634C191.781 99.5634 191.565 99.5976 191.131 99.6432C190.664 99.6889 190.002 99.7687 189.147 99.86C187.344 100.042 184.71 100.328 181.288 100.681C181.231 100.681 181.174 100.647 181.162 100.579C181.162 100.556 181.162 100.533 181.162 100.522L181.356 100.636C178.607 103.852 174.307 107.616 168.125 109.989C166.585 110.582 164.943 111.072 163.209 111.449C161.464 111.734 159.651 112.099 157.757 112.121C153.982 112.293 149.921 111.825 145.906 110.49C141.891 109.167 137.933 106.977 134.477 103.932C131.01 100.898 128.044 96.997 126.037 92.4688C123.995 87.9634 123.037 82.8193 123.254 77.6182C123.482 72.417 124.919 67.1132 127.702 62.4481L128.752 60.6916L129.949 59.0491L130.554 58.2279L131.227 57.4751L132.573 55.9695C133.04 55.4904 133.542 55.057 134.033 54.5893C134.534 54.1445 134.991 53.654 135.538 53.2776C136.599 52.4906 137.614 51.6352 138.766 50.9964C143.214 48.2133 148.199 46.5709 153.138 46.069C158.088 45.6013 162.97 46.2743 167.338 47.8255C171.707 49.3653 175.562 51.772 178.687 54.6349C181.824 57.4979 184.219 60.8284 185.919 64.216C186.808 65.8927 187.401 67.6493 187.983 69.3259C188.405 71.0483 188.896 72.7021 189.101 74.3332C190.036 80.8917 188.85 86.4806 187.367 90.4157V90.3245C188.804 93.3243 189.911 95.6397 190.675 97.2252C191.04 97.9894 191.314 98.5711 191.508 98.9817C191.69 99.3695 191.77 99.5634 191.77 99.5634C191.77 99.5634 191.656 99.3581 191.451 98.9589C191.245 98.5483 190.949 97.9551 190.561 97.2023C189.774 95.6511 188.633 93.3813 187.162 90.4271C187.151 90.4043 187.151 90.3701 187.162 90.3359C188.588 86.4122 189.717 80.8575 188.759 74.3788C188.553 72.7592 188.063 71.1281 187.63 69.4286C187.036 67.7747 186.455 66.0524 185.565 64.3985C183.877 61.0566 181.493 57.783 178.391 54.9657C175.3 52.1484 171.49 49.7988 167.179 48.2818C162.878 46.7648 158.065 46.1032 153.195 46.5709C148.324 47.0727 143.42 48.6924 139.051 51.4412C137.922 52.0686 136.93 52.9126 135.88 53.6882C135.344 54.0646 134.899 54.5437 134.409 54.9771C133.93 55.4334 133.428 55.8554 132.972 56.3344L131.649 57.8172L130.987 58.5586L130.394 59.3685L129.208 60.9767L128.17 62.699C125.432 67.2957 124.018 72.5082 123.79 77.6296C123.573 82.7509 124.508 87.8152 126.505 92.2521C128.478 96.7005 131.386 100.544 134.797 103.556C138.207 106.567 142.097 108.734 146.055 110.057C150.012 111.391 154.016 111.859 157.746 111.711C159.616 111.699 161.407 111.346 163.141 111.072C164.852 110.719 166.483 110.239 168.011 109.658C174.136 107.342 178.425 103.647 181.185 100.487C181.231 100.442 181.299 100.43 181.345 100.476C181.39 100.51 181.39 100.567 181.368 100.613L181.254 100.464C184.641 100.168 187.253 99.9512 189.044 99.7915C189.922 99.7231 190.595 99.666 191.074 99.6204C191.53 99.5862 191.781 99.5748 191.781 99.5748V99.5634Z" fill="#4E4E4E"/>
<path d="M141.15 81.2224L145.416 76.968L153.617 84.2564L169.745 68.7556L173.691 73.0101L153.012 92.4688L141.15 81.2224Z" fill="#2492EB"/>
<path d="M171.616 461.865L151.792 480.663C151.792 480.663 171.376 503.007 168.844 507.626L121.132 480.092L150.674 446.901L171.616 461.877V461.865Z" fill="#7A7A7A"/>
<g opacity="0.6">
<path d="M138.641 469.576C137.58 469.257 136.325 469.884 135.96 470.922C135.595 471.96 136.223 473.249 137.272 473.591C138.321 473.933 139.861 473.226 140.101 472.154C140.34 471.082 139.53 469.599 138.424 469.53" fill="white"/>
</g>
<g opacity="0.6">
<path d="M121.132 480.081L124.143 476.693L168.639 504.478C168.639 504.478 169.779 506.03 168.889 508.094L121.132 480.069V480.081Z" fill="white"/>
</g>
<path d="M152.693 480.891C152.545 481.119 151.336 480.503 149.762 480.526C148.176 480.514 146.978 481.142 146.83 480.914C146.648 480.742 147.845 479.59 149.762 479.59C151.678 479.568 152.887 480.708 152.704 480.891H152.693Z" fill="#4E4E4E"/>
<path d="M156.309 485.989C156.217 486.24 154.997 486.012 153.617 486.491C152.225 486.924 151.37 487.848 151.153 487.7C150.914 487.597 151.598 486.172 153.32 485.613C155.043 485.042 156.434 485.784 156.309 486.001V485.989Z" fill="#4E4E4E"/>
<path d="M155.419 493.586C155.179 493.506 155.579 492.171 156.947 491.293C158.305 490.403 159.696 490.586 159.673 490.837C159.673 491.11 158.567 491.339 157.461 492.08C156.331 492.799 155.658 493.711 155.419 493.597V493.586Z" fill="#4E4E4E"/>
<path d="M155.738 475.131C155.51 475.279 154.666 474.309 153.32 473.591C151.997 472.838 150.72 472.644 150.72 472.37C150.685 472.119 152.202 471.891 153.765 472.77C155.339 473.625 155.955 475.028 155.727 475.131H155.738Z" fill="#4E4E4E"/>
<path d="M158.864 470.34C158.807 470.431 157.814 470.009 156.537 468.857C155.898 468.287 155.202 467.523 154.563 466.576C154.244 466.097 153.936 465.584 153.674 465.025C153.548 464.751 153.377 464.455 153.309 464.033C153.206 463.633 153.446 462.938 153.97 462.755C154.438 462.55 154.951 462.652 155.293 462.858C155.647 463.063 155.875 463.303 156.092 463.531C156.537 463.987 156.913 464.466 157.232 464.945C157.871 465.915 158.27 466.873 158.499 467.717C158.955 469.393 158.784 470.477 158.681 470.477C158.533 470.477 158.453 469.439 157.871 467.922C157.586 467.169 157.141 466.302 156.525 465.436C156.217 465.002 155.852 464.58 155.442 464.181C155.031 463.736 154.609 463.474 154.347 463.611C154.244 463.668 154.221 463.69 154.233 463.907C154.256 464.112 154.37 464.363 154.495 464.637C154.735 465.162 155.008 465.664 155.282 466.12C155.841 467.032 156.445 467.797 156.993 468.401C158.099 469.61 158.932 470.226 158.852 470.352L158.864 470.34Z" fill="#4E4E4E"/>
<path d="M158.362 470.477C158.259 470.466 158.316 469.359 159.16 467.831C159.582 467.078 160.209 466.234 161.088 465.47C161.521 465.093 162.023 464.74 162.571 464.42C163.129 464.135 163.859 463.725 164.806 464.181C165.274 464.455 165.433 465.059 165.376 465.447C165.331 465.857 165.194 466.154 165.08 466.451C164.829 467.055 164.475 467.58 164.088 468.025C163.312 468.926 162.388 469.496 161.578 469.815C159.901 470.454 158.784 470.123 158.818 470.032C158.818 469.872 159.879 469.929 161.316 469.211C162.023 468.857 162.799 468.287 163.437 467.477C163.757 467.078 164.03 466.61 164.247 466.097C164.487 465.561 164.555 465.036 164.338 464.968C164.11 464.82 163.483 464.945 163.038 465.219C162.536 465.481 162.08 465.789 161.669 466.12C160.848 466.781 160.209 467.511 159.753 468.162C158.829 469.496 158.533 470.5 158.396 470.454L158.362 470.477Z" fill="#4E4E4E"/>
<path d="M320.83 463.474L325.563 488.978C325.563 488.978 353.793 498.216 353.987 503.475L300.253 504.113L296.284 463.474H320.841H320.83Z" fill="#7A7A7A"/>
<g opacity="0.6">
<path d="M304.69 488.191C303.618 488.453 302.854 489.628 303.07 490.711C303.287 491.795 304.485 492.582 305.557 492.342C306.629 492.103 307.599 490.711 307.256 489.662C306.914 488.613 305.466 487.757 304.485 488.259" fill="white"/>
</g>
<g opacity="0.6">
<path d="M300.242 504.113L299.398 500.213L352.196 500.897C352.196 500.897 353.964 501.65 354.261 503.885L300.242 504.125V504.113Z" fill="white"/>
</g>
<path d="M326.453 488.715C326.441 488.989 325.084 489.069 323.738 489.901C322.369 490.7 321.662 491.84 321.411 491.726C321.16 491.669 321.605 490.072 323.259 489.092C324.901 488.099 326.51 488.464 326.453 488.704V488.715Z" fill="#4E4E4E"/>
<path d="M332.167 491.259C332.224 491.521 331.049 491.943 330.103 493.061C329.122 494.144 328.859 495.365 328.597 495.354C328.346 495.388 328.198 493.814 329.395 492.445C330.582 491.076 332.167 490.996 332.167 491.259Z" fill="#4E4E4E"/>
<path d="M335.27 498.251C335.019 498.296 334.688 496.95 335.418 495.49C336.136 494.031 337.414 493.483 337.528 493.711C337.676 493.939 336.832 494.703 336.262 495.913C335.657 497.099 335.543 498.228 335.281 498.251H335.27Z" fill="#4E4E4E"/>
<path d="M324.217 482.773C324.103 483.012 322.871 482.613 321.354 482.681C319.826 482.716 318.64 483.195 318.503 482.955C318.354 482.761 319.529 481.792 321.331 481.746C323.122 481.678 324.365 482.567 324.229 482.784L324.217 482.773Z" fill="#4E4E4E"/>
<path d="M196.811 278.091C195.922 278.696 193.892 309.298 196.811 316.005L189.375 371.153C189.375 371.153 169.437 402.805 165.422 407.413C161.407 412.021 135.378 456.961 135.378 456.961L164.76 482.305C164.76 482.305 215.837 415.568 224.049 403.729C236.927 385.148 252.131 315.48 252.131 315.48L254.115 280.897L196.8 278.08L196.811 278.091Z" fill="#4E4E4E"/>
<path d="M236.938 322.21C237.828 323.841 277.601 384.977 277.601 384.977C277.601 384.977 283.634 417.359 284.969 431.639C286.303 445.92 296.078 482.647 296.078 482.647L328.084 480.138C328.084 480.138 319.427 385.582 314.077 367.161C308.728 348.74 293.843 313.13 293.843 313.13L281.285 279.813L245.116 280.486L236.938 322.221V322.21Z" fill="#4E4E4E"/>
<path d="M259.579 289.805C259.579 289.805 259.533 290.147 259.374 290.797C259.203 291.493 258.974 292.428 258.689 293.603C258.062 296.09 257.161 299.591 256.066 303.892C253.83 312.572 250.728 324.559 247.124 337.756C243.508 350.953 239.995 362.838 237.314 371.393C235.968 375.67 234.862 379.126 234.064 381.498C233.676 382.65 233.368 383.563 233.14 384.236C232.923 384.863 232.798 385.182 232.775 385.171C232.752 385.171 232.843 384.829 233.026 384.19C233.231 383.506 233.505 382.582 233.847 381.418C234.588 378.966 235.626 375.51 236.915 371.256C239.493 362.678 242.938 350.782 246.553 337.585C250.101 324.4 253.317 312.469 255.667 303.777C256.842 299.5 257.788 296.01 258.473 293.535C258.803 292.371 259.066 291.448 259.271 290.763C259.454 290.136 259.568 289.805 259.59 289.805H259.579Z" fill="#7A7A7A"/>
<path d="M357.854 145.541C357.854 145.541 361.218 142.884 362.302 142.975C363.386 143.055 370.149 144.036 370.149 144.036C370.149 144.036 370.583 146.876 368.632 147.823C366.693 148.758 363.808 148.838 363.808 148.838L362.199 149.967L357.842 145.553L357.854 145.541Z" fill="#FFCAAE"/>
<path d="M269.582 154.894L322.563 196.492L348.752 171.81L349.47 167.008C349.675 165.639 350.052 164.304 350.588 163.038L357.363 146.944L373.206 172.631C373.206 172.631 334.254 223.49 327.434 225.27C318.446 227.619 273.654 197.291 273.654 197.291L269.582 154.883V154.894Z" fill="#FFCAAE"/>
<path d="M357.101 161.133C357.181 161.008 359.507 163.392 360.523 167.236C361.583 171.079 360.751 174.307 360.625 174.239C360.431 174.228 360.967 171.079 359.952 167.395C358.983 163.688 356.941 161.236 357.101 161.133Z" fill="#FF9A6C"/>
<path d="M235.284 80.1389L234.246 134.432C233.881 143.705 233.391 157.426 248.07 157.324C260.799 156.286 264.495 144.355 264.826 135.709C264.985 131.603 265.122 128.181 265.168 127.759C265.168 127.759 279.095 126.995 280.635 113.308C281.376 106.692 281.798 92.9365 282.038 80.4925C282.3 67.1246 272.228 55.8098 258.917 54.4753L257.594 54.3384C243.246 53.7453 235.478 65.7787 235.284 80.1275V80.1389Z" fill="#FFCAAE"/>
<path d="M265.202 127.771C265.202 127.771 256.511 127.417 247.876 120.71C247.876 120.71 251.23 131.158 265.031 131.295L265.202 127.771Z" fill="#FF935C"/>
<path d="M259.02 87.4616C258.712 87.5301 257.378 86.4579 255.165 85.8192C252.963 85.169 251.127 85.3173 250.933 85.1006C250.842 84.9979 251.196 84.8154 251.994 84.7356C252.792 84.6557 254.07 84.7356 255.439 85.1348C256.807 85.534 257.868 86.1499 258.438 86.629C259.02 87.108 259.157 87.4388 259.009 87.473L259.02 87.4616Z" fill="#4E4E4E"/>
<path d="M256.317 90.1649C256.248 91.1458 255.37 91.8986 254.344 91.853C253.317 91.8073 252.541 90.9747 252.599 89.9938C252.667 89.0129 253.545 88.2601 254.572 88.3057C255.598 88.3513 256.374 89.184 256.317 90.1649Z" fill="#4E4E4E"/>
<path d="M264.119 101.651C264.119 101.525 265.453 101.434 267.597 101.377C268.145 101.377 268.658 101.32 268.784 100.966C268.955 100.59 268.784 99.9855 268.578 99.3353C268.202 97.978 267.814 96.5637 267.392 95.0809C265.761 89.0243 264.643 84.074 264.894 84.0056C265.134 83.9372 266.651 88.7961 268.282 94.8528C268.67 96.347 269.046 97.7613 269.4 99.13C269.536 99.7574 269.822 100.487 269.468 101.274C269.286 101.662 268.864 101.913 268.51 101.97C268.156 102.039 267.848 102.016 267.586 102.004C265.442 101.902 264.119 101.788 264.119 101.662V101.651Z" fill="#4E4E4E"/>
<path d="M258.039 76.8311C257.8 77.333 255.975 76.8995 253.762 76.9566C251.549 76.9566 249.724 77.447 249.485 76.9566C249.382 76.7171 249.736 76.2608 250.5 75.8274C251.253 75.394 252.427 75.029 253.751 75.0061C255.074 74.9947 256.248 75.3255 257.013 75.7361C257.777 76.1468 258.142 76.603 258.039 76.8425V76.8311Z" fill="#4E4E4E"/>
<path d="M279.768 81.6787C279.517 82.0893 277.737 81.576 275.559 81.4506C273.392 81.2909 271.578 81.5532 271.361 81.1198C271.27 80.9145 271.635 80.5495 272.399 80.2415C273.164 79.9336 274.327 79.7054 275.627 79.7967C276.928 79.8879 278.068 80.2643 278.798 80.675C279.54 81.0856 279.87 81.4962 279.756 81.6901L279.768 81.6787Z" fill="#4E4E4E"/>
<path d="M235.387 90.5982C235.147 90.4728 225.692 86.9369 225.281 96.8259C224.87 106.715 234.873 105.084 234.908 104.799C234.942 104.514 235.387 90.5982 235.387 90.5982Z" fill="#FFCAAE"/>
<path d="M232.045 100.921C232.045 100.921 231.862 101.035 231.566 101.16C231.281 101.274 230.79 101.343 230.277 101.137C229.25 100.715 228.44 99.016 228.463 97.2366C228.475 96.3355 228.703 95.4915 229.045 94.7957C229.376 94.0885 229.866 93.5981 230.391 93.5297C230.916 93.427 231.281 93.7578 231.383 94.0429C231.509 94.3281 231.429 94.522 231.486 94.5334C231.509 94.5562 231.703 94.3737 231.646 93.9631C231.611 93.7692 231.509 93.5296 231.281 93.3243C231.052 93.119 230.71 93.005 230.334 93.0278C229.57 93.0506 228.851 93.7235 228.475 94.4878C228.053 95.252 227.779 96.2101 227.768 97.2138C227.745 99.2099 228.691 101.115 230.106 101.582C230.79 101.788 231.383 101.605 231.691 101.388C232.011 101.16 232.068 100.944 232.033 100.921H232.045Z" fill="#FF935C"/>
<path d="M264.301 108.209C264.347 107.958 262.419 107.879 260.731 106.521C259.887 105.86 259.305 105.05 258.86 104.457C258.427 103.864 258.119 103.499 258.028 103.556C257.948 103.613 258.085 104.046 258.416 104.73C258.746 105.403 259.317 106.339 260.275 107.103C261.221 107.867 262.305 108.198 263.058 108.289C263.822 108.392 264.301 108.289 264.301 108.209Z" fill="#4E4E4E"/>
<path d="M279.334 86.3666C279.106 86.5833 277.418 86.378 275.194 86.9826C272.97 87.5643 271.476 88.6136 271.202 88.5338C271.065 88.4996 271.282 88.1688 271.932 87.7011C272.571 87.2335 273.711 86.6518 275.091 86.2754C276.471 85.9104 277.692 85.8648 278.422 85.9674C279.163 86.0587 279.448 86.264 279.334 86.3552V86.3666Z" fill="#4E4E4E"/>
<path d="M276.369 91.2029C276.3 92.1839 275.422 92.9367 274.395 92.891C273.369 92.8454 272.593 92.0128 272.65 91.0319C272.719 90.0509 273.597 89.2981 274.624 89.3438C275.65 89.3894 276.426 90.222 276.369 91.2029Z" fill="#4E4E4E"/>
<path d="M300.96 68.6759C300.823 68.117 300.436 67.6494 299.956 67.3528C298.896 66.6912 297.664 66.7369 296.466 66.6912C293.489 66.5658 290.558 65.7217 287.946 64.3074C288.881 63.8625 289.759 63.3151 290.512 62.6079C292.063 61.1365 292.999 58.8439 292.36 56.8022C292.235 56.4144 292.029 56.0152 291.653 55.8897C291.048 55.6844 290.501 56.2661 290.056 56.7338C288.619 58.2622 287.307 58.8895 285.231 58.6272C283.942 58.4561 282.699 58.1367 281.695 57.4752C281.661 57.4295 281.616 57.3839 281.581 57.3383C281.102 56.825 280.646 56.3231 280.19 55.8555C276.757 52.2626 273.78 49.7533 270.689 48.4187C266.16 46.4569 258.518 45.4988 253.705 46.628C248.892 47.7572 244.5 51.5098 243.713 56.3916C241.101 54.0533 237.075 53.9621 233.779 55.1939L233.699 55.1597C230.026 56.3574 227.87 60.1442 226.695 63.8169C226.627 64.0222 226.57 64.2161 226.513 64.4214C225.235 66.3377 223.513 67.9573 221.494 69.0637C221.141 69.2576 220.73 69.4971 220.673 69.8963C220.616 70.2956 220.947 70.6377 221.266 70.8773C222.122 71.5274 223.125 71.9608 224.175 72.1776C223.821 73.0444 223.41 73.8999 222.897 74.6983C222.464 75.3827 221.962 76.2039 222.293 76.9339C222.555 77.5042 223.262 77.7437 223.878 77.6753C224.494 77.6068 225.053 77.2761 225.589 76.9567C225.156 77.9148 224.722 78.8729 224.3 79.831C225.612 80.0934 226.969 80.0249 228.258 79.6713C228.942 83.1616 229.695 87.5985 230.516 89.971C232.033 90.0052 233.482 89.6859 234.394 90.5527C235.638 91.7275 236.151 93.8947 238.284 93.1419C239.367 92.7541 240.417 90.5185 240.805 89.4349C243.394 82.2263 244.386 74.4588 243.736 66.8281C245.287 65.2655 247.135 63.9994 249.154 63.1326L248.983 63.2694C252.849 62.0376 257.229 60.8399 260.822 62.7447C263.605 64.2161 265.191 67.1931 267.232 69.5884C271.111 74.128 275.912 76.6373 281.866 77.0479C282.288 81.1998 281.707 86.4465 281.809 90.3132L285.551 84.1767V84.2109C285.836 83.7661 286.064 83.3099 286.292 82.865L286.372 82.7282V82.7053C286.725 81.9754 287.068 81.2568 287.512 80.5382C287.524 80.5496 287.535 80.561 287.547 80.5724C289.588 82.4772 292.748 79.7284 291.162 77.4358C290.843 76.9795 290.467 76.5689 290.022 76.2267C290.957 77.1506 292.371 77.6182 293.637 77.2647C294.904 76.9111 295.907 75.6678 295.839 74.3561C295.793 73.4664 295.166 72.6452 294.379 72.2688C296.067 72.4399 297.801 72.1205 299.306 71.3221C300.287 70.7974 301.257 69.9192 300.96 68.6873V68.6759Z" fill="#4E4E4E"/>
<path d="M247.979 58.0454C247.979 58.0454 247.397 58.3876 246.565 59.2659C245.743 60.1327 244.808 61.6611 244.341 63.7713C244.101 64.8206 243.93 65.984 243.896 67.2501C243.861 68.5162 243.918 69.8735 243.976 71.2992C244.033 72.725 244.09 74.242 243.953 75.8046C243.884 76.5917 243.77 77.3787 243.576 78.1771C243.382 78.9527 243.154 79.7968 242.55 80.4583C242.059 80.9944 241.272 81.2111 240.599 81.0628C239.915 80.926 239.31 80.5382 238.877 80.0363C238.022 78.9869 237.839 77.6638 237.645 76.5118L237.93 76.5574C237.428 77.584 236.927 78.5877 236.185 79.3861C235.455 80.1846 234.474 80.7092 233.471 80.7663C232.98 80.8005 232.478 80.7092 232.056 80.4811C231.634 80.2644 231.326 79.888 231.121 79.5116C230.927 79.1238 230.824 78.6904 230.859 78.2912C230.893 77.8805 231.064 77.5041 231.326 77.2304L231.463 77.3673C230.368 78.5421 229.239 79.158 228.452 79.5002C228.053 79.6713 227.745 79.7739 227.528 79.831C227.311 79.888 227.197 79.9108 227.197 79.8994C227.197 79.8994 227.3 79.8538 227.505 79.774C227.71 79.6941 228.018 79.58 228.406 79.3975C229.17 79.0326 230.265 78.3938 231.315 77.2304L231.452 77.3673C230.973 77.8463 230.927 78.7018 231.303 79.409C231.497 79.7511 231.771 80.0819 232.147 80.2758C232.524 80.4697 232.969 80.5496 233.425 80.5153C234.337 80.4469 235.261 79.9679 235.946 79.2036C236.641 78.4394 237.132 77.4585 237.634 76.432L237.839 75.9985L237.919 76.4776C238.113 77.6296 238.307 78.8957 239.094 79.8424C239.482 80.2986 240.029 80.6408 240.634 80.7663C241.227 80.9031 241.877 80.7206 242.299 80.253C242.835 79.6827 243.063 78.8843 243.246 78.1201C243.428 77.3445 243.542 76.5688 243.611 75.8046C243.747 74.2648 243.69 72.7706 243.645 71.3335C243.599 69.9077 243.542 68.539 243.588 67.2615C243.633 65.984 243.816 64.7978 244.078 63.737C244.591 61.6041 245.572 60.0643 246.439 59.2088C247.306 58.342 247.945 58.0682 247.945 58.0682L247.979 58.0454Z" fill="#7A7A7A"/>
<path d="M290.09 72.5425C290.09 72.5425 290.056 72.5767 289.976 72.6337C289.885 72.7022 289.771 72.782 289.623 72.8733C289.474 72.9759 289.28 73.1128 289.029 73.2269C288.79 73.3523 288.516 73.512 288.185 73.6489C286.897 74.2192 284.832 74.7667 282.277 74.55C279.745 74.3447 276.734 73.3637 274.076 71.265C271.384 69.2233 269.057 66.2464 267.175 62.8702C266.217 61.1821 265.453 59.4598 264.598 57.8515C263.754 56.2547 262.807 54.7719 261.644 53.5856C260.491 52.3994 259.146 51.5097 257.754 51.0763C257.058 50.8482 256.351 50.7797 255.678 50.7797C255.005 50.8026 254.355 50.9166 253.762 51.0991C252.564 51.4641 251.595 52.0914 250.853 52.7416C250.112 53.4031 249.599 54.0989 249.245 54.7148C248.584 55.9581 248.527 56.7679 248.481 56.7565C248.481 56.7565 248.481 56.7109 248.492 56.6082C248.515 56.4942 248.538 56.3573 248.572 56.1862C248.652 55.8212 248.823 55.2965 249.131 54.6464C249.473 54.0191 249.975 53.2891 250.728 52.6047C251.481 51.9203 252.462 51.2702 253.693 50.871C254.309 50.6771 254.971 50.5516 255.678 50.5288C256.374 50.5288 257.115 50.5858 257.845 50.814C259.294 51.2474 260.697 52.1599 261.872 53.3689C263.069 54.578 264.039 56.0836 264.894 57.6918C265.761 59.3001 266.525 61.0224 267.472 62.6991C269.343 66.0525 271.635 68.9952 274.27 71.0141C276.882 73.09 279.825 74.0709 282.311 74.299C284.821 74.5386 286.851 74.0367 288.151 73.512C289.451 72.9759 290.079 72.4855 290.102 72.5197L290.09 72.5425Z" fill="#7A7A7A"/>
<path d="M291.505 66.543C291.505 66.543 291.333 66.6799 291.003 66.8738C290.672 67.0791 290.17 67.3186 289.52 67.581C288.881 67.8433 288.083 68.0828 287.193 68.2767C286.292 68.4592 285.288 68.5733 284.227 68.5847C283.167 68.5847 282.163 68.4707 281.262 68.2996C280.361 68.1171 279.574 67.8889 278.924 67.6266C278.274 67.3757 277.772 67.1361 277.441 66.9422C277.11 66.7483 276.928 66.6343 276.939 66.6229C276.962 66.5658 277.715 66.9765 279.004 67.4213C279.642 67.6494 280.429 67.8547 281.319 68.0144C282.209 68.1627 283.19 68.2653 284.227 68.2653C285.265 68.2653 286.246 68.1399 287.136 67.9802C288.014 67.8091 288.801 67.5924 289.44 67.3643C290.729 66.908 291.47 66.4974 291.493 66.543H291.505Z" fill="#7A7A7A"/>
<path d="M253.785 135.96L267.894 141.709C271.35 142.713 277.954 148.324 281.912 152.123L298.325 174.022L273.232 204.602L253.785 135.96Z" fill="#7A7A7A"/>
<path d="M234.098 125.626L231.805 129.208C231.805 129.208 198.636 137.865 195.876 144.503C192.01 153.834 197.074 182.816 197.074 182.816L204.077 245.253L194.496 279.802L282.368 281.308C282.368 281.308 277.042 190.732 275.798 181.14C274.555 171.547 266.183 139.04 266.183 139.04L234.075 125.615L234.098 125.626Z" fill="#7A7A7A"/>
<path d="M274.327 163.472C274.327 163.472 274.361 163.574 274.384 163.757C274.407 163.985 274.441 164.259 274.487 164.612C274.567 165.411 274.692 166.506 274.829 167.897C275.125 170.749 275.502 174.889 275.935 179.999C276.802 190.219 277.794 204.362 278.775 219.989C279.756 235.615 280.68 249.758 281.444 259.99C281.832 265.065 282.14 269.194 282.357 272.103C282.46 273.494 282.539 274.601 282.596 275.399C282.619 275.753 282.631 276.027 282.642 276.255C282.642 276.449 282.642 276.551 282.642 276.551C282.642 276.551 282.608 276.46 282.585 276.266C282.562 276.038 282.528 275.764 282.482 275.411C282.403 274.612 282.277 273.517 282.14 272.126C281.844 269.274 281.467 265.134 281.034 260.024C280.167 249.804 279.175 235.649 278.194 220.023C277.213 204.397 276.289 190.253 275.536 180.022C275.148 174.946 274.84 170.817 274.624 167.909C274.521 166.517 274.441 165.411 274.384 164.612C274.361 164.259 274.35 163.985 274.338 163.757C274.338 163.563 274.338 163.46 274.338 163.46L274.327 163.472Z" fill="#4E4E4E"/>
<path opacity="0.3" d="M198.762 264.472L207.613 267.826L212.529 252.359C212.529 252.359 220.97 258.826 226.866 257.982C232.775 257.138 241.204 252.359 241.204 252.359L260.332 255.918L281.285 263.046L279.734 237.178L224.334 234.36L207.602 236.333L198.751 264.484L198.762 264.472Z" fill="white"/>
<path d="M145.496 286.429L159.787 279.62C161.111 275.194 162.445 270.78 163.905 265.932C169.973 268.624 175.38 271.031 181.026 273.529C183.067 267.176 184.892 261.518 186.774 255.655C192.751 258.245 198.192 260.583 203.952 263.069C205.902 256.785 207.647 251.127 209.518 245.082C214.457 247.318 218.608 249.553 223.011 251.036C225.258 251.789 228.247 251.937 230.391 251.07C236.562 248.572 242.47 245.424 248.686 242.436C249.576 244.135 250.135 245.128 250.625 246.143C253.568 252.291 253.762 252.382 260.035 249.496C266.719 246.428 273.403 243.383 280.019 240.166C282.825 238.809 284.957 239.037 287.82 240.645C309.595 252.895 331.506 253.568 352.573 239.299C372.51 225.794 381.236 206.301 378.293 182.565C375.373 158.944 361.891 142.473 339.638 134.181C304.553 121.098 266.457 143.796 260.617 180.832C260.138 183.889 259.02 185.52 256.226 186.683C250.511 189.067 244.922 191.759 239.288 194.348C232.999 197.237 230.855 202.024 232.855 208.708C230.973 209.723 229.41 210.681 227.745 211.446C205.879 221.437 147.629 247.443 128.535 255.952L121.885 278.616L145.507 286.418L145.496 286.429ZM363.591 184.949C358.789 197.599 344.509 203.895 331.859 198.967C319.37 194.097 313.005 180.125 317.579 167.669C322.324 154.769 336.684 148.279 349.584 153.218C362.256 158.077 368.473 172.14 363.591 184.961V184.949Z" fill="#2492EB"/>
<path opacity="0.3" d="M235.273 225.042L136.656 267.792C135.002 268.51 133.086 267.746 132.367 266.092C131.649 264.438 132.413 262.522 134.067 261.803L232.684 219.054C234.337 218.335 236.254 219.099 236.972 220.753C237.691 222.407 236.927 224.323 235.273 225.042Z" fill="#222222"/>
<path d="M240.679 225.372C240.679 225.372 240.588 225.441 240.394 225.532C240.166 225.646 239.881 225.783 239.516 225.954C238.706 226.331 237.565 226.867 236.128 227.54C233.14 228.908 228.874 230.87 223.627 233.277C213.065 238.102 198.454 244.751 182.28 251.971C166.095 259.203 151.381 265.613 140.671 270.107C135.321 272.365 130.964 274.145 127.953 275.354C126.47 275.935 125.307 276.403 124.474 276.734C124.098 276.871 123.801 276.985 123.562 277.076C123.356 277.156 123.242 277.179 123.242 277.179C123.242 277.179 123.334 277.122 123.539 277.019C123.767 276.916 124.064 276.78 124.429 276.62C125.25 276.266 126.402 275.764 127.862 275.137C130.884 273.837 135.196 271.989 140.5 269.719C151.164 265.123 165.844 258.655 182.029 251.424C198.192 244.192 212.814 237.645 223.456 232.889C228.737 230.551 233.026 228.657 236.037 227.323C237.497 226.696 238.649 226.194 239.47 225.84C239.835 225.692 240.132 225.566 240.371 225.464C240.577 225.384 240.679 225.35 240.691 225.361L240.679 225.372Z" fill="#4E4E4E"/>
<path d="M251.526 247.078C251.378 247.147 246.884 238.09 241.478 226.844C236.071 215.597 231.817 206.427 231.965 206.347C232.113 206.279 236.607 215.335 242.014 226.581C247.409 237.828 251.675 246.998 251.526 247.067V247.078Z" fill="#4E4E4E"/>
<path d="M375.328 190.219C375.328 190.219 375.293 189.911 375.248 189.318C375.214 188.702 375.157 187.824 375.088 186.683C375.054 186.101 375.02 185.451 374.974 184.744C374.906 184.037 374.746 183.261 374.62 182.417C374.484 181.573 374.347 180.672 374.198 179.714C374.084 178.745 373.719 177.752 373.48 176.68C372.51 172.391 370.503 167.316 367.332 161.932C364.138 156.571 359.53 150.982 353.257 146.226C352.47 145.633 351.671 145.04 350.862 144.447C350.018 143.899 349.139 143.386 348.261 142.85C347.371 142.336 346.516 141.72 345.558 141.287C344.611 140.831 343.653 140.375 342.684 139.907C342.204 139.679 341.714 139.451 341.224 139.211C340.71 139.029 340.208 138.835 339.684 138.652C338.657 138.276 337.619 137.899 336.57 137.523C335.509 137.169 334.403 136.953 333.308 136.645C332.201 136.394 331.118 136.006 329.966 135.892C327.685 135.573 325.369 135.094 322.974 135.082C321.776 135.037 320.579 134.922 319.37 134.945C318.161 135.002 316.94 135.071 315.708 135.139C315.092 135.185 314.476 135.173 313.86 135.253C313.245 135.345 312.629 135.447 312.013 135.538C310.781 135.744 309.526 135.881 308.294 136.143C305.853 136.804 303.321 137.306 300.926 138.31L299.09 138.983C298.782 139.097 298.474 139.2 298.166 139.325L297.276 139.759C296.09 140.329 294.904 140.899 293.706 141.481C292.543 142.108 291.425 142.85 290.261 143.534C289.691 143.899 289.086 144.207 288.55 144.618L286.919 145.838C284.672 147.378 282.71 149.306 280.646 151.165C279.711 152.191 278.775 153.218 277.84 154.256L277.133 155.031L276.494 155.875L275.228 157.563L273.962 159.263L272.844 161.077L271.738 162.902L271.179 163.814C271.008 164.133 270.86 164.453 270.711 164.784C270.084 166.072 269.468 167.373 268.829 168.684C268.327 170.042 267.837 171.41 267.335 172.779C265.533 178.323 264.563 184.219 264.484 190.208C264.563 196.207 265.533 202.104 267.335 207.647C267.837 209.016 268.339 210.385 268.829 211.742C269.457 213.043 270.084 214.343 270.711 215.643L271.179 216.613L271.738 217.525L272.844 219.35L273.962 221.164L275.228 222.863L276.494 224.551L277.133 225.395L277.84 226.171C278.775 227.209 279.722 228.235 280.646 229.262C282.699 231.121 284.672 233.049 286.919 234.589L288.55 235.809C289.086 236.22 289.691 236.528 290.261 236.893C291.413 237.577 292.531 238.318 293.706 238.946C294.904 239.527 296.09 240.098 297.276 240.668L298.166 241.101C298.462 241.227 298.782 241.33 299.09 241.444L300.926 242.117C303.333 243.12 305.853 243.611 308.294 244.284C309.526 244.535 310.781 244.683 312.013 244.888C312.629 244.98 313.245 245.082 313.86 245.173C314.476 245.253 315.092 245.253 315.708 245.287C316.94 245.356 318.161 245.413 319.37 245.481C320.579 245.504 321.788 245.379 322.974 245.345C325.369 245.333 327.685 244.854 329.966 244.535C331.118 244.421 332.201 244.021 333.308 243.77C334.403 243.474 335.509 243.246 336.57 242.892C337.619 242.516 338.657 242.128 339.684 241.763C340.197 241.581 340.71 241.387 341.224 241.204C341.714 240.976 342.204 240.736 342.684 240.508C343.653 240.041 344.611 239.584 345.558 239.128C346.516 238.695 347.36 238.079 348.261 237.566C349.139 237.029 350.018 236.516 350.862 235.969C351.671 235.364 352.47 234.771 353.257 234.189C359.53 229.433 364.138 223.844 367.332 218.483C370.491 213.1 372.499 208.024 373.48 203.735C373.731 202.663 374.084 201.682 374.198 200.701C374.347 199.732 374.495 198.831 374.62 197.998C374.746 197.154 374.894 196.39 374.974 195.683C375.02 194.964 375.054 194.325 375.088 193.744C375.157 192.591 375.214 191.713 375.248 191.109C375.282 190.516 375.328 190.208 375.328 190.208C375.328 190.208 375.328 190.516 375.316 191.109C375.293 191.725 375.259 192.603 375.214 193.755C375.191 194.337 375.157 194.987 375.134 195.705C375.065 196.424 374.928 197.188 374.814 198.032C374.689 198.876 374.552 199.777 374.415 200.747C374.313 201.728 373.959 202.72 373.719 203.792C372.773 208.115 370.788 213.225 367.64 218.654C364.458 224.061 359.838 229.718 353.542 234.52C352.755 235.113 351.945 235.718 351.135 236.322C350.291 236.881 349.402 237.394 348.523 237.942C347.622 238.455 346.767 239.083 345.809 239.527C344.851 239.984 343.893 240.451 342.912 240.93C342.421 241.158 341.931 241.398 341.44 241.638C340.927 241.831 340.414 242.014 339.889 242.208C338.851 242.584 337.813 242.972 336.752 243.36C335.692 243.713 334.574 243.942 333.467 244.25C332.35 244.5 331.255 244.9 330.091 245.025C327.787 245.356 325.449 245.835 323.042 245.858C321.845 245.903 320.624 246.017 319.404 246.006C318.183 245.949 316.951 245.881 315.708 245.824C315.092 245.778 314.465 245.789 313.838 245.709C313.222 245.618 312.594 245.527 311.978 245.424C310.735 245.219 309.469 245.082 308.226 244.82C305.762 244.158 303.207 243.656 300.778 242.653C300.162 242.425 299.546 242.196 298.93 241.98C298.622 241.866 298.303 241.763 298.006 241.638L297.105 241.204C295.907 240.634 294.71 240.052 293.501 239.47C292.326 238.832 291.185 238.09 290.022 237.394C289.451 237.029 288.836 236.722 288.299 236.311L286.657 235.079C284.387 233.528 282.403 231.577 280.315 229.695C279.369 228.657 278.422 227.619 277.475 226.57L276.757 225.783L276.118 224.939L274.84 223.228L273.551 221.506L272.422 219.669L271.293 217.822L270.734 216.898L270.255 215.917C269.628 214.605 268.989 213.293 268.362 211.982C267.86 210.613 267.347 209.233 266.845 207.841C265.02 202.23 264.039 196.276 263.959 190.219C264.039 184.162 265.02 178.208 266.845 172.597C267.358 171.217 267.86 169.836 268.362 168.456C269 167.133 269.628 165.821 270.255 164.521C270.415 164.19 270.563 163.86 270.734 163.54L271.293 162.616L272.422 160.769L273.551 158.932L274.84 157.21L276.118 155.499L276.757 154.655L277.475 153.868C278.422 152.819 279.369 151.781 280.315 150.743C282.391 148.872 284.387 146.922 286.657 145.37L288.299 144.139C288.847 143.728 289.451 143.42 290.022 143.055C291.185 142.359 292.326 141.618 293.501 140.979C294.71 140.397 295.919 139.816 297.105 139.245L298.006 138.812C298.314 138.686 298.622 138.584 298.93 138.47C299.546 138.242 300.162 138.014 300.778 137.797C303.207 136.793 305.762 136.291 308.226 135.63C309.481 135.379 310.735 135.23 311.978 135.025C312.606 134.934 313.222 134.831 313.838 134.74C314.454 134.66 315.081 134.66 315.697 134.626C316.94 134.569 318.172 134.5 319.392 134.443C320.613 134.432 321.822 134.546 323.031 134.592C325.449 134.615 327.776 135.094 330.08 135.424C331.243 135.55 332.338 135.938 333.456 136.2C334.562 136.508 335.68 136.736 336.741 137.09C337.802 137.477 338.84 137.865 339.878 138.242C340.391 138.436 340.916 138.618 341.429 138.812C341.919 139.051 342.41 139.28 342.9 139.519C343.87 139.987 344.839 140.454 345.786 140.922C346.755 141.367 347.6 141.983 348.501 142.508C349.379 143.055 350.269 143.568 351.113 144.127C351.922 144.732 352.721 145.336 353.519 145.929C359.827 150.743 364.435 156.4 367.629 161.795C370.788 167.224 372.773 172.334 373.708 176.657C373.948 177.741 374.301 178.733 374.404 179.703C374.552 180.672 374.678 181.573 374.803 182.417C374.917 183.261 375.065 184.037 375.122 184.744C375.157 185.463 375.179 186.113 375.202 186.695C375.248 187.847 375.282 188.725 375.305 189.341C375.328 189.934 375.316 190.242 375.316 190.242L375.328 190.219Z" fill="#4E4E4E"/>
<path d="M367.72 176.098C367.72 176.098 367.697 175.95 367.663 175.653C367.64 175.334 367.606 174.901 367.572 174.342C367.549 174.056 367.537 173.726 367.503 173.383C367.469 173.03 367.389 172.654 367.321 172.231C367.184 171.399 367.058 170.441 366.739 169.391C366.248 167.27 365.245 164.761 363.671 162.103C362.085 159.457 359.804 156.696 356.702 154.358C353.611 152.043 349.698 150.07 345.204 149.271C340.733 148.507 335.68 148.644 330.878 150.469C329.658 150.857 328.506 151.461 327.32 152.031C326.202 152.704 325.016 153.332 323.978 154.176C322.871 154.94 321.902 155.887 320.887 156.81C319.974 157.826 319.005 158.818 318.218 159.97C316.598 162.228 315.184 164.726 314.317 167.475C313.427 170.213 312.948 173.121 312.914 176.075C312.948 179.029 313.427 181.938 314.317 184.675C315.172 187.424 316.586 189.934 318.218 192.192C319.005 193.344 319.974 194.336 320.887 195.352C321.902 196.264 322.871 197.222 323.978 197.986C325.016 198.83 326.202 199.458 327.32 200.142C328.506 200.712 329.658 201.317 330.878 201.705C335.692 203.53 340.733 203.678 345.216 202.902C349.721 202.104 353.622 200.131 356.713 197.815C359.815 195.477 362.097 192.717 363.682 190.071C365.256 187.413 366.248 184.904 366.75 182.782C367.07 181.733 367.195 180.775 367.332 179.942C367.4 179.531 367.469 179.144 367.514 178.79C367.537 178.436 367.56 178.117 367.583 177.832C367.629 177.284 367.651 176.851 367.674 176.52C367.697 176.224 367.72 176.075 367.731 176.075C367.743 176.075 367.743 176.224 367.731 176.52C367.731 176.84 367.708 177.284 367.697 177.832C367.697 178.128 367.674 178.448 367.663 178.801C367.629 179.155 367.56 179.543 367.514 179.965C367.4 180.797 367.286 181.778 366.978 182.828C366.522 184.972 365.541 187.527 363.979 190.23C362.405 192.922 360.112 195.739 356.975 198.146C353.85 200.519 349.892 202.549 345.307 203.381C340.756 204.18 335.612 204.054 330.696 202.207C329.441 201.807 328.266 201.191 327.057 200.621C325.917 199.937 324.708 199.298 323.635 198.431C322.506 197.656 321.514 196.686 320.476 195.751C319.541 194.713 318.548 193.698 317.738 192.523C316.073 190.219 314.625 187.664 313.746 184.847C312.834 182.052 312.343 179.075 312.309 176.053C312.343 173.03 312.834 170.064 313.746 167.27C314.625 164.453 316.073 161.898 317.738 159.605C318.548 158.43 319.529 157.415 320.476 156.377C321.514 155.442 322.506 154.472 323.635 153.697C324.708 152.83 325.905 152.202 327.057 151.507C328.266 150.925 329.441 150.32 330.684 149.921C335.6 148.073 340.745 147.948 345.296 148.746C349.881 149.579 353.839 151.609 356.964 153.982C360.101 156.377 362.393 159.206 363.967 161.898C365.53 164.601 366.511 167.144 366.967 169.3C367.275 170.361 367.389 171.33 367.503 172.163C367.56 172.585 367.629 172.961 367.651 173.326C367.663 173.68 367.674 173.999 367.686 174.296C367.697 174.855 367.708 175.288 367.72 175.608C367.72 175.904 367.72 176.053 367.72 176.053V176.098Z" fill="#4E4E4E"/>
<path opacity="0.3" d="M293.843 136.223V243.759C293.843 243.759 300.242 247.055 309.252 248.869L308.157 131.512C303.105 132.493 298.303 133.987 293.843 136.223Z" fill="white"/>
<path d="M286.041 239.824C285.881 239.824 285.744 217.742 285.744 190.504C285.744 163.266 285.881 141.184 286.041 141.184C286.201 141.184 286.338 163.266 286.338 190.504C286.338 217.742 286.201 239.824 286.041 239.824Z" fill="white"/>
<path d="M274.281 152.75C274.281 152.75 274.008 153.263 273.426 154.107C272.833 154.952 272.023 156.206 271.065 157.78C270.107 159.354 269.057 161.282 268.008 163.483C266.982 165.696 265.955 168.171 265.077 170.84C264.21 173.509 263.56 176.11 263.081 178.505C262.624 180.9 262.316 183.067 262.157 184.915C261.986 186.752 261.894 188.246 261.872 189.272C261.837 190.31 261.792 190.881 261.758 190.881C261.712 190.881 261.678 190.31 261.643 189.272C261.598 188.234 261.621 186.729 261.735 184.881C261.837 183.022 262.111 180.832 262.533 178.402C262.989 175.984 263.628 173.361 264.506 170.658C265.407 167.966 266.445 165.468 267.518 163.255C268.613 161.054 269.696 159.126 270.711 157.563C271.715 156.001 272.582 154.78 273.243 153.971C273.882 153.161 274.259 152.716 274.293 152.75H274.281Z" fill="white"/>
<path d="M257.526 190.185C257.594 190.333 253.055 192.648 247.397 195.352C241.729 198.055 237.075 200.131 237.006 199.983C236.938 199.834 241.478 197.519 247.146 194.816C252.815 192.112 257.469 190.036 257.537 190.185H257.526Z" fill="white"/>
<path d="M228.018 214.331C228.018 214.331 227.95 214.388 227.79 214.468C227.608 214.571 227.38 214.685 227.095 214.833C226.433 215.164 225.543 215.609 224.403 216.168C222.064 217.32 218.665 218.951 214.445 220.935C206.016 224.916 194.325 230.3 181.322 236.048C168.308 241.797 156.457 246.804 147.834 250.352C143.522 252.12 140.032 253.534 137.603 254.492C136.428 254.948 135.493 255.313 134.808 255.576C134.512 255.678 134.272 255.769 134.078 255.849C133.907 255.906 133.827 255.929 133.816 255.918C133.804 255.906 133.896 255.861 134.055 255.792C134.249 255.701 134.477 255.598 134.763 255.473C135.435 255.176 136.359 254.777 137.511 254.275C139.964 253.237 143.42 251.766 147.663 249.952C156.24 246.314 168.068 241.238 181.071 235.49C194.074 229.741 205.788 224.426 214.263 220.536C218.46 218.609 221.871 217.046 224.289 215.94C225.441 215.426 226.353 215.016 227.026 214.708C227.311 214.582 227.551 214.48 227.745 214.4C227.904 214.331 227.996 214.308 227.996 214.308L228.018 214.331Z" fill="white"/>
<path d="M341.03 146.066C341.018 146.18 339.056 145.781 335.886 145.895C332.737 145.998 328.323 146.785 324.057 149.077C319.792 151.37 316.701 154.609 314.876 157.187C313.028 159.765 312.286 161.624 312.184 161.567C312.15 161.555 312.309 161.076 312.674 160.255C313.039 159.434 313.644 158.282 314.533 156.936C316.29 154.256 319.415 150.891 323.772 148.541C328.129 146.192 332.669 145.45 335.863 145.462C337.471 145.462 338.771 145.587 339.65 145.735C340.539 145.884 341.018 146.009 341.007 146.055L341.03 146.066Z" fill="white"/>
<path d="M349.778 140.158C349.778 140.158 349.253 139.964 348.364 139.519C347.485 139.063 346.185 138.458 344.554 137.751C342.934 137.044 340.95 136.314 338.714 135.618C336.479 134.945 333.981 134.329 331.323 133.862C328.654 133.428 326.099 133.2 323.761 133.097C321.423 133.029 319.313 133.063 317.545 133.2C315.777 133.326 314.351 133.474 313.37 133.622C312.389 133.748 311.842 133.805 311.83 133.77C311.83 133.725 312.355 133.599 313.336 133.394C314.305 133.177 315.742 132.961 317.51 132.789C319.29 132.596 321.411 132.516 323.772 132.55C326.133 132.618 328.723 132.835 331.414 133.28C334.106 133.748 336.627 134.386 338.874 135.093C341.121 135.823 343.106 136.61 344.714 137.363C346.333 138.116 347.611 138.789 348.466 139.302C349.322 139.816 349.789 140.112 349.767 140.146L349.778 140.158Z" fill="white"/>
<path opacity="0.3" d="M212.289 223.331L216.179 203.655L220.764 203.461L223.057 177.843L218.129 198.237L213.122 197.12L208.389 222.532L212.289 223.331Z" fill="white"/>
<path d="M252.45 231.201C252.45 231.201 259.282 226.228 261.632 225.406C263.982 224.574 271.898 223.171 274.692 221.163C274.692 221.163 277.201 222.509 275.08 224.688C272.958 226.855 269.103 229.091 267.107 229.684C265.1 230.277 265.738 231.725 267.175 232.227C268.613 232.729 278.867 234.486 278.867 234.486C278.867 234.486 290.786 234.737 291.767 235.946C292.748 237.155 291.938 238.786 290.957 239.128C290.25 239.379 280.019 240.052 280.019 240.052L274.76 239.424C274.76 239.424 291.117 242.447 292.041 243.816C292.976 245.196 292.166 246.131 291.322 246.633C290.478 247.135 283.281 245.732 283.281 245.732L273.46 244.523L291.322 249.633C291.322 249.633 292.953 250.329 292.611 251.675C292.269 253.009 290.056 253.306 290.056 253.306L271.156 249.644C271.156 249.644 280.361 256.123 280.692 256.967C281.125 258.096 279.22 259.134 278.49 258.655C277.749 258.187 265.898 253.1 265.898 253.1L252.336 246.93L243.36 247.044L247.26 230.402L252.462 231.189L252.45 231.201Z" fill="#FFCAAE"/>
<path d="M211.822 247.523L250.363 246.952L249.622 230.904L208.4 222.543L214.343 192.238L186.227 185.748C182.098 203.073 180.729 217.627 179.702 229.364C179.702 229.364 177.775 241.512 191.53 244.877C200.29 247.021 211.822 247.523 211.822 247.523Z" fill="#FFCAAE"/>
<path d="M179.36 189.569L218.129 198.237C218.129 198.237 224.905 172.984 225.133 165.981C225.361 158.978 215.768 136.816 202.241 141.298C202.241 141.298 198.146 140.466 194.428 145.94C192.933 148.142 179.349 189.569 179.349 189.569H179.36Z" fill="#7A7A7A"/>
<path d="M223.445 162.342C223.331 162.342 223.787 160.141 223.023 156.719C222.646 155.02 221.973 153.035 220.935 150.971C219.932 148.895 218.586 146.682 216.419 145.165C214.251 143.671 211.822 142.77 209.552 142.462C207.271 142.119 205.172 142.097 203.427 142.165C201.682 142.245 200.279 142.462 199.321 142.678C198.374 142.906 197.861 143.112 197.838 143.055C197.838 143.032 197.952 142.963 198.18 142.861C198.408 142.735 198.773 142.61 199.252 142.45C200.199 142.165 201.625 141.868 203.393 141.743C205.161 141.606 207.282 141.595 209.62 141.914C211.97 142.211 214.491 143.112 216.749 144.674C219.042 146.271 220.433 148.621 221.414 150.72C222.452 152.83 223.091 154.871 223.422 156.617C223.764 158.362 223.775 159.822 223.696 160.814C223.65 161.304 223.604 161.692 223.547 161.943C223.49 162.194 223.456 162.331 223.433 162.331L223.445 162.342Z" fill="#4E4E4E"/>
<path d="M223.445 174.9C223.445 174.9 223.445 175.06 223.388 175.368C223.319 175.722 223.239 176.155 223.137 176.68C222.874 177.9 222.532 179.543 222.11 181.573C221.175 185.816 219.886 191.622 218.403 198.306L218.346 198.591L218.061 198.534C215.62 197.998 213.031 197.416 210.35 196.823C201.819 194.884 194.085 193.127 188.405 191.827C185.668 191.177 183.421 190.641 181.767 190.242C181.037 190.059 180.444 189.899 179.965 189.785C179.554 189.671 179.337 189.603 179.349 189.591C179.349 189.569 179.577 189.591 179.988 189.671C180.467 189.762 181.071 189.877 181.813 190.025C183.466 190.367 185.736 190.846 188.485 191.416C194.188 192.671 201.921 194.371 210.476 196.241C213.156 196.846 215.746 197.427 218.186 197.975L217.844 198.192C219.407 191.53 220.764 185.736 221.757 181.505C222.247 179.497 222.646 177.866 222.954 176.646C223.091 176.132 223.205 175.699 223.296 175.357C223.376 175.06 223.433 174.912 223.445 174.912V174.9Z" fill="#4E4E4E"/>
<path d="M375.83 171.81C375.83 171.81 376.947 172.254 378.202 171.148C379.457 170.042 381.544 167.156 380.631 166.072C379.719 164.989 377.438 164.555 377.438 164.555C377.438 164.555 379.103 162.445 378.373 160.917C377.335 158.738 375.282 159.605 375.282 159.605C375.282 159.605 376.24 158.008 375.339 155.545C375.088 154.86 374.563 154.313 373.902 154.016L371.917 153.149C371.917 153.149 373.685 150.515 371.666 148.302C371.244 147.845 370.708 147.492 370.115 147.207C367.503 145.975 364.321 146.214 362.393 148.37C363.99 149.956 365.781 151.735 365.382 153.035C365.382 153.035 356.998 158.59 359.165 161.533C360.568 163.438 362.028 162.582 362.028 162.582C362.028 162.582 359.941 164.476 361.047 165.73C361.389 166.118 361.869 166.335 362.359 166.449C363.522 166.711 364.298 166.688 365.507 165.981L366.887 165.206C366.887 165.206 366.294 166.985 367.469 167.954C367.572 168.034 367.663 168.114 367.765 168.171C368.781 168.833 370.115 168.73 371.119 168.057L374.233 165.993L374.506 167.521C374.506 167.521 372.67 169.654 375.83 171.798V171.81Z" fill="#FFCAAE"/>
<path d="M375.83 171.81C375.83 171.81 375.396 171.616 374.769 171.011C374.472 170.692 374.107 170.247 373.936 169.608C373.765 168.969 373.868 168.148 374.392 167.441L374.358 167.555C374.267 167.076 374.176 166.574 374.073 166.027L374.313 166.129C373.731 166.517 373.115 166.939 372.465 167.384C372.134 167.612 371.792 167.84 371.45 168.068C371.107 168.308 370.697 168.559 370.241 168.684C369.351 168.958 368.233 168.855 367.4 168.171C366.967 167.852 366.659 167.327 366.568 166.779C366.465 166.232 366.511 165.684 366.67 165.126L367.001 165.399C366.34 165.764 365.712 166.175 364.948 166.54C364.184 166.905 363.226 166.905 362.405 166.711C361.971 166.631 361.526 166.471 361.139 166.163C360.762 165.89 360.443 165.365 360.477 164.84C360.488 164.327 360.705 163.871 360.956 163.472C361.207 163.072 361.504 162.719 361.857 162.377L362.176 162.81C361.561 163.13 360.865 163.095 360.272 162.833C359.679 162.559 359.234 162.103 358.869 161.567C358.481 160.997 358.47 160.232 358.663 159.616C358.846 158.989 359.177 158.442 359.542 157.917C361.059 155.887 363.078 154.278 365.233 152.773L365.119 152.932C365.245 152.488 365.039 151.917 364.72 151.415C364.401 150.902 363.99 150.412 363.557 149.944C363.123 149.465 362.656 149.009 362.199 148.564L361.994 148.37L362.176 148.165C363.146 147.081 364.503 146.42 365.883 146.237C367.275 146.043 368.667 146.283 369.898 146.796C371.142 147.275 372.305 148.222 372.727 149.533C373.149 150.857 372.807 152.214 372.145 153.297L372.031 152.898C372.727 153.206 373.411 153.503 374.073 153.811C374.803 154.153 375.373 154.803 375.601 155.533C376.08 156.925 376.149 158.442 375.487 159.742L375.179 159.388C375.909 159.115 376.719 159.137 377.392 159.491C378.065 159.856 378.453 160.483 378.692 161.145C378.875 161.852 378.715 162.525 378.487 163.107C378.248 163.688 377.951 164.213 377.586 164.681L377.461 164.361C378.407 164.578 379.286 164.875 380.038 165.354C380.403 165.605 380.768 165.856 380.939 166.323C381.076 166.779 380.974 167.19 380.86 167.566C380.312 169.015 379.445 170.019 378.738 170.783C378.019 171.559 377.21 171.935 376.639 171.946C376.354 171.969 376.149 171.935 376.012 171.901C375.875 171.867 375.807 171.832 375.818 171.821C375.818 171.798 376.103 171.912 376.628 171.832C377.164 171.775 377.894 171.41 378.578 170.623C379.251 169.859 380.084 168.833 380.563 167.464C380.654 167.122 380.723 166.745 380.62 166.426C380.529 166.129 380.175 165.856 379.844 165.65C379.149 165.228 378.293 164.943 377.392 164.749L377.084 164.692L377.267 164.43C377.871 163.563 378.533 162.388 378.248 161.259C378.054 160.734 377.689 160.164 377.164 159.902C376.651 159.616 375.944 159.616 375.373 159.833L374.78 160.061L375.065 159.48C375.601 158.407 375.567 156.97 375.111 155.704C374.906 155.088 374.438 154.575 373.845 154.29C373.172 153.993 372.499 153.697 371.803 153.4L371.518 153.275L371.689 152.99C372.259 152.043 372.556 150.8 372.191 149.716C371.826 148.61 370.845 147.788 369.682 147.332C368.53 146.853 367.241 146.648 365.975 146.819C364.709 146.99 363.488 147.594 362.621 148.564V148.153C363.066 148.61 363.534 149.066 363.979 149.556C364.423 150.047 364.857 150.549 365.21 151.119C365.553 151.666 365.872 152.374 365.667 153.115L365.644 153.206L365.553 153.275C363.454 154.735 361.435 156.343 360.009 158.259C359.336 159.183 358.766 160.392 359.348 161.27C359.644 161.715 360.044 162.126 360.5 162.331C360.945 162.548 361.504 162.548 361.891 162.342L363.488 161.533L362.211 162.776C361.618 163.358 361.024 164.11 360.99 164.84C360.945 165.57 361.743 166.072 362.484 166.198C363.283 166.392 364.047 166.392 364.743 166.072C365.427 165.764 366.1 165.331 366.762 164.977L367.264 164.715L367.104 165.262C366.819 166.186 366.933 167.293 367.663 167.817C368.359 168.411 369.328 168.513 370.127 168.285C370.925 168.068 371.586 167.475 372.271 167.076C372.932 166.643 373.56 166.243 374.141 165.856L374.335 165.73L374.37 165.958C374.461 166.494 374.541 167.008 374.62 167.487V167.544L374.586 167.601C374.107 168.205 373.982 168.958 374.119 169.54C374.255 170.133 374.575 170.566 374.849 170.886C375.43 171.513 375.83 171.741 375.807 171.787L375.83 171.81Z" fill="#FF9A6C"/>
<path d="M372.351 152.305C372.419 152.317 372.328 153.161 371.769 154.381C371.221 155.602 370.126 157.153 368.598 158.499C367.07 159.856 365.496 160.803 364.344 161.453C363.192 162.092 362.45 162.434 362.405 162.365C362.359 162.297 363.032 161.818 364.116 161.088C365.199 160.358 366.716 159.366 368.187 158.054C369.659 156.742 370.754 155.316 371.37 154.187C371.997 153.058 372.225 152.282 372.328 152.305H372.351Z" fill="#FF9A6C"/>
<path d="M375.362 159.046C375.453 159.046 375.282 159.765 374.461 160.426C373.662 161.065 372.545 161.829 371.279 162.673C368.758 164.361 366.636 165.616 366.545 165.479C366.454 165.342 368.427 163.871 370.948 162.183C372.202 161.339 373.389 160.609 374.21 160.095C375.031 159.571 375.282 159.023 375.362 159.046Z" fill="#FF9A6C"/>
<path d="M377.689 164.407C377.78 164.532 377.084 165.194 376.012 165.662C374.94 166.129 373.982 166.209 373.948 166.049C373.913 165.89 374.757 165.559 375.772 165.114C376.788 164.669 377.597 164.27 377.689 164.407Z" fill="#FF9A6C"/>
<path d="M377.164 166.106C377.164 166.278 376.377 166.437 375.601 166.985C374.814 167.521 374.392 168.217 374.244 168.148C374.084 168.114 374.324 167.156 375.271 166.494C376.206 165.833 377.187 165.935 377.175 166.095L377.164 166.106Z" fill="#FF9A6C"/>
</g>
<defs>
<clipPath id="clip0_1405_24342">
<rect width="495" height="508.106" fill="white"/>
</clipPath>
</defs>
</svg>
